<?xml version="1.0" encoding="UTF-8"?>
<svg width="28px" height="28px" viewBox="0 0 28 28" version="1.1" xmlns="http://www.w3.org/2000/svg" xmlns:xlink="http://www.w3.org/1999/xlink">
    <!-- Generator: Sketch 61.1 (89650) - https://sketch.com -->
    <title>marjaiconi</title>
    <desc>Created with Sketch.</desc>
    <defs>
        <path d="M14,7 C14.5494533,7 15.0549427,7.13861248 15.5164835,7.41584158 C15.9780243,7.69307069 16.340658,8.074255 16.6043956,8.55940594 C16.8681332,9.04455688 17,9.5759047 17,10.1534653 C17,11.0082551 16.7087941,11.7475216 16.1263736,12.3712871 C15.5439531,12.9950526 14.835169,13.3069307 14,13.3069307 C13.164831,13.3069307 12.4560469,12.9950526 11.8736264,12.3712871 C11.2912059,11.7475216 11,11.0024796 11,10.1361386 C11,9.26979765 11.2912059,8.53053111 11.8736264,7.91831683 C12.4560469,7.30610255 13.164831,7 14,7 Z M13.5384615,14 C13.7142866,14.0231024 13.8681312,14.0346535 14,14.0346535 C14.1318688,14.0346535 14.2857134,14.0231024 14.4615385,14 L14.4615385,20.5148515 C14.4615385,20.653466 14.4175829,20.7689764 14.3296703,20.8613861 C14.2417578,20.9537958 14.1318688,21 14,21 C13.8681312,21 13.7582422,20.9537958 13.6703297,20.8613861 C13.5824171,20.7689764 13.5384615,20.653466 13.5384615,20.5148515 L13.5384615,14 Z" id="path-1"></path>
    </defs>
    <g id="marjaiconi" stroke="none" stroke-width="1" fill="none" fill-rule="evenodd">
        <g id="Group-28-Copy-4">
            <circle id="marjan-tausta" stroke="#1964E6" stroke-width="2.5" fill="#FFFFFF" cx="14" cy="14" r="12.75"></circle>
            <mask id="mask-2" fill="white">
                <use xlink:href="#path-1"></use>
            </mask>
            <use id="marja" fill="#1964E6" fill-rule="nonzero" xlink:href="#path-1"></use>
        </g>
    </g>
</svg>