<svg id="svg" version="1.1" xmlns="http://www.w3.org/2000/svg" xmlns:xlink="http://www.w3.org/1999/xlink" width="400" height="400" viewBox="0, 0, 400,400"><g id="svgg"><path id="path0" d="M379.364 10.320 C 379.397 12.032,379.489 12.205,380.400 12.261 C 380.950 12.294,381.490 12.353,381.600 12.391 C 383.493 13.054,383.603 12.486,381.945 10.599 C 379.815 8.172,379.322 8.119,379.364 10.320 M381.071 10.500 C 381.516 10.995,382.013 11.670,382.175 12.000 C 382.337 12.330,382.113 12.161,381.677 11.625 C 381.241 11.089,380.561 10.414,380.165 10.125 C 379.770 9.836,379.630 9.600,379.854 9.600 C 380.078 9.600,380.625 10.005,381.071 10.500 M10.599 18.055 C 8.172 20.185,8.119 20.678,10.320 20.636 C 12.032 20.603,12.205 20.511,12.261 19.600 C 12.294 19.050,12.353 18.510,12.391 18.400 C 13.054 16.507,12.486 16.397,10.599 18.055 M11.137 18.900 C 10.402 19.615,9.710 20.140,9.600 20.067 C 9.382 19.921,11.869 17.600,12.243 17.600 C 12.370 17.600,11.873 18.185,11.137 18.900 M65.815 19.028 C 63.482 19.395,61.978 19.844,61.507 20.315 C 60.546 21.277,59.905 28.291,60.262 33.948 L 60.524 38.096 63.162 40.748 C 64.613 42.207,66.396 44.526,67.125 45.902 C 67.853 47.278,69.316 49.258,70.376 50.302 C 71.437 51.346,73.562 54.090,75.100 56.400 C 76.637 58.710,78.955 61.792,80.250 63.248 C 81.544 64.705,83.319 67.135,84.194 68.648 C 85.068 70.162,86.878 72.507,88.215 73.860 C 89.552 75.213,91.253 77.463,91.994 78.860 C 92.736 80.257,94.356 82.480,95.596 83.800 C 96.835 85.120,99.043 88.000,100.502 90.200 C 101.961 92.400,104.334 95.550,105.774 97.200 C 107.215 98.850,108.948 101.239,109.625 102.509 C 110.302 103.779,112.061 106.029,113.533 107.509 C 115.005 108.989,116.654 111.100,117.197 112.200 C 117.740 113.300,119.293 115.370,120.646 116.800 C 122.000 118.230,123.867 120.660,124.795 122.200 C 125.723 123.740,127.192 125.851,128.058 126.892 C 131.921 131.530,132.832 138.275,130.362 143.951 C 129.413 146.132,129.339 145.851,131.100 146.747 C 133.803 148.122,137.731 149.095,141.776 149.393 C 149.576 149.968,150.543 151.363,152.031 164.200 C 152.627 169.340,153.127 171.161,154.598 173.550 C 156.412 176.499,157.635 179.578,159.400 185.635 C 160.309 188.756,161.344 191.357,162.186 192.638 C 164.455 196.089,165.925 199.352,167.249 203.868 C 168.758 209.022,169.798 211.461,171.710 214.339 C 173.253 216.661,173.969 218.480,176.205 225.773 C 177.201 229.021,178.176 231.292,179.254 232.880 C 180.637 234.916,184.000 242.495,184.000 243.575 C 184.000 244.411,187.639 253.683,188.752 255.681 C 190.275 258.418,194.680 269.472,195.220 271.915 C 195.450 272.952,196.093 274.947,196.651 276.349 C 197.863 279.397,197.731 280.637,195.188 290.041 L 193.609 295.882 194.146 300.241 C 194.523 303.295,194.986 305.199,195.695 306.600 C 196.998 309.178,198.818 314.395,200.817 321.284 C 201.906 325.037,203.202 328.319,204.923 331.684 C 207.004 335.755,207.626 337.460,208.541 341.600 C 209.148 344.350,209.996 348.195,210.425 350.144 C 210.855 352.093,211.902 355.701,212.753 358.162 C 214.331 362.725,215.352 368.538,215.837 375.712 L 216.074 379.224 218.137 380.312 L 220.200 381.400 278.371 381.509 C 353.852 381.651,351.267 381.972,343.053 373.470 C 341.691 372.060,339.771 370.503,338.788 370.011 C 336.408 368.819,334.142 366.612,332.994 364.370 L 332.057 362.539 332.854 358.570 C 334.018 352.772,333.392 347.251,330.888 341.245 C 329.915 338.910,328.682 335.470,328.149 333.600 C 327.616 331.730,326.537 328.229,325.750 325.821 C 324.152 320.923,324.156 320.079,325.793 316.503 C 327.773 312.179,329.922 310.224,334.844 308.269 L 337.487 307.220 340.259 307.988 C 343.886 308.993,346.243 310.023,350.393 312.416 C 353.423 314.164,354.325 314.471,358.546 315.192 C 368.005 316.807,373.534 321.927,375.400 330.801 C 376.314 335.144,377.114 337.618,378.148 339.301 L 379.071 340.802 379.576 339.701 C 380.542 337.598,381.186 331.346,381.420 321.800 L 381.655 312.200 380.527 310.916 C 379.494 309.739,379.101 309.597,375.800 309.197 C 365.036 307.894,364.182 305.565,364.491 278.340 C 364.738 256.499,364.885 256.143,374.649 253.675 L 379.000 252.576 380.200 250.188 C 381.873 246.859,382.002 237.079,380.444 231.700 C 379.315 227.800,379.546 227.867,376.134 230.450 C 374.645 231.577,372.161 233.079,370.613 233.787 C 369.066 234.495,366.540 236.117,365.000 237.391 C 363.260 238.830,360.534 240.499,357.800 241.796 C 351.162 244.946,349.974 245.541,347.828 246.784 C 345.116 248.356,339.167 249.189,316.200 251.212 C 309.932 251.764,302.868 252.918,298.826 254.050 C 294.731 255.197,289.798 254.621,284.800 252.411 C 282.930 251.584,280.770 250.671,280.000 250.382 C 277.905 249.595,275.430 247.805,274.082 246.104 C 273.383 245.221,271.756 244.008,270.179 243.195 C 266.737 241.420,265.406 240.447,258.554 234.698 C 252.659 229.751,250.935 227.550,248.296 221.600 C 247.759 220.390,246.496 218.488,245.489 217.373 C 244.400 216.168,242.840 213.636,241.644 211.130 C 240.210 208.128,238.925 206.136,237.181 204.211 C 230.947 197.332,230.579 194.833,234.065 183.058 C 235.231 179.120,235.232 179.112,234.627 175.858 C 233.335 168.903,232.843 162.749,233.198 157.980 C 233.614 152.408,233.968 151.210,237.373 143.872 C 239.224 139.882,239.730 137.620,240.975 127.762 C 242.850 112.919,244.395 109.896,251.609 106.965 L 253.998 105.994 259.099 106.585 C 261.904 106.910,266.810 107.660,270.000 108.253 C 276.660 109.489,282.656 109.649,292.600 108.856 C 310.915 107.395,314.423 107.160,321.000 106.951 C 326.895 106.763,330.285 106.910,339.708 107.761 C 346.037 108.332,353.622 108.800,356.564 108.800 C 362.952 108.800,367.391 109.785,373.529 112.566 C 379.040 115.063,379.043 115.064,379.774 113.650 C 381.921 109.498,382.240 95.853,380.278 92.092 L 379.178 89.983 375.889 90.225 C 374.080 90.357,372.373 90.536,372.095 90.622 C 371.125 90.923,351.371 89.616,348.200 89.041 C 341.901 87.900,334.943 83.737,332.085 79.400 C 331.070 77.860,329.577 75.790,328.767 74.800 C 326.545 72.082,326.271 71.353,325.757 66.800 L 325.283 62.600 326.422 60.200 C 327.048 58.880,328.103 57.080,328.767 56.200 C 329.851 54.763,330.020 54.135,330.422 50.040 L 330.870 45.479 329.035 41.807 C 326.910 37.554,326.887 37.314,328.155 32.344 C 328.680 30.285,329.230 26.862,329.376 24.737 L 329.643 20.874 327.397 20.033 C 323.639 18.627,322.060 18.419,315.200 18.427 C 304.180 18.440,300.244 19.313,298.608 22.105 C 298.190 22.817,296.931 24.390,295.810 25.600 C 294.688 26.810,293.091 28.654,292.261 29.698 C 288.926 33.887,285.078 34.634,265.115 34.963 C 246.474 35.270,245.176 34.938,239.378 28.382 C 238.706 27.622,237.429 26.350,236.541 25.555 C 235.653 24.760,234.403 23.320,233.763 22.355 C 232.995 21.195,231.921 20.261,230.600 19.600 L 228.600 18.600 149.000 18.533 C 82.276 18.476,68.820 18.556,65.815 19.028 M252.929 20.130 C 251.009 20.840,250.989 21.049,252.739 22.207 C 256.298 24.562,274.160 23.869,279.194 21.180 C 281.597 19.897,256.298 18.886,252.929 20.130 M344.821 23.700 C 344.507 24.195,343.749 25.629,343.135 26.886 L 342.020 29.171 342.581 33.886 C 343.173 38.857,343.636 40.518,345.400 44.000 C 347.042 47.241,346.800 53.475,344.939 55.825 C 344.254 56.691,343.047 58.576,342.257 60.014 L 340.821 62.628 341.213 66.414 C 341.886 72.917,343.189 74.258,350.118 75.567 C 356.809 76.833,370.002 77.168,375.312 76.208 L 379.224 75.501 380.242 73.765 C 382.408 70.068,380.573 55.295,377.586 52.386 C 376.314 51.148,375.440 49.811,374.838 48.185 C 372.283 41.282,370.592 37.845,369.445 37.225 C 366.864 35.828,364.925 34.038,363.569 31.799 C 362.216 29.566,356.184 26.000,353.759 26.000 C 353.515 26.000,351.895 25.281,350.158 24.402 C 346.530 22.566,345.617 22.446,344.821 23.700 M37.309 33.095 C 36.919 33.697,34.871 35.902,32.759 37.995 C 28.696 42.020,28.214 42.827,27.732 46.400 C 27.629 47.170,27.719 49.191,27.932 50.890 C 28.293 53.762,27.958 56.982,27.234 57.600 C 27.105 57.710,26.651 58.520,26.225 59.400 C 25.799 60.280,24.376 62.113,23.063 63.474 C 20.226 66.413,19.390 69.042,20.081 72.847 C 20.615 75.783,20.900 76.184,22.876 76.774 C 23.824 77.057,25.268 77.629,26.084 78.045 C 26.900 78.460,28.025 78.800,28.584 78.800 C 29.143 78.800,29.600 78.980,29.600 79.200 C 29.600 79.420,29.765 79.600,29.967 79.600 C 30.169 79.600,31.204 79.990,32.267 80.466 C 33.330 80.943,34.711 81.372,35.335 81.421 C 35.959 81.470,36.670 81.710,36.915 81.955 C 37.160 82.200,37.864 82.400,38.480 82.400 C 39.096 82.400,39.600 82.580,39.600 82.800 C 39.600 83.020,40.164 83.200,40.852 83.200 C 42.522 83.200,52.000 86.004,52.000 86.497 C 52.000 86.711,52.279 86.778,52.621 86.647 C 52.962 86.516,53.147 86.562,53.032 86.749 C 52.916 86.936,53.582 87.417,54.511 87.819 C 55.440 88.221,56.505 88.805,56.877 89.116 C 57.249 89.427,57.789 89.597,58.077 89.493 C 58.365 89.389,59.158 89.530,59.839 89.806 C 60.520 90.082,62.005 90.436,63.139 90.592 C 64.273 90.748,65.200 91.013,65.200 91.182 C 65.200 91.350,66.209 91.592,67.442 91.719 C 70.470 92.032,78.442 96.008,81.500 98.730 C 82.215 99.367,82.800 99.821,82.800 99.739 C 82.800 99.313,87.570 103.470,88.600 104.794 C 89.260 105.642,90.845 107.598,92.122 109.140 C 94.320 111.793,96.786 117.451,96.176 118.439 C 96.076 118.601,96.164 119.180,96.372 119.727 C 96.851 120.985,95.319 122.380,92.800 122.981 C 92.690 123.007,92.223 123.238,91.762 123.495 C 90.973 123.934,89.220 124.414,88.100 124.496 C 87.004 124.577,91.321 130.484,95.192 134.200 C 96.108 135.080,97.862 137.510,99.089 139.600 C 100.316 141.690,102.013 144.279,102.860 145.352 C 103.707 146.426,104.400 147.467,104.400 147.665 C 104.400 149.602,108.781 158.792,110.562 160.590 C 112.024 162.066,112.694 163.131,113.086 164.600 C 113.379 165.700,114.314 168.040,115.163 169.800 C 116.012 171.560,116.939 173.630,117.222 174.400 C 117.506 175.170,118.493 177.330,119.417 179.200 C 120.341 181.070,121.917 184.760,122.919 187.400 C 125.183 193.362,127.674 199.392,128.721 201.445 C 129.950 203.853,132.271 209.675,134.265 215.351 C 135.260 218.183,136.954 222.300,138.028 224.497 C 139.103 226.695,140.815 231.079,141.833 234.240 C 142.851 237.401,144.319 241.024,145.097 242.293 C 145.875 243.562,147.854 247.390,149.496 250.800 C 151.138 254.210,152.885 257.540,153.377 258.200 C 153.870 258.860,154.400 259.940,154.555 260.600 C 155.344 263.957,159.481 273.503,161.228 275.999 C 162.076 277.210,163.156 279.460,163.629 281.000 C 164.102 282.540,164.995 284.520,165.614 285.400 C 169.193 290.487,171.113 294.966,172.165 300.686 C 173.476 307.809,175.946 314.587,178.183 317.200 C 179.167 318.349,179.581 319.525,180.032 322.453 C 180.867 327.885,183.138 333.999,185.303 336.643 C 186.590 338.215,187.398 340.649,188.210 345.400 C 188.998 350.012,190.286 354.366,192.293 359.200 C 194.051 363.435,195.467 369.795,195.832 375.093 L 196.110 379.143 194.755 379.367 C 187.729 380.526,181.363 380.683,176.200 379.827 C 172.173 379.158,172.169 379.170,175.782 381.004 L 178.780 382.526 188.090 382.288 C 197.766 382.040,198.695 381.884,201.813 379.982 L 203.026 379.242 202.540 374.521 C 200.908 358.673,198.974 349.280,196.215 343.800 C 194.715 340.820,193.427 337.399,192.225 333.200 C 190.160 325.983,189.595 324.531,188.211 322.886 C 185.111 319.202,182.337 306.566,181.365 291.697 L 181.097 287.594 177.705 284.297 C 170.827 277.611,164.871 266.475,164.184 259.019 C 163.722 254.000,163.812 253.114,165.173 249.276 L 166.455 245.662 165.851 241.331 C 165.519 238.949,164.933 236.280,164.548 235.400 C 164.163 234.520,163.827 233.710,163.800 233.600 C 163.572 232.661,162.184 229.992,161.366 228.919 C 159.638 226.655,158.063 222.788,156.657 217.361 C 155.219 211.814,154.842 210.874,153.318 209.043 C 152.076 207.550,150.363 204.171,150.685 203.849 C 150.821 203.712,150.753 203.600,150.533 203.600 C 150.313 203.600,150.126 203.375,150.117 203.100 C 150.027 200.421,146.703 191.568,144.593 188.392 C 142.364 185.036,141.483 182.754,140.003 176.496 C 138.248 169.074,138.606 169.465,132.200 167.970 C 123.444 165.926,120.286 162.884,114.717 151.127 L 112.193 145.800 112.500 141.251 C 112.996 133.871,112.235 130.207,109.606 127.330 C 108.477 126.095,107.028 124.075,106.387 122.842 C 104.888 119.961,104.270 119.200,103.432 119.200 C 102.560 119.200,97.600 114.309,97.600 113.450 C 97.600 113.092,97.409 112.800,97.176 112.800 C 96.943 112.800,96.850 112.643,96.969 112.450 C 97.230 112.028,96.108 110.863,92.880 108.202 C 91.002 106.655,90.116 105.528,88.948 103.202 C 88.118 101.551,87.177 99.885,86.858 99.500 C 86.538 99.115,86.398 98.800,86.547 98.800 C 86.938 98.800,85.656 96.850,84.106 95.085 C 82.748 93.539,81.780 91.668,80.606 88.316 C 80.158 87.036,79.538 86.179,78.673 85.644 C 76.716 84.433,75.449 82.875,73.753 79.600 C 72.900 77.950,71.375 75.790,70.365 74.800 C 69.355 73.810,67.290 71.110,65.775 68.800 C 64.260 66.490,61.936 63.411,60.610 61.958 C 59.285 60.505,57.570 58.188,56.800 56.809 C 56.030 55.430,54.128 53.019,52.572 51.451 C 50.791 49.654,49.459 47.898,48.972 46.701 C 48.548 45.657,48.065 44.802,47.900 44.801 C 47.735 44.801,47.600 44.607,47.600 44.371 C 47.600 44.134,46.565 42.919,45.300 41.671 C 43.962 40.349,42.435 38.288,41.647 36.740 C 39.320 32.164,38.409 31.398,37.309 33.095 M314.930 118.398 C 310.617 118.761,305.112 119.686,301.800 120.605 C 290.384 123.771,274.978 123.863,268.011 120.805 C 262.506 118.389,261.295 118.682,256.708 123.544 C 253.011 127.464,252.648 128.450,251.397 138.000 C 250.806 142.510,249.887 147.776,249.354 149.703 C 248.822 151.630,247.960 155.347,247.439 157.964 L 246.492 162.722 247.883 170.661 C 249.255 178.494,249.268 178.673,248.837 184.021 C 248.154 192.495,248.251 195.110,249.360 198.052 C 251.248 203.064,252.401 205.272,254.200 207.321 C 255.288 208.559,257.065 211.522,258.596 214.647 C 261.310 220.188,262.851 221.946,269.800 227.423 C 270.900 228.291,272.340 229.526,272.999 230.168 C 274.395 231.528,277.800 233.763,279.097 234.170 C 279.590 234.325,281.240 235.596,282.764 236.994 C 288.282 242.058,292.542 242.617,310.240 240.598 C 318.432 239.664,323.336 238.866,327.600 237.774 C 329.690 237.238,335.086 235.990,339.592 235.001 C 348.933 232.949,352.098 231.673,355.728 228.497 C 357.008 227.377,359.528 225.701,361.328 224.774 C 363.174 223.822,365.646 222.104,367.000 220.831 C 368.320 219.590,370.935 217.721,372.811 216.677 C 381.648 211.762,381.000 215.423,381.000 170.400 L 381.000 133.800 380.106 130.957 L 379.212 128.115 376.906 127.101 C 372.386 125.115,364.662 123.409,358.400 123.014 C 350.836 122.537,344.662 121.642,341.590 120.578 C 335.602 118.503,324.490 117.595,314.930 118.398 M20.450 128.162 C 20.219 129.063,19.935 130.340,19.818 131.000 C 19.700 131.660,19.468 132.920,19.302 133.800 C 18.665 137.175,19.124 145.882,20.033 147.664 L 20.869 149.303 23.335 149.050 C 35.099 147.843,37.703 147.486,39.800 146.791 C 41.656 146.175,42.422 145.669,43.180 144.556 C 43.719 143.765,45.568 141.822,47.290 140.237 L 50.421 137.356 47.310 135.906 C 45.600 135.109,41.770 133.703,38.800 132.782 C 35.830 131.862,33.087 130.949,32.705 130.754 C 32.323 130.559,31.650 130.400,31.210 130.400 C 30.413 130.400,25.182 128.464,24.800 128.028 C 24.690 127.903,23.761 127.513,22.735 127.162 L 20.869 126.524 20.450 128.162 M337.832 188.568 C 337.684 189.357,337.855 191.164,338.236 192.838 C 339.117 196.710,338.889 196.894,333.620 196.569 C 328.429 196.249,328.645 196.372,328.938 193.892 C 329.227 191.456,329.596 191.107,332.608 190.433 L 334.847 189.932 334.182 188.916 C 333.339 187.630,333.865 187.215,336.345 187.206 L 338.089 187.200 337.832 188.568 M19.683 202.550 C 17.040 207.029,16.930 218.268,19.479 223.340 C 20.643 225.656,20.901 225.611,20.343 223.189 C 19.818 220.908,19.804 206.502,20.325 203.600 C 20.807 200.914,20.726 200.782,19.683 202.550 M19.028 309.654 L 17.600 312.507 17.600 318.180 C 17.600 321.300,17.766 324.831,17.970 326.027 C 18.173 327.222,18.437 332.200,18.556 337.089 C 18.794 346.848,19.025 347.861,21.650 350.627 C 22.896 351.939,25.069 356.165,26.675 360.400 C 27.794 363.352,28.728 364.519,30.540 365.232 C 32.341 365.941,33.927 367.511,35.037 369.686 C 35.566 370.723,36.371 371.771,36.827 372.014 C 38.082 372.686,45.502 372.980,46.217 372.386 C 47.090 371.661,46.923 371.200,45.787 371.200 C 44.610 371.200,44.093 370.252,44.803 369.396 C 45.206 368.911,45.100 368.545,44.230 367.404 C 43.644 366.635,42.907 365.420,42.592 364.703 C 42.051 363.470,42.007 363.448,41.764 364.300 C 41.614 364.824,41.192 365.200,40.753 365.200 C 40.339 365.200,40.000 365.373,40.000 365.584 C 40.000 365.795,39.437 365.930,38.750 365.884 C 37.189 365.779,33.600 362.344,33.600 360.956 C 33.600 360.170,33.062 359.468,32.400 359.388 C 29.388 359.028,27.660 356.287,27.367 351.400 C 27.274 349.860,26.900 347.799,26.536 346.821 C 26.059 345.541,26.004 344.999,26.337 344.888 C 26.592 344.803,26.800 344.214,26.800 343.579 C 26.800 342.718,26.952 342.483,27.400 342.655 C 27.767 342.796,28.000 342.655,28.000 342.292 C 28.000 341.965,27.730 341.474,27.400 341.200 C 27.070 340.926,26.800 340.454,26.800 340.151 C 26.800 339.848,26.628 339.600,26.418 339.600 C 26.208 339.600,25.915 338.952,25.766 338.160 C 25.580 337.170,25.393 336.888,25.165 337.257 C 24.982 337.552,24.935 338.200,25.060 338.697 C 25.225 339.354,25.112 339.600,24.643 339.600 C 24.290 339.600,24.000 339.829,24.000 340.109 C 24.000 341.678,20.825 340.643,20.627 339.009 C 19.595 330.494,19.602 310.859,20.638 307.500 C 21.109 305.974,20.383 306.944,19.028 309.654 M349.106 327.543 C 344.728 328.366,344.596 328.519,344.068 333.360 C 343.576 337.871,343.640 338.081,346.143 340.132 C 349.770 343.104,350.689 344.874,351.333 350.127 C 351.764 353.643,352.180 355.344,353.012 356.988 L 354.118 359.174 355.673 357.942 C 362.375 352.634,364.392 349.147,364.705 342.327 C 364.964 336.679,364.899 336.503,361.086 332.516 C 355.310 326.476,355.143 326.407,349.106 327.543 M71.688 366.211 C 71.410 367.745,71.077 369.484,70.949 370.076 C 70.224 373.422,82.519 373.726,90.547 370.561 L 93.000 369.594 90.600 369.809 C 89.280 369.928,86.040 370.115,83.400 370.225 L 78.600 370.425 76.200 369.073 C 74.822 368.297,73.740 367.397,73.659 366.961 C 73.581 366.542,73.285 365.930,73.000 365.600 C 72.715 365.270,72.418 364.645,72.338 364.211 C 72.258 363.777,71.966 364.677,71.688 366.211 M93.800 369.200 C 92.781 369.638,93.832 369.638,95.200 369.200 C 96.004 368.943,96.043 368.877,95.400 368.868 C 94.960 368.862,94.240 369.011,93.800 369.200 M381.785 387.548 C 381.667 387.667,381.082 387.772,380.485 387.782 C 379.467 387.799,379.398 387.916,379.364 389.680 C 379.322 391.881,379.815 391.828,381.945 389.401 C 383.375 387.773,383.230 386.103,381.785 387.548 M382.164 388.100 C 381.716 388.891,380.288 390.400,379.987 390.400 C 379.739 390.400,382.032 387.674,382.324 387.622 C 382.392 387.610,382.320 387.825,382.164 388.100 " stroke="none" fill="#ddeaed" fill-rule="evenodd"></path><path id="path1" d="M359.600 2.175 L 359.600 4.351 361.332 4.611 C 362.600 4.801,370.200 4.645,370.200 4.428 C 370.200 4.413,370.138 3.411,370.063 2.201 L 369.926 0.000 364.763 0.000 L 359.600 0.000 359.600 2.175 M376.000 4.800 C 376.000 5.020,376.180 5.223,376.400 5.250 C 376.620 5.277,376.987 5.323,377.215 5.350 C 377.443 5.378,377.778 5.640,377.959 5.934 C 378.223 6.360,378.339 6.337,378.538 5.818 C 378.808 5.114,377.920 4.555,377.219 4.988 C 376.989 5.131,376.800 5.057,376.800 4.824 C 376.800 4.591,376.620 4.400,376.400 4.400 C 376.180 4.400,376.000 4.580,376.000 4.800 M376.875 6.425 C 376.971 6.714,377.286 7.029,377.575 7.125 C 377.875 7.225,378.025 7.075,377.925 6.775 C 377.829 6.486,377.514 6.171,377.225 6.075 C 376.925 5.975,376.775 6.125,376.875 6.425 M378.091 7.237 C 377.383 8.350,377.332 8.624,377.812 8.729 C 378.498 8.880,378.613 9.600,377.951 9.600 C 377.621 9.600,377.620 9.742,377.948 10.137 C 378.193 10.432,378.260 10.807,378.097 10.970 C 376.731 12.335,380.330 13.978,381.900 12.707 C 382.247 12.426,382.400 12.449,382.400 12.784 C 382.400 13.050,382.625 13.186,382.900 13.087 C 383.175 12.989,383.737 13.082,384.148 13.294 C 384.674 13.565,384.816 13.549,384.625 13.240 C 384.291 12.700,384.464 12.692,385.774 13.190 C 386.338 13.405,386.800 13.490,386.800 13.380 C 386.800 13.270,386.345 13.007,385.790 12.796 C 385.234 12.585,384.667 12.094,384.531 11.706 C 384.021 10.259,382.306 8.368,380.814 7.607 C 379.967 7.175,379.203 6.608,379.116 6.348 C 379.029 6.087,378.568 6.488,378.091 7.237 M19.460 7.389 C 17.163 8.751,13.834 12.994,15.295 12.697 C 15.558 12.644,16.080 11.937,16.455 11.126 C 16.853 10.266,17.858 9.184,18.869 8.527 C 21.986 6.500,22.444 5.619,19.460 7.389 M18.189 9.789 C 17.205 10.774,16.401 11.899,16.401 12.289 C 16.403 12.786,16.629 12.629,17.154 11.768 C 17.567 11.091,18.598 9.966,19.444 9.268 C 20.290 8.571,20.757 8.000,20.481 8.000 C 20.205 8.000,19.174 8.805,18.189 9.789 M381.945 10.599 C 383.209 12.038,383.632 13.120,382.700 12.531 C 382.425 12.357,381.570 12.212,380.800 12.207 C 379.405 12.200,379.400 12.194,379.364 10.320 C 379.322 8.119,379.815 8.172,381.945 10.599 M383.236 10.467 C 383.843 11.602,383.449 11.335,382.399 9.900 C 381.810 9.096,381.713 8.816,382.145 9.167 C 382.529 9.479,383.020 10.064,383.236 10.467 M380.726 10.712 C 381.316 11.324,381.876 11.774,381.968 11.711 C 382.199 11.555,380.335 9.600,379.956 9.600 C 379.788 9.600,380.135 10.101,380.726 10.712 M12.467 14.613 C 12.220 15.156,11.805 15.600,11.546 15.600 C 10.637 15.600,8.384 17.662,7.588 19.223 C 7.146 20.090,6.597 20.800,6.368 20.800 C 6.140 20.800,6.083 21.011,6.242 21.268 C 6.433 21.578,6.317 21.654,5.899 21.493 C 5.526 21.350,5.170 21.500,5.033 21.858 C 4.660 22.829,4.741 22.857,5.839 22.138 C 6.664 21.597,7.032 21.552,7.621 21.920 C 8.119 22.231,8.446 22.249,8.617 21.973 C 8.756 21.747,9.440 21.649,10.135 21.757 C 12.395 22.104,14.114 19.783,12.784 18.181 C 12.516 17.858,12.584 17.545,12.995 17.204 C 13.696 16.622,13.790 16.000,13.176 16.000 C 12.943 16.000,12.881 16.208,13.038 16.462 C 13.215 16.747,13.148 16.815,12.863 16.639 C 12.525 16.430,12.562 16.048,13.000 15.200 C 13.328 14.565,13.444 13.951,13.257 13.835 C 13.070 13.720,12.715 14.069,12.467 14.613 M11.200 16.525 C 11.200 16.593,10.615 17.057,9.900 17.554 L 8.600 18.458 9.722 17.429 C 10.758 16.480,11.200 16.209,11.200 16.525 M12.531 17.300 C 12.357 17.575,12.212 18.430,12.207 19.200 C 12.200 20.595,12.194 20.600,10.320 20.636 C 8.119 20.678,8.172 20.185,10.599 18.055 C 12.038 16.791,13.120 16.368,12.531 17.300 M387.200 17.757 C 387.200 17.875,387.759 18.608,388.441 19.386 C 389.755 20.882,390.828 21.346,389.895 20.015 C 389.300 19.164,387.200 17.406,387.200 17.757 M10.401 18.998 C 9.886 19.548,9.539 20.048,9.632 20.111 C 9.724 20.174,10.284 19.724,10.874 19.112 C 11.465 18.501,11.812 18.000,11.644 18.000 C 11.477 18.000,10.917 18.449,10.401 18.998 M350.740 19.573 C 350.707 19.808,350.662 20.225,350.640 20.500 C 350.618 20.775,350.420 21.128,350.200 21.285 C 349.980 21.442,349.784 21.712,349.765 21.885 C 349.746 22.058,349.582 22.541,349.400 22.958 C 348.999 23.878,349.738 24.498,352.365 25.445 C 358.664 27.715,362.170 29.436,362.775 30.555 C 364.173 33.138,365.963 35.076,368.209 36.436 C 370.692 37.939,371.819 39.958,375.002 48.593 C 375.455 49.822,376.454 51.284,377.607 52.407 L 379.477 54.229 380.140 58.814 C 380.504 61.336,380.906 65.297,381.034 67.616 L 381.266 71.832 382.633 71.672 L 384.000 71.512 383.997 65.856 C 383.991 55.353,383.024 50.767,379.958 46.704 C 379.086 45.547,377.292 42.486,375.972 39.903 C 373.909 35.865,373.236 34.927,371.177 33.212 C 369.859 32.116,367.876 30.132,366.771 28.803 C 365.074 26.764,364.124 26.069,360.680 24.344 C 358.436 23.220,355.700 21.713,354.600 20.995 C 352.294 19.490,350.828 18.950,350.740 19.573 M33.257 29.831 C 31.136 31.938,28.664 34.355,27.765 35.202 C 26.844 36.070,25.811 37.583,25.397 38.671 C 24.993 39.732,23.761 42.220,22.658 44.200 C 18.657 51.386,17.999 52.922,17.346 56.600 C 16.700 60.235,16.397 71.663,16.794 77.400 C 16.900 78.940,16.654 83.530,16.247 87.600 C 15.616 93.918,15.551 96.726,15.804 106.800 C 16.120 119.410,16.175 127.148,16.037 139.600 C 15.989 143.890,16.162 151.360,16.420 156.200 C 17.009 167.265,16.718 195.277,15.968 199.600 C 15.214 203.943,15.235 221.332,16.000 227.200 C 17.000 234.869,16.871 296.285,15.832 306.707 C 15.123 313.824,15.097 315.660,15.495 330.707 C 16.003 349.892,16.214 350.963,20.445 355.852 C 21.361 356.910,22.993 359.621,24.073 361.875 C 25.883 365.655,26.224 366.106,28.464 367.678 C 29.906 368.689,31.510 370.290,32.411 371.616 C 33.984 373.933,34.331 374.163,40.421 376.918 C 42.082 377.670,44.093 378.857,44.888 379.556 C 49.389 383.507,49.394 383.508,110.725 383.292 C 160.473 383.117,162.017 383.134,170.163 383.956 C 184.767 385.430,197.718 385.038,197.818 383.120 L 197.874 382.041 188.328 382.284 L 178.783 382.527 175.791 381.009 C 174.146 380.174,172.797 379.380,172.793 379.245 C 172.702 376.216,171.361 370.043,170.220 367.400 C 169.460 365.640,167.982 361.892,166.936 359.070 C 165.744 355.857,164.579 353.428,163.817 352.568 L 162.600 351.194 158.302 351.985 C 154.237 352.732,153.857 352.887,151.302 354.851 C 143.476 360.866,135.266 363.497,117.200 365.780 C 103.026 367.571,95.751 368.888,90.600 370.594 C 82.562 373.256,78.104 373.547,72.700 371.763 C 70.525 371.045,70.603 371.293,71.438 367.725 C 71.946 365.552,72.020 363.863,71.800 359.385 L 71.525 353.770 73.323 351.770 C 75.736 349.087,78.417 347.684,82.064 347.198 C 85.531 346.736,89.378 346.075,96.948 344.642 C 99.999 344.065,107.334 343.053,113.247 342.395 C 130.591 340.463,130.881 340.393,135.600 337.012 C 136.590 336.302,139.362 334.569,141.759 333.161 C 147.405 329.844,152.000 324.345,152.000 320.907 C 152.000 318.080,148.672 308.115,145.857 302.513 C 144.838 300.484,143.084 296.254,141.959 293.113 C 140.834 289.971,139.016 285.510,137.918 283.200 C 136.821 280.890,134.699 275.832,133.203 271.960 C 129.279 261.806,129.419 262.029,125.828 260.147 C 120.977 257.605,118.912 257.811,105.882 262.137 C 102.317 263.320,94.827 265.422,89.238 266.808 C 73.831 270.628,69.520 273.845,66.253 283.960 C 65.230 287.128,63.511 291.538,62.433 293.760 C 61.356 295.982,59.905 299.600,59.208 301.800 C 56.354 310.817,55.608 312.494,52.267 317.386 C 47.434 324.466,46.359 325.039,33.400 327.450 C 28.120 328.432,27.897 328.595,26.798 332.277 C 25.753 335.772,25.515 339.237,26.300 339.500 C 26.575 339.592,26.800 339.909,26.800 340.204 C 26.800 340.500,27.409 341.250,28.153 341.871 C 29.619 343.094,32.062 346.740,34.805 351.800 C 35.759 353.560,37.367 355.914,38.378 357.032 C 40.279 359.133,41.475 361.243,42.595 364.471 C 42.984 365.593,44.037 367.161,45.222 368.384 C 47.445 370.679,47.444 370.674,46.553 371.946 C 45.931 372.834,45.748 372.862,41.787 372.667 C 36.905 372.427,36.299 372.159,35.037 369.686 C 33.927 367.511,32.341 365.941,30.540 365.232 C 28.728 364.519,27.794 363.352,26.675 360.400 C 25.069 356.165,22.896 351.939,21.650 350.627 C 19.025 347.861,18.794 346.848,18.556 337.089 C 18.437 332.200,18.173 327.222,17.970 326.027 C 17.766 324.831,17.600 321.289,17.600 318.154 L 17.600 312.456 19.100 309.579 L 20.600 306.703 24.889 305.637 C 29.694 304.442,30.554 303.853,33.258 299.899 C 35.697 296.333,39.729 287.220,41.797 280.600 C 42.828 277.300,44.852 272.098,46.294 269.039 C 48.608 264.129,49.010 262.911,49.724 258.639 L 50.533 253.800 49.208 249.517 C 48.097 245.923,47.551 244.828,45.822 242.717 C 44.689 241.333,42.965 238.792,41.993 237.071 C 39.672 232.965,36.676 229.710,32.881 227.172 L 29.800 225.111 25.205 225.255 L 20.611 225.400 19.552 223.446 C 16.862 218.484,17.025 206.795,19.846 202.327 L 20.810 200.800 25.609 200.800 C 42.419 200.800,52.797 206.921,59.928 221.042 C 60.384 221.946,61.532 223.597,62.479 224.711 C 63.425 225.826,65.541 229.107,67.180 232.002 C 70.399 237.688,72.357 239.849,76.570 242.366 L 78.855 243.731 82.728 243.236 C 99.741 241.062,111.202 236.488,114.624 230.508 C 115.552 228.886,114.660 225.642,111.624 219.600 C 110.574 217.510,108.949 213.460,108.013 210.600 C 107.076 207.740,105.247 203.382,103.947 200.915 C 102.642 198.440,100.765 193.958,99.757 190.915 C 98.752 187.882,97.048 183.760,95.968 181.756 C 94.889 179.752,93.377 176.374,92.608 174.250 C 90.791 169.231,90.065 167.847,86.601 162.800 C 85.015 160.490,82.976 157.337,82.068 155.792 C 81.161 154.248,79.427 151.818,78.214 150.392 C 76.047 147.845,75.562 147.011,72.519 140.600 C 70.270 135.861,70.967 133.504,75.866 129.288 C 79.797 125.904,80.402 125.631,85.400 124.974 C 86.500 124.830,87.760 124.632,88.200 124.535 C 88.640 124.438,89.433 124.270,89.962 124.160 C 90.491 124.051,91.301 123.752,91.762 123.495 C 92.223 123.238,92.690 123.007,92.800 122.981 C 95.319 122.380,96.851 120.985,96.372 119.727 C 96.164 119.180,96.076 118.601,96.176 118.439 C 96.786 117.451,94.320 111.793,92.122 109.140 C 90.845 107.598,89.260 105.642,88.600 104.794 C 87.570 103.470,82.800 99.313,82.800 99.739 C 82.800 99.821,82.215 99.367,81.500 98.730 C 78.442 96.008,70.470 92.032,67.442 91.719 C 66.209 91.592,65.200 91.350,65.200 91.182 C 65.200 91.013,64.273 90.748,63.139 90.592 C 62.005 90.436,60.520 90.082,59.839 89.806 C 59.158 89.530,58.365 89.389,58.077 89.493 C 57.789 89.597,57.249 89.427,56.877 89.116 C 56.505 88.805,55.440 88.221,54.511 87.819 C 53.582 87.417,52.916 86.936,53.032 86.749 C 53.147 86.562,52.962 86.516,52.621 86.647 C 52.279 86.778,52.000 86.711,52.000 86.497 C 52.000 86.004,42.522 83.200,40.852 83.200 C 40.164 83.200,39.600 83.020,39.600 82.800 C 39.600 82.580,39.096 82.400,38.480 82.400 C 37.864 82.400,37.160 82.200,36.915 81.955 C 36.670 81.710,35.959 81.470,35.335 81.421 C 34.711 81.372,33.330 80.943,32.267 80.466 C 31.204 79.990,30.169 79.600,29.967 79.600 C 29.765 79.600,29.600 79.420,29.600 79.200 C 29.600 78.980,29.143 78.800,28.584 78.800 C 28.025 78.800,26.900 78.460,26.084 78.045 C 25.268 77.629,23.824 77.057,22.876 76.774 C 20.900 76.184,20.615 75.783,20.081 72.847 C 19.390 69.042,20.226 66.413,23.063 63.474 C 24.376 62.113,25.799 60.280,26.225 59.400 C 26.651 58.520,27.105 57.710,27.234 57.600 C 27.958 56.982,28.293 53.762,27.932 50.890 C 27.719 49.191,27.629 47.170,27.732 46.400 C 28.213 42.830,28.695 42.022,32.759 37.974 C 37.771 32.980,38.374 32.116,38.212 30.156 C 38.141 29.300,38.064 28.015,38.041 27.300 C 37.980 25.371,37.483 25.634,33.257 29.831 M0.400 29.425 C 1.803 29.735,4.318 29.790,4.143 29.507 C 4.038 29.338,3.018 29.221,1.876 29.246 C 0.734 29.272,0.070 29.352,0.400 29.425 M2.100 30.695 C -0.621 30.885,-0.621 31.581,2.100 31.665 L 4.200 31.730 2.000 32.012 L -0.200 32.294 1.969 32.247 C 3.916 32.205,4.144 32.108,4.202 31.300 C 4.237 30.805,4.251 30.433,4.233 30.474 C 4.215 30.515,3.255 30.614,2.100 30.695 M0.000 34.000 C 0.000 34.220,1.001 34.400,2.224 34.400 C 3.604 34.400,4.353 34.248,4.200 34.000 C 4.064 33.780,3.063 33.600,1.976 33.600 C 0.889 33.600,0.000 33.780,0.000 34.000 M0.900 37.087 C 1.505 37.178,2.495 37.178,3.100 37.087 C 3.705 36.995,3.210 36.920,2.000 36.920 C 0.790 36.920,0.295 36.995,0.900 37.087 M24.800 128.028 C 25.182 128.464,30.413 130.400,31.210 130.400 C 31.650 130.400,32.323 130.559,32.705 130.754 C 33.087 130.949,35.830 131.862,38.800 132.782 C 41.770 133.703,45.600 135.109,47.310 135.906 L 50.421 137.356 47.290 140.237 C 45.568 141.822,43.719 143.765,43.180 144.556 C 42.422 145.669,41.656 146.175,39.800 146.791 C 37.703 147.486,35.099 147.843,23.335 149.050 L 20.869 149.303 20.033 147.664 C 19.124 145.882,18.665 137.175,19.302 133.800 C 19.468 132.920,19.700 131.660,19.818 131.000 C 19.935 130.340,20.219 129.063,20.450 128.162 L 20.869 126.524 22.735 127.162 C 23.761 127.513,24.690 127.903,24.800 128.028 M381.200 170.400 L 381.200 205.991 382.200 205.908 C 382.750 205.863,383.200 205.674,383.200 205.489 C 383.200 205.304,383.352 205.247,383.537 205.361 C 384.322 205.846,384.730 153.157,384.046 139.809 L 383.800 135.018 382.500 134.914 L 381.200 134.810 381.200 170.400 M334.058 187.556 C 333.610 187.840,333.631 188.076,334.182 188.916 L 334.847 189.932 332.608 190.433 C 329.596 191.107,329.227 191.456,328.938 193.892 C 328.645 196.372,328.429 196.249,333.620 196.569 C 338.889 196.894,339.117 196.710,338.236 192.838 C 337.855 191.164,337.684 189.357,337.832 188.568 L 338.089 187.200 336.345 187.206 C 335.385 187.209,334.356 187.367,334.058 187.556 M0.900 363.087 C 1.505 363.178,2.495 363.178,3.100 363.087 C 3.705 362.995,3.210 362.920,2.000 362.920 C 0.790 362.920,0.295 362.995,0.900 363.087 M0.000 366.000 C 0.000 366.220,0.889 366.400,1.976 366.400 C 3.063 366.400,4.064 366.220,4.200 366.000 C 4.353 365.752,3.604 365.600,2.224 365.600 C 1.001 365.600,0.000 365.780,0.000 366.000 M2.000 367.988 L 4.200 368.270 2.100 368.335 C -0.635 368.420,-0.616 369.086,2.127 369.263 C 4.047 369.387,4.248 369.323,4.195 368.600 C 4.145 367.912,3.834 367.793,1.969 367.753 L -0.200 367.706 2.000 367.988 M2.000 370.378 L -0.200 370.627 2.034 370.813 C 3.655 370.949,4.268 370.863,4.267 370.500 C 4.267 370.225,4.252 370.029,4.233 370.065 C 4.215 370.101,3.210 370.242,2.000 370.378 M6.755 378.828 C 5.485 379.613,8.480 383.659,11.060 384.644 C 13.362 385.523,13.309 386.125,11.000 385.338 C 10.010 385.001,9.200 384.562,9.200 384.362 C 9.200 384.163,8.913 384.000,8.563 384.000 C 8.212 384.000,7.831 383.640,7.716 383.200 C 7.601 382.760,7.370 382.400,7.203 382.400 C 7.037 382.400,6.799 381.905,6.675 381.300 C 6.551 380.695,6.176 379.840,5.841 379.400 C 5.332 378.730,5.344 378.953,5.914 380.767 C 6.776 383.508,8.240 384.976,10.886 385.751 C 13.187 386.426,13.446 386.372,12.986 385.317 C 12.814 384.923,12.714 384.357,12.764 384.060 C 12.822 383.711,12.667 383.632,12.327 383.837 C 11.895 384.096,11.893 384.039,12.314 383.519 C 12.809 382.908,13.111 379.378,12.703 378.970 C 12.266 378.533,9.364 378.512,8.823 378.942 C 8.506 379.194,8.358 379.214,8.494 378.986 C 8.764 378.534,7.427 378.413,6.755 378.828 M388.441 380.614 C 387.759 381.392,387.200 382.125,387.200 382.243 C 387.200 382.594,389.300 380.836,389.895 379.985 C 390.828 378.654,389.755 379.118,388.441 380.614 M13.735 387.375 C 13.856 387.691,14.150 388.672,14.388 389.554 C 14.966 391.701,16.617 393.261,19.177 394.079 C 20.338 394.451,21.190 394.656,21.069 394.536 C 20.949 394.416,21.023 393.864,21.234 393.310 C 21.506 392.595,21.470 392.120,21.109 391.675 C 20.695 391.163,20.697 391.105,21.121 391.360 C 21.527 391.604,21.622 391.218,21.549 389.616 C 21.497 388.484,21.289 387.455,21.085 387.329 C 20.408 386.910,17.124 387.165,16.481 387.686 C 15.953 388.114,15.904 388.105,16.189 387.632 C 16.444 387.208,16.365 387.128,15.878 387.315 C 15.519 387.452,15.119 387.393,14.989 387.183 C 14.604 386.559,13.488 386.731,13.735 387.375 M378.888 387.843 C 378.813 388.747,378.843 388.759,379.538 388.095 C 380.310 387.359,380.294 387.090,379.472 386.969 C 379.194 386.929,378.931 387.322,378.888 387.843 M380.933 387.371 C 381.184 388.023,380.279 388.946,379.830 388.497 C 379.667 388.333,379.593 388.470,379.667 388.800 C 379.749 389.169,379.551 389.359,379.153 389.295 C 378.798 389.237,378.301 389.437,378.050 389.740 C 377.677 390.190,377.795 390.258,378.697 390.114 C 379.559 389.976,379.669 390.030,379.200 390.363 C 378.698 390.719,378.693 390.789,379.172 390.794 C 379.487 390.797,380.522 389.965,381.472 388.944 C 382.422 387.924,383.200 387.301,383.200 387.560 C 383.200 388.536,380.152 391.315,378.968 391.418 C 378.325 391.475,377.733 391.539,377.651 391.560 C 377.569 391.582,377.712 391.853,377.968 392.162 C 378.500 392.803,378.138 394.800,377.490 394.800 C 377.257 394.800,377.161 394.894,377.276 395.009 C 377.728 395.461,378.741 394.713,378.507 394.101 C 378.346 393.683,378.422 393.567,378.732 393.758 C 378.989 393.917,379.200 393.860,379.200 393.632 C 379.200 393.403,379.875 392.872,380.700 392.451 C 382.898 391.329,385.932 387.292,384.693 387.139 C 383.237 386.959,382.961 386.979,382.536 387.295 C 382.265 387.495,381.963 387.464,381.812 387.219 C 381.422 386.588,380.682 386.715,380.933 387.371 M15.356 388.940 C 16.142 390.999,17.251 392.128,19.349 393.004 C 20.194 393.358,20.810 393.723,20.717 393.816 C 20.527 394.006,17.912 393.129,17.600 392.771 C 17.490 392.645,17.085 392.425,16.700 392.283 C 16.315 392.141,16.000 391.749,16.000 391.413 C 16.000 391.076,15.837 390.800,15.638 390.800 C 15.438 390.800,14.999 389.990,14.662 389.000 C 13.875 386.691,14.477 386.638,15.356 388.940 M381.763 388.100 C 381.220 389.053,380.274 390.000,379.863 390.000 C 379.636 390.000,379.968 389.460,380.600 388.800 C 381.821 387.526,382.229 387.280,381.763 388.100 M383.236 389.533 C 383.020 389.936,382.529 390.521,382.145 390.833 C 381.713 391.184,381.810 390.904,382.399 390.100 C 383.449 388.665,383.843 388.398,383.236 389.533 M33.400 395.193 C 32.520 395.312,31.300 395.400,30.688 395.386 C 29.902 395.369,29.639 395.524,29.788 395.914 C 29.905 396.217,30.000 397.261,30.000 398.233 L 30.000 400.000 38.021 400.000 L 46.042 400.000 45.921 397.900 L 45.800 395.800 43.000 395.528 C 38.348 395.077,35.087 394.963,33.400 395.193 M369.762 396.154 C 369.645 396.459,369.610 397.494,369.683 398.454 C 369.813 400.144,369.823 400.126,370.009 397.899 C 370.203 395.565,370.145 395.156,369.762 396.154 " stroke="none" fill="#e8ccaf" fill-rule="evenodd"></path><path id="path2" d="M29.577 2.000 L 29.400 4.200 27.544 4.068 C 26.485 3.992,25.571 4.124,25.416 4.374 C 25.267 4.616,24.969 4.705,24.755 4.572 C 24.540 4.440,24.068 4.572,23.706 4.866 C 23.236 5.247,23.133 5.257,23.347 4.900 C 23.536 4.585,23.416 4.400,23.024 4.400 C 22.681 4.400,22.445 4.621,22.500 4.891 C 22.555 5.160,22.191 5.443,21.690 5.520 C 21.135 5.604,20.823 5.471,20.890 5.179 C 20.951 4.916,20.730 4.619,20.400 4.520 C 19.867 4.359,19.867 4.386,20.400 4.763 C 20.933 5.141,20.933 5.189,20.400 5.200 C 19.876 5.211,19.875 5.259,20.386 5.583 C 20.945 5.936,19.526 6.800,18.387 6.800 C 17.646 6.800,15.262 9.600,14.793 11.021 C 14.472 11.993,14.201 12.325,13.997 11.995 C 13.776 11.637,13.612 11.732,13.423 12.327 C 13.278 12.785,12.785 13.278,12.327 13.423 C 11.732 13.612,11.637 13.776,11.995 13.997 C 12.325 14.201,11.993 14.472,11.021 14.793 C 9.600 15.262,6.800 17.646,6.800 18.387 C 6.800 19.526,5.936 20.945,5.583 20.386 C 5.259 19.875,5.211 19.876,5.200 20.400 C 5.189 20.933,5.141 20.933,4.763 20.400 C 4.386 19.867,4.359 19.867,4.520 20.400 C 4.619 20.730,4.903 20.955,5.150 20.900 C 5.398 20.845,5.600 20.980,5.600 21.200 C 5.600 21.420,5.780 21.600,6.000 21.600 C 6.220 21.600,6.363 21.465,6.318 21.300 C 5.919 19.845,8.521 16.502,10.955 15.342 C 11.811 14.934,12.486 14.465,12.455 14.300 C 12.377 13.873,13.726 12.506,14.175 12.557 C 14.382 12.581,14.896 11.880,15.317 11.000 C 16.390 8.759,17.134 8.005,19.200 7.064 C 21.595 5.972,21.940 5.941,21.706 6.838 C 21.594 7.268,21.314 7.474,21.055 7.319 C 20.721 7.119,20.716 7.201,21.036 7.623 C 21.727 8.537,21.771 12.360,21.093 12.620 C 20.781 12.739,19.283 12.893,17.763 12.961 C 16.243 13.030,14.709 13.211,14.354 13.365 C 13.500 13.734,12.576 15.725,13.168 15.923 C 13.406 16.002,13.600 16.242,13.600 16.457 C 13.600 16.672,13.459 16.760,13.286 16.653 C 13.113 16.546,12.992 17.511,13.018 18.796 C 13.070 21.435,12.391 22.118,10.078 21.753 C 9.414 21.649,8.748 21.760,8.599 22.001 C 8.406 22.313,8.164 22.302,7.753 21.961 C 7.304 21.588,6.936 21.599,6.088 22.011 C 5.490 22.302,4.865 22.508,4.700 22.470 C 4.535 22.431,4.400 22.681,4.400 23.024 C 4.400 23.416,4.585 23.536,4.900 23.347 C 5.231 23.148,5.212 23.279,4.843 23.733 C 4.537 24.110,4.400 24.533,4.540 24.673 C 4.679 24.812,4.599 25.160,4.362 25.446 C 4.122 25.735,4.011 26.819,4.111 27.883 L 4.292 29.800 2.146 29.663 C 0.346 29.548,0.000 29.635,0.000 30.200 C 0.000 30.765,0.345 30.852,2.127 30.737 C 4.047 30.613,4.248 30.677,4.195 31.400 C 4.146 32.072,3.806 32.219,2.069 32.321 C -0.809 32.489,-0.889 33.600,1.976 33.600 C 3.063 33.600,4.064 33.780,4.200 34.000 C 4.353 34.248,3.604 34.400,2.224 34.400 C -1.162 34.400,-1.274 36.669,2.100 36.905 L 4.200 37.052 2.100 37.126 L 0.000 37.200 0.000 199.979 L 0.000 362.758 2.100 362.905 L 4.200 363.052 2.100 363.126 C -1.294 363.246,-1.176 365.600,2.224 365.600 C 3.604 365.600,4.353 365.752,4.200 366.000 C 4.064 366.220,3.063 366.400,1.976 366.400 C -0.889 366.400,-0.809 367.511,2.069 367.679 C 3.806 367.781,4.146 367.928,4.195 368.600 C 4.248 369.323,4.047 369.387,2.127 369.263 C 0.345 369.148,0.000 369.235,0.000 369.800 C 0.000 370.364,0.343 370.452,2.100 370.337 L 4.200 370.200 4.245 372.400 C 4.325 376.353,4.474 377.601,4.840 377.375 C 5.038 377.253,5.200 377.501,5.200 377.927 C 5.200 378.353,5.458 378.917,5.774 379.179 C 6.090 379.441,6.467 380.193,6.611 380.851 C 7.044 382.821,12.800 387.258,12.800 385.622 C 12.800 385.450,12.017 385.010,11.060 384.644 C 8.708 383.746,5.624 379.843,6.541 378.925 C 6.969 378.498,8.769 378.526,8.512 378.956 C 8.330 379.261,8.427 379.256,8.823 378.942 C 9.364 378.512,12.266 378.533,12.703 378.970 C 13.111 379.378,12.809 382.908,12.314 383.519 C 11.886 384.047,11.895 384.096,12.368 383.811 C 12.792 383.556,12.872 383.635,12.685 384.122 C 12.548 384.481,12.607 384.881,12.817 385.011 C 13.635 385.516,13.225 386.461,12.300 386.201 C 11.645 386.016,11.554 386.054,11.965 386.337 C 12.428 386.657,12.392 386.760,11.765 386.910 C 11.344 387.010,11.489 387.032,12.088 386.959 C 13.062 386.839,13.161 386.938,13.041 387.913 C 12.968 388.511,12.990 388.656,13.090 388.235 C 13.240 387.608,13.343 387.572,13.663 388.035 C 13.946 388.446,13.984 388.355,13.799 387.700 C 13.539 386.775,14.484 386.365,14.989 387.183 C 15.119 387.393,15.519 387.452,15.878 387.315 C 16.365 387.128,16.444 387.208,16.189 387.632 C 15.904 388.105,15.953 388.114,16.481 387.686 C 17.124 387.165,20.408 386.910,21.085 387.329 C 21.289 387.455,21.497 388.484,21.549 389.616 C 21.622 391.218,21.527 391.604,21.121 391.360 C 20.697 391.105,20.695 391.163,21.109 391.675 C 21.711 392.418,21.132 394.396,20.310 394.406 C 19.923 394.411,19.932 394.496,20.345 394.758 C 20.728 395.000,20.755 395.168,20.435 395.322 C 20.156 395.456,20.177 395.494,20.490 395.420 C 20.771 395.354,20.965 395.128,20.923 394.919 C 20.880 394.709,21.240 394.573,21.723 394.617 C 22.205 394.661,22.555 394.900,22.500 395.148 C 22.445 395.397,22.681 395.600,23.024 395.600 C 23.416 395.600,23.536 395.415,23.347 395.100 C 23.133 394.743,23.236 394.753,23.706 395.134 C 24.068 395.428,24.540 395.560,24.755 395.428 C 24.969 395.295,25.267 395.384,25.416 395.626 C 25.571 395.876,26.485 396.008,27.544 395.932 L 29.400 395.800 29.649 397.800 L 29.897 399.800 29.830 397.594 L 29.763 395.388 31.181 395.302 C 34.104 395.123,40.691 395.240,43.200 395.515 L 45.800 395.800 45.921 397.900 L 46.042 400.000 202.600 400.000 L 359.158 400.000 359.279 397.927 C 359.433 395.294,361.858 394.683,369.619 395.321 C 370.107 395.361,370.224 395.843,370.171 397.586 L 370.103 399.800 370.351 397.800 L 370.600 395.800 372.316 395.936 C 373.259 396.011,374.286 395.860,374.598 395.601 C 374.910 395.343,375.353 395.247,375.582 395.389 C 375.812 395.531,376.000 395.457,376.000 395.224 C 376.000 394.991,376.351 394.800,376.780 394.800 C 377.209 394.800,377.704 394.549,377.880 394.241 C 378.211 393.663,378.989 394.143,379.092 394.990 C 379.119 395.205,379.379 395.443,379.670 395.520 C 380.021 395.613,379.997 395.518,379.600 395.237 C 379.067 394.859,379.067 394.811,379.600 394.800 C 380.124 394.789,380.125 394.741,379.614 394.417 C 379.094 394.088,380.445 393.200,381.464 393.200 C 382.268 393.200,384.110 391.246,384.959 389.492 C 385.515 388.341,385.977 387.659,385.985 387.976 C 385.997 388.422,386.114 388.396,386.504 387.863 C 386.782 387.484,388.146 386.908,389.535 386.584 C 393.695 385.614,394.408 384.853,394.952 380.800 C 395.182 379.089,395.150 379.127,394.297 381.570 C 393.267 384.520,392.336 385.373,389.255 386.186 C 387.458 386.659,387.168 386.660,387.347 386.193 C 387.493 385.814,387.356 385.719,386.914 385.888 C 386.523 386.038,386.370 385.973,386.525 385.722 C 386.665 385.494,387.417 385.205,388.194 385.078 C 390.743 384.665,393.600 381.660,393.600 379.392 C 393.600 379.041,393.765 378.855,393.968 378.980 C 394.887 379.548,395.511 377.915,395.788 374.221 L 396.075 370.400 398.037 370.400 L 400.000 370.400 400.000 200.000 L 400.000 29.600 398.037 29.600 L 396.075 29.600 395.788 25.779 C 395.511 22.085,394.887 20.452,393.968 21.020 C 393.765 21.145,393.600 20.959,393.600 20.608 C 393.600 18.340,390.743 15.335,388.194 14.922 C 387.417 14.795,386.665 14.506,386.525 14.278 C 386.370 14.027,386.523 13.962,386.914 14.112 C 387.356 14.281,387.493 14.186,387.347 13.807 C 387.168 13.340,387.458 13.341,389.255 13.814 C 392.336 14.627,393.267 15.480,394.297 18.430 C 395.150 20.873,395.182 20.911,394.952 19.200 C 394.408 15.147,393.695 14.386,389.535 13.416 C 388.146 13.092,386.782 12.516,386.504 12.137 C 386.114 11.604,385.997 11.578,385.985 12.024 C 385.977 12.341,385.515 11.659,384.959 10.508 C 384.110 8.754,382.268 6.800,381.464 6.800 C 380.445 6.800,379.094 5.912,379.614 5.583 C 380.125 5.259,380.124 5.211,379.600 5.200 C 379.067 5.189,379.067 5.141,379.600 4.763 C 379.997 4.482,380.021 4.387,379.670 4.480 C 379.379 4.557,379.199 4.710,379.270 4.820 C 379.341 4.930,379.130 5.310,378.800 5.666 C 378.405 6.091,378.109 6.166,377.932 5.884 C 377.785 5.649,377.353 5.411,376.972 5.355 C 376.591 5.299,376.147 5.038,375.985 4.775 C 375.822 4.513,375.502 4.414,375.272 4.555 C 375.043 4.697,374.733 4.616,374.584 4.374 C 374.429 4.124,373.515 3.992,372.456 4.068 L 370.600 4.200 370.344 2.000 L 370.088 -0.200 370.144 2.101 C 370.175 3.366,370.200 4.413,370.200 4.428 C 370.200 4.645,362.600 4.801,361.332 4.611 L 359.600 4.351 359.600 2.175 L 359.600 0.000 198.821 -0.000 L 38.042 -0.000 37.921 2.100 L 37.800 4.200 35.400 4.267 L 33.000 4.334 33.038 2.267 L 33.076 0.200 32.917 2.100 C 32.830 3.145,32.588 4.020,32.379 4.044 C 30.245 4.295,30.208 4.264,29.977 1.991 L 29.755 -0.200 29.577 2.000 M34.920 2.000 C 34.920 3.210,34.995 3.705,35.087 3.100 C 35.178 2.495,35.178 1.505,35.087 0.900 C 34.995 0.295,34.920 0.790,34.920 2.000 M17.208 6.301 C 15.641 7.088,13.991 9.290,14.018 10.559 C 14.029 11.094,14.238 10.830,14.592 9.836 C 15.296 7.861,16.182 6.978,18.200 6.241 C 19.080 5.919,19.530 5.644,19.200 5.629 C 18.870 5.614,17.974 5.916,17.208 6.301 M381.800 6.207 C 383.832 6.992,384.709 7.875,385.408 9.836 C 385.729 10.737,385.972 11.061,385.981 10.600 C 386.020 8.668,383.723 6.272,381.400 5.821 C 380.480 5.642,380.574 5.732,381.800 6.207 M377.925 6.775 C 378.025 7.075,377.875 7.225,377.575 7.125 C 377.286 7.029,376.971 6.714,376.875 6.425 C 376.775 6.125,376.925 5.975,377.225 6.075 C 377.514 6.171,377.829 6.486,377.925 6.775 M383.258 8.655 C 383.621 9.065,384.262 10.120,384.683 11.000 C 385.104 11.880,385.646 12.561,385.887 12.513 C 386.127 12.465,386.423 12.682,386.543 12.995 C 386.719 13.453,386.563 13.490,385.755 13.183 C 384.465 12.692,384.292 12.701,384.625 13.240 C 384.814 13.546,384.669 13.567,384.148 13.310 C 383.737 13.107,382.414 12.980,381.208 13.029 C 378.486 13.138,376.947 12.120,378.097 10.970 C 378.260 10.807,378.193 10.432,377.948 10.137 C 377.620 9.742,377.621 9.600,377.951 9.600 C 378.613 9.600,378.498 8.880,377.812 8.729 C 377.325 8.622,377.362 8.383,378.025 7.342 L 378.825 6.084 380.713 6.997 C 381.751 7.499,382.896 8.245,383.258 8.655 M8.522 14.782 C 7.019 15.698,6.144 16.935,5.821 18.600 C 5.642 19.520,5.732 19.426,6.207 18.200 C 6.992 16.168,7.875 15.291,9.836 14.592 C 10.737 14.271,11.061 14.028,10.600 14.019 C 10.160 14.010,9.225 14.354,8.522 14.782 M232.777 16.003 C 239.323 16.593,293.044 16.580,300.193 15.987 C 306.826 15.437,328.081 15.684,334.000 16.380 C 335.870 16.600,339.290 16.890,341.600 17.025 C 346.773 17.326,351.275 18.706,354.674 21.034 C 355.513 21.608,358.126 23.047,360.480 24.232 C 364.123 26.066,365.058 26.745,366.770 28.803 C 367.876 30.132,369.859 32.116,371.177 33.212 C 373.236 34.927,373.909 35.865,375.972 39.903 C 377.292 42.486,379.086 45.547,379.958 46.704 C 383.417 51.289,384.254 56.328,383.793 69.800 C 383.436 80.261,383.467 82.707,384.062 90.600 C 384.514 96.588,384.271 114.398,383.681 118.600 C 383.526 119.700,383.526 123.840,383.680 127.800 C 384.362 145.374,384.511 185.084,383.957 201.800 C 383.309 221.358,383.310 219.930,383.922 228.400 C 384.876 241.616,384.310 251.563,382.427 254.660 C 381.558 256.089,379.309 257.230,374.652 258.607 C 368.362 260.466,368.331 260.602,368.235 286.600 L 368.200 296.200 369.360 298.943 C 370.425 301.463,373.471 304.400,375.019 304.400 C 376.381 304.400,379.970 305.936,381.197 307.045 C 384.404 309.942,384.540 310.781,384.278 326.000 C 383.952 344.963,383.247 348.643,378.878 354.181 C 377.845 355.491,376.092 358.371,374.982 360.581 C 373.277 363.975,372.655 364.818,370.982 366.000 C 369.892 366.770,367.816 368.594,366.369 370.054 C 364.922 371.514,363.122 373.025,362.369 373.412 C 360.173 374.541,356.744 376.979,354.800 378.794 C 348.510 384.666,350.687 384.519,274.800 384.206 C 241.470 384.068,210.870 383.942,206.800 383.926 C 202.730 383.911,197.875 384.101,196.010 384.349 C 190.630 385.065,179.473 384.895,170.163 383.956 C 162.017 383.134,160.473 383.117,110.725 383.292 C 49.394 383.508,49.389 383.507,44.888 379.556 C 44.093 378.857,42.082 377.670,40.421 376.918 C 34.331 374.163,33.984 373.933,32.411 371.616 C 31.510 370.290,29.906 368.689,28.464 367.678 C 26.224 366.106,25.883 365.655,24.073 361.875 C 22.993 359.621,21.361 356.910,20.445 355.852 C 16.214 350.963,16.003 349.892,15.495 330.707 C 15.097 315.660,15.123 313.824,15.832 306.707 C 16.871 296.285,17.000 234.869,16.000 227.200 C 15.235 221.332,15.214 203.943,15.968 199.600 C 16.718 195.277,17.009 167.265,16.420 156.200 C 16.162 151.360,15.989 143.890,16.037 139.600 C 16.175 127.148,16.120 119.410,15.804 106.800 C 15.551 96.726,15.616 93.918,16.247 87.600 C 16.654 83.530,16.900 78.940,16.794 77.400 C 16.397 71.663,16.700 60.235,17.346 56.600 C 17.999 52.922,18.657 51.386,22.658 44.200 C 23.761 42.220,24.993 39.732,25.397 38.671 C 25.811 37.583,26.844 36.070,27.765 35.202 C 28.664 34.355,31.110 31.968,33.200 29.898 C 35.959 27.164,37.366 26.061,38.334 25.869 C 40.254 25.491,45.831 22.694,48.400 20.822 C 51.971 18.219,57.028 16.530,62.791 16.016 C 67.834 15.566,227.790 15.554,232.777 16.003 M390.851 17.864 C 392.361 19.496,392.917 20.681,392.339 21.038 C 392.077 21.200,391.984 21.150,392.125 20.922 C 392.261 20.701,391.854 19.818,391.221 18.960 C 389.961 17.254,387.600 15.613,387.600 16.444 C 387.600 16.713,387.492 16.825,387.360 16.693 C 387.228 16.561,387.238 16.262,387.383 16.028 C 387.735 15.459,389.480 16.383,390.851 17.864 M389.895 20.015 C 390.828 21.346,389.755 20.882,388.441 19.386 C 387.759 18.608,387.200 17.875,387.200 17.757 C 387.200 17.406,389.300 19.164,389.895 20.015 M0.900 31.887 C 1.505 31.978,2.495 31.978,3.100 31.887 C 3.705 31.795,3.210 31.720,2.000 31.720 C 0.790 31.720,0.295 31.795,0.900 31.887 M0.900 368.287 C 1.505 368.378,2.495 368.378,3.100 368.287 C 3.705 368.195,3.210 368.120,2.000 368.120 C 0.790 368.120,0.295 368.195,0.900 368.287 M392.234 380.323 C 391.149 382.400,387.916 384.835,387.384 383.974 C 387.239 383.739,387.228 383.439,387.360 383.307 C 387.492 383.175,387.600 383.287,387.600 383.556 C 387.600 384.387,389.961 382.746,391.221 381.040 C 391.854 380.182,392.261 379.299,392.125 379.078 C 391.984 378.851,392.077 378.800,392.337 378.961 C 392.677 379.171,392.650 379.528,392.234 380.323 M389.895 379.985 C 389.300 380.836,387.200 382.594,387.200 382.243 C 387.200 382.125,387.759 381.392,388.441 380.614 C 389.755 379.118,390.828 378.654,389.895 379.985 M5.835 381.400 C 6.259 383.718,8.689 386.045,10.600 385.962 C 11.115 385.940,10.946 385.796,10.126 385.559 C 8.510 385.092,6.672 383.267,6.076 381.538 C 5.641 380.276,5.628 380.268,5.835 381.400 M5.200 384.302 C 5.200 385.198,6.676 386.408,8.000 386.597 L 9.400 386.797 8.125 386.394 C 7.424 386.172,6.479 385.518,6.025 384.941 C 5.571 384.364,5.200 384.076,5.200 384.302 M385.732 386.826 C 386.563 386.510,386.719 386.544,386.543 387.005 C 386.423 387.318,386.127 387.535,385.887 387.487 C 385.646 387.439,385.104 388.120,384.683 389.000 C 383.623 391.213,382.895 391.948,380.719 393.000 L 378.838 393.910 378.200 393.055 C 377.850 392.585,377.689 392.453,377.843 392.762 C 378.016 393.108,377.961 393.223,377.699 393.061 C 377.207 392.757,377.527 391.137,378.165 390.706 C 378.457 390.509,378.428 390.410,378.076 390.406 C 377.760 390.402,377.675 390.202,377.862 389.900 C 378.032 389.625,378.119 388.912,378.057 388.315 C 377.920 387.017,378.795 386.684,381.700 386.931 C 382.793 387.024,383.600 386.924,383.600 386.697 C 383.600 386.467,383.830 386.493,384.151 386.760 C 384.534 387.077,385.018 387.097,385.732 386.826 M14.723 388.878 C 15.566 391.023,17.439 392.893,19.322 393.472 C 21.231 394.057,21.222 393.787,19.305 392.986 C 17.250 392.128,16.138 390.988,15.356 388.940 C 14.990 387.983,14.550 387.200,14.378 387.200 C 14.205 387.200,14.361 387.955,14.723 388.878 M14.038 389.400 C 13.955 391.311,16.282 393.741,18.600 394.165 C 19.732 394.372,19.724 394.359,18.462 393.924 C 16.733 393.328,14.908 391.490,14.441 389.874 C 14.204 389.054,14.060 388.885,14.038 389.400 M385.501 389.856 C 385.143 391.561,383.726 393.073,381.800 393.805 C 380.569 394.272,380.477 394.360,381.400 394.188 C 383.684 393.762,386.263 390.974,385.913 389.310 C 385.817 388.849,385.672 389.040,385.501 389.856 M13.403 392.000 C 13.592 393.324,14.802 394.800,15.698 394.800 C 15.924 394.800,15.636 394.429,15.059 393.975 C 14.482 393.521,13.828 392.576,13.606 391.875 L 13.203 390.600 13.403 392.000 " stroke="none" fill="#949697" fill-rule="evenodd"></path><path id="path3" d="M29.353 2.000 L 29.400 4.200 30.800 4.142 C 31.570 4.111,32.335 4.066,32.500 4.042 C 32.665 4.019,32.800 3.100,32.800 2.000 L 32.800 0.000 31.400 0.000 L 30.000 0.000 29.935 2.100 L 29.870 4.200 29.588 2.000 L 29.306 -0.200 29.353 2.000 M33.137 2.167 L 33.000 4.334 35.400 4.267 L 37.800 4.200 37.921 2.100 L 38.042 0.000 36.642 0.000 L 35.242 0.000 35.095 2.100 L 34.948 4.200 34.874 2.100 C 34.763 -1.060,33.338 -1.005,33.137 2.167 M20.670 6.263 C 20.525 6.408,20.607 6.768,20.852 7.063 C 21.180 7.458,21.179 7.600,20.849 7.600 C 20.602 7.600,20.445 7.803,20.500 8.050 C 20.555 8.297,20.350 8.591,20.044 8.702 C 19.682 8.833,19.594 8.733,19.793 8.412 C 20.207 7.741,18.603 8.597,17.639 9.561 C 16.822 10.378,16.197 11.773,16.821 11.387 C 17.083 11.225,17.153 11.544,17.014 12.266 C 16.894 12.890,16.898 13.184,17.024 12.920 C 17.170 12.614,17.569 12.551,18.127 12.747 C 20.564 13.603,21.397 12.833,21.431 9.695 C 21.449 8.103,21.303 6.800,21.108 6.800 C 20.913 6.800,20.864 6.620,21.000 6.400 C 21.279 5.949,21.071 5.863,20.670 6.263 M16.492 7.021 C 16.005 7.362,15.409 8.037,15.168 8.521 C 14.803 9.252,14.886 9.223,15.664 8.343 C 16.179 7.761,16.960 7.092,17.400 6.855 C 17.840 6.618,18.015 6.419,17.789 6.412 C 17.563 6.405,16.979 6.679,16.492 7.021 M18.096 7.598 C 17.379 8.035,16.435 8.979,15.998 9.696 C 14.809 11.646,15.036 12.014,16.261 10.124 C 16.845 9.224,17.970 8.112,18.761 7.653 C 19.552 7.194,20.020 6.815,19.800 6.811 C 19.580 6.806,18.813 7.161,18.096 7.598 M18.604 9.996 C 17.974 10.654,17.369 11.103,17.261 10.994 C 16.997 10.730,18.830 8.800,19.345 8.800 C 19.567 8.800,19.234 9.338,18.604 9.996 M20.400 9.322 C 20.400 9.388,19.725 10.063,18.900 10.822 L 17.400 12.200 18.778 10.700 C 20.062 9.304,20.400 9.016,20.400 9.322 M14.532 12.632 C 14.391 13.000,13.990 13.186,13.575 13.078 C 13.091 12.951,12.928 13.067,13.069 13.435 C 13.243 13.888,13.477 13.877,14.452 13.373 C 15.098 13.039,15.520 12.594,15.389 12.383 C 15.052 11.837,14.810 11.907,14.532 12.632 M62.791 16.016 C 57.052 16.528,51.997 18.211,48.400 20.805 C 45.883 22.621,42.664 24.359,39.881 25.403 L 37.962 26.123 38.150 28.562 C 38.254 29.903,38.352 31.197,38.369 31.438 C 38.386 31.679,38.826 32.372,39.347 32.978 C 39.868 33.585,40.903 35.278,41.647 36.740 C 42.435 38.288,43.962 40.349,45.300 41.671 C 46.565 42.919,47.600 44.134,47.600 44.371 C 47.600 44.607,47.735 44.801,47.900 44.801 C 48.065 44.802,48.548 45.657,48.972 46.701 C 49.459 47.898,50.791 49.654,52.572 51.451 C 54.128 53.019,56.030 55.430,56.800 56.809 C 57.570 58.188,59.285 60.505,60.610 61.958 C 61.936 63.411,64.260 66.490,65.775 68.800 C 67.290 71.110,69.355 73.810,70.365 74.800 C 71.375 75.790,72.900 77.950,73.753 79.600 C 75.449 82.875,76.716 84.433,78.673 85.644 C 79.538 86.179,80.158 87.036,80.606 88.316 C 81.780 91.668,82.748 93.539,84.106 95.085 C 85.656 96.850,86.938 98.800,86.547 98.800 C 86.398 98.800,86.538 99.115,86.858 99.500 C 87.177 99.885,88.118 101.551,88.948 103.202 C 90.116 105.528,91.002 106.655,92.880 108.202 C 96.108 110.863,97.230 112.028,96.969 112.450 C 96.850 112.643,96.943 112.800,97.176 112.800 C 97.409 112.800,97.600 113.092,97.600 113.450 C 97.600 114.309,102.560 119.200,103.432 119.200 C 104.270 119.200,104.888 119.961,106.387 122.842 C 107.028 124.075,108.477 126.095,109.606 127.330 C 112.235 130.207,112.996 133.871,112.500 141.251 L 112.193 145.800 114.717 151.127 C 120.286 162.884,123.444 165.926,132.200 167.970 C 138.606 169.465,138.248 169.074,140.003 176.496 C 141.483 182.754,142.364 185.036,144.593 188.392 C 146.703 191.568,150.027 200.421,150.117 203.100 C 150.126 203.375,150.313 203.600,150.533 203.600 C 150.753 203.600,150.821 203.712,150.685 203.849 C 150.363 204.171,152.076 207.550,153.318 209.043 C 154.842 210.874,155.219 211.814,156.657 217.361 C 158.063 222.788,159.638 226.655,161.366 228.919 C 162.184 229.992,163.572 232.661,163.800 233.600 C 163.827 233.710,164.163 234.520,164.548 235.400 C 164.933 236.280,165.519 238.949,165.851 241.331 L 166.455 245.662 165.173 249.276 C 163.812 253.114,163.722 254.000,164.184 259.019 C 164.871 266.475,170.827 277.611,177.705 284.297 L 181.097 287.594 181.365 291.697 C 182.337 306.566,185.111 319.202,188.211 322.886 C 189.595 324.531,190.160 325.983,192.225 333.200 C 193.427 337.399,194.715 340.820,196.215 343.800 C 198.975 349.281,200.908 358.673,202.541 374.533 L 203.028 379.267 201.414 380.192 C 200.526 380.701,199.395 381.238,198.900 381.385 C 198.405 381.533,197.977 381.822,197.950 382.027 C 197.699 383.897,197.255 383.795,206.001 383.877 C 251.780 384.305,336.138 384.390,340.400 384.013 C 348.149 383.326,351.086 382.261,354.800 378.794 C 356.744 376.979,360.173 374.541,362.369 373.412 C 363.122 373.025,364.922 371.514,366.369 370.054 C 367.816 368.594,369.892 366.770,370.982 366.000 C 372.655 364.818,373.277 363.975,374.982 360.581 C 376.092 358.371,377.845 355.491,378.878 354.181 C 383.247 348.643,383.952 344.963,384.278 326.000 C 384.540 310.781,384.404 309.942,381.197 307.045 C 379.970 305.936,376.381 304.400,375.019 304.400 C 373.471 304.400,370.425 301.463,369.360 298.943 L 368.200 296.200 368.235 286.600 C 368.331 260.602,368.362 260.466,374.652 258.607 C 379.309 257.230,381.558 256.089,382.427 254.660 C 384.283 251.608,384.894 241.182,383.942 228.800 C 383.498 223.012,383.427 208.750,383.833 206.738 C 383.950 206.154,383.856 205.558,383.623 205.414 C 383.391 205.271,383.200 205.343,383.200 205.576 C 383.200 205.809,383.065 205.979,382.900 205.953 C 382.010 205.812,381.155 206.059,381.006 206.500 C 380.913 206.775,380.533 208.079,380.162 209.398 C 379.332 212.344,377.705 213.955,372.811 216.677 C 370.935 217.721,368.320 219.590,367.000 220.831 C 365.646 222.104,363.174 223.822,361.328 224.774 C 359.528 225.701,357.008 227.377,355.728 228.497 C 352.098 231.673,348.933 232.949,339.592 235.001 C 335.086 235.990,329.690 237.238,327.600 237.774 C 323.336 238.866,318.432 239.664,310.240 240.598 C 292.542 242.617,288.282 242.058,282.764 236.994 C 281.240 235.596,279.590 234.325,279.097 234.170 C 277.800 233.763,274.395 231.528,272.999 230.168 C 272.340 229.526,270.900 228.291,269.800 227.423 C 262.851 221.946,261.310 220.188,258.596 214.647 C 257.065 211.522,255.288 208.559,254.200 207.321 C 252.401 205.272,251.248 203.064,249.360 198.052 C 248.251 195.110,248.154 192.495,248.837 184.021 C 249.268 178.673,249.255 178.494,247.883 170.661 L 246.492 162.722 247.439 157.964 C 247.960 155.347,248.822 151.630,249.354 149.703 C 249.887 147.776,250.806 142.510,251.397 138.000 C 252.648 128.450,253.011 127.464,256.708 123.544 C 261.295 118.682,262.506 118.389,268.011 120.805 C 275.219 123.969,289.554 123.792,302.751 120.376 C 314.362 117.372,332.156 117.411,341.180 120.461 C 344.689 121.647,350.581 122.521,358.400 123.014 C 364.659 123.409,372.386 125.115,376.901 127.099 C 379.166 128.094,380.800 130.910,380.800 133.819 C 380.800 134.515,381.258 134.776,382.800 134.955 C 383.917 135.085,384.038 135.004,383.851 134.251 C 383.468 132.704,383.541 119.492,383.963 114.200 C 384.485 107.638,384.493 95.485,383.979 90.000 C 383.530 85.204,383.423 73.326,383.821 72.291 C 384.526 70.452,381.646 71.513,380.390 73.554 L 379.188 75.508 375.294 76.212 C 370.003 77.168,356.797 76.830,350.118 75.567 C 343.189 74.258,341.886 72.917,341.213 66.414 L 340.821 62.628 342.257 60.014 C 343.047 58.576,344.254 56.691,344.939 55.825 C 346.800 53.475,347.042 47.241,345.400 44.000 C 343.636 40.519,343.173 38.857,342.582 33.895 L 342.022 29.190 343.227 26.695 C 345.161 22.691,345.311 22.558,347.304 23.090 C 348.978 23.537,349.747 23.164,349.790 21.885 C 349.795 21.712,349.980 21.442,350.200 21.285 C 352.762 19.457,348.700 17.446,341.600 17.028 C 339.290 16.892,335.870 16.600,334.000 16.380 C 328.081 15.684,306.826 15.437,300.193 15.987 C 293.044 16.580,239.323 16.593,232.777 16.003 C 227.790 15.554,67.834 15.566,62.791 16.016 M230.600 19.600 C 231.921 20.261,232.995 21.195,233.763 22.355 C 234.403 23.320,235.653 24.760,236.541 25.555 C 237.429 26.350,238.706 27.622,239.378 28.382 C 245.176 34.938,246.474 35.270,265.115 34.963 C 285.078 34.634,288.926 33.887,292.261 29.698 C 293.091 28.654,294.688 26.810,295.810 25.600 C 296.931 24.390,298.190 22.817,298.608 22.105 C 300.244 19.313,304.180 18.440,315.200 18.427 C 322.060 18.419,323.639 18.627,327.397 20.033 L 329.643 20.874 329.376 24.737 C 329.230 26.862,328.680 30.285,328.155 32.344 C 326.887 37.314,326.910 37.554,329.035 41.807 L 330.870 45.479 330.422 50.040 C 330.020 54.135,329.851 54.763,328.767 56.200 C 328.103 57.080,327.048 58.880,326.422 60.200 L 325.283 62.600 325.757 66.800 C 326.271 71.353,326.545 72.082,328.767 74.800 C 329.577 75.790,331.070 77.860,332.085 79.400 C 334.943 83.737,341.901 87.900,348.200 89.041 C 351.371 89.616,371.125 90.923,372.095 90.622 C 372.373 90.536,374.080 90.357,375.889 90.225 L 379.178 89.983 380.278 92.092 C 382.240 95.853,381.921 109.498,379.774 113.650 C 379.043 115.064,379.040 115.063,373.529 112.566 C 367.391 109.785,362.952 108.800,356.564 108.800 C 353.622 108.800,346.037 108.332,339.708 107.761 C 330.285 106.910,326.895 106.763,321.000 106.951 C 314.423 107.160,310.915 107.395,292.600 108.856 C 282.656 109.649,276.660 109.489,270.000 108.253 C 266.810 107.660,261.904 106.910,259.099 106.585 L 253.998 105.994 251.609 106.965 C 244.395 109.896,242.850 112.919,240.975 127.762 C 239.730 137.620,239.224 139.882,237.373 143.872 C 233.968 151.210,233.614 152.408,233.198 157.980 C 232.843 162.749,233.335 168.903,234.627 175.858 C 235.232 179.112,235.231 179.120,234.065 183.058 C 230.579 194.833,230.947 197.332,237.181 204.211 C 238.925 206.136,240.210 208.128,241.644 211.130 C 242.840 213.636,244.400 216.168,245.489 217.373 C 246.496 218.488,247.759 220.390,248.296 221.600 C 250.935 227.550,252.659 229.751,258.554 234.698 C 265.406 240.447,266.737 241.420,270.179 243.195 C 271.756 244.008,273.383 245.221,274.082 246.104 C 275.430 247.805,277.905 249.595,280.000 250.382 C 280.770 250.671,282.930 251.584,284.800 252.411 C 289.798 254.621,294.731 255.197,298.826 254.050 C 302.868 252.918,309.932 251.764,316.200 251.212 C 339.167 249.189,345.116 248.356,347.828 246.784 C 349.974 245.541,351.162 244.946,357.800 241.796 C 360.534 240.499,363.260 238.830,365.000 237.391 C 366.540 236.117,369.066 234.495,370.613 233.787 C 372.161 233.079,374.645 231.577,376.134 230.450 C 379.546 227.867,379.315 227.800,380.444 231.700 C 382.002 237.079,381.873 246.859,380.200 250.188 L 379.000 252.576 374.649 253.675 C 364.885 256.143,364.738 256.499,364.491 278.340 C 364.182 305.565,365.036 307.894,375.800 309.197 C 379.101 309.597,379.494 309.739,380.527 310.916 L 381.655 312.200 381.420 321.800 C 381.186 331.346,380.542 337.598,379.576 339.701 L 379.071 340.802 378.148 339.301 C 377.114 337.618,376.314 335.144,375.400 330.801 C 373.534 321.927,368.005 316.807,358.546 315.192 C 354.325 314.471,353.423 314.164,350.393 312.416 C 346.243 310.023,343.886 308.993,340.259 307.988 L 337.487 307.220 334.844 308.269 C 329.922 310.224,327.773 312.179,325.793 316.503 C 324.156 320.079,324.152 320.923,325.750 325.821 C 326.537 328.229,327.616 331.730,328.149 333.600 C 328.682 335.470,329.915 338.910,330.888 341.245 C 333.392 347.251,334.018 352.772,332.854 358.570 L 332.057 362.539 332.994 364.370 C 334.142 366.612,336.408 368.819,338.788 370.011 C 340.503 370.870,344.839 374.979,346.165 377.003 C 347.242 378.646,346.987 379.519,345.300 379.970 C 339.099 381.628,339.296 381.623,278.371 381.509 L 220.200 381.400 218.137 380.312 L 216.074 379.224 215.837 375.712 C 215.352 368.538,214.331 362.725,212.753 358.162 C 211.902 355.701,210.855 352.093,210.425 350.144 C 209.996 348.195,209.148 344.350,208.541 341.600 C 207.626 337.460,207.004 335.755,204.923 331.684 C 203.202 328.319,201.906 325.037,200.817 321.284 C 198.818 314.395,196.998 309.178,195.695 306.600 C 194.986 305.199,194.523 303.295,194.146 300.241 L 193.609 295.882 195.188 290.041 C 197.731 280.637,197.863 279.397,196.651 276.349 C 196.093 274.947,195.450 272.952,195.220 271.915 C 194.680 269.472,190.275 258.418,188.752 255.681 C 187.639 253.683,184.000 244.411,184.000 243.575 C 184.000 242.495,180.637 234.916,179.254 232.880 C 178.176 231.292,177.201 229.021,176.205 225.773 C 173.969 218.480,173.253 216.661,171.710 214.339 C 169.798 211.461,168.758 209.022,167.249 203.868 C 165.925 199.352,164.455 196.089,162.186 192.638 C 161.344 191.357,160.309 188.756,159.400 185.635 C 157.635 179.578,156.412 176.499,154.598 173.550 C 153.127 171.161,152.627 169.340,152.031 164.200 C 150.543 151.363,149.576 149.968,141.776 149.393 C 137.731 149.095,133.803 148.122,131.100 146.747 C 129.339 145.851,129.413 146.132,130.362 143.951 C 132.832 138.275,131.921 131.530,128.058 126.892 C 127.192 125.851,125.723 123.740,124.795 122.200 C 123.867 120.660,122.000 118.230,120.646 116.800 C 119.293 115.370,117.740 113.300,117.197 112.200 C 116.654 111.100,115.005 108.989,113.533 107.509 C 112.061 106.029,110.302 103.779,109.625 102.509 C 108.948 101.239,107.215 98.850,105.774 97.200 C 104.334 95.550,101.961 92.400,100.502 90.200 C 99.043 88.000,96.835 85.120,95.596 83.800 C 94.356 82.480,92.736 80.257,91.994 78.860 C 91.253 77.463,89.552 75.213,88.215 73.860 C 86.878 72.507,85.068 70.162,84.194 68.648 C 83.319 67.135,81.544 64.705,80.250 63.248 C 78.955 61.792,76.637 58.710,75.100 56.400 C 73.562 54.090,71.437 51.346,70.376 50.302 C 69.316 49.258,67.853 47.278,67.125 45.902 C 66.396 44.526,64.613 42.207,63.162 40.748 L 60.524 38.096 60.262 33.948 C 59.905 28.291,60.546 21.277,61.507 20.315 C 63.344 18.478,64.191 18.461,149.000 18.533 L 228.600 18.600 230.600 19.600 M274.923 20.015 C 280.874 20.872,280.868 20.902,274.400 22.600 C 268.350 24.188,255.376 23.953,252.739 22.207 C 250.989 21.049,251.009 20.840,252.929 20.130 C 254.559 19.528,270.949 19.442,274.923 20.015 M356.240 327.940 C 358.678 329.721,364.344 335.838,364.637 337.004 C 366.466 344.293,363.162 352.011,355.673 357.942 L 354.118 359.174 353.012 356.988 C 352.180 355.344,351.764 353.643,351.333 350.127 C 350.689 344.874,349.770 343.104,346.143 340.132 C 343.640 338.081,343.576 337.871,344.068 333.360 C 344.596 328.519,344.728 328.366,349.106 327.543 C 353.983 326.625,354.478 326.653,356.240 327.940 M378.750 387.066 C 377.961 387.276,377.860 389.200,378.637 389.200 C 378.953 389.200,379.079 388.950,378.943 388.595 C 378.815 388.262,378.933 387.722,379.204 387.395 C 379.476 387.068,379.631 386.821,379.549 386.846 C 379.467 386.872,379.108 386.971,378.750 387.066 M378.200 390.400 C 378.336 390.620,378.257 390.800,378.024 390.800 C 377.791 390.800,377.600 390.964,377.600 391.165 C 377.600 391.365,377.900 391.485,378.267 391.431 C 379.096 391.310,379.347 390.000,378.541 390.000 C 378.217 390.000,378.064 390.180,378.200 390.400 M377.376 392.439 C 377.030 392.999,377.902 393.200,378.348 392.662 C 378.680 392.263,378.638 392.133,378.176 392.133 C 377.840 392.133,377.480 392.271,377.376 392.439 M362.501 395.251 C 359.264 395.640,359.200 395.694,359.200 398.024 L 359.200 400.000 364.400 400.000 L 369.600 400.000 369.600 398.080 C 369.600 397.024,369.774 395.986,369.986 395.774 C 370.235 395.525,369.491 395.343,367.901 395.265 C 366.542 395.197,365.333 395.099,365.215 395.046 C 365.097 394.993,363.876 395.085,362.501 395.251 " stroke="none" fill="#a3cfe9" fill-rule="evenodd"></path><path id="path4" d="M370.560 1.969 C 370.589 3.533,370.767 4.182,371.200 4.299 C 371.617 4.412,371.655 4.358,371.326 4.123 C 371.065 3.937,370.777 2.888,370.686 1.792 L 370.520 -0.200 370.560 1.969 M18.600 4.846 C 14.817 5.396,13.280 7.122,13.223 10.886 C 13.196 12.610,12.429 13.200,10.213 13.200 C 6.643 13.200,5.352 14.521,4.835 18.703 C 4.448 21.830,4.505 21.991,5.640 20.964 C 6.104 20.544,6.596 20.259,6.732 20.330 C 6.868 20.401,7.043 20.222,7.120 19.930 C 7.213 19.579,7.118 19.603,6.837 20.000 C 6.482 20.502,6.411 20.463,6.406 19.759 C 6.395 18.231,8.108 16.245,10.400 15.129 C 11.610 14.539,12.603 13.909,12.606 13.729 C 12.618 13.110,13.255 12.387,13.600 12.600 C 13.790 12.717,14.075 12.602,14.234 12.345 C 14.414 12.054,14.350 11.983,14.068 12.158 C 12.947 12.851,14.313 8.844,15.726 7.293 C 16.500 6.444,19.960 5.114,20.884 5.311 C 21.113 5.360,21.383 5.175,21.483 4.900 C 21.584 4.625,21.517 4.422,21.333 4.449 C 21.150 4.476,19.920 4.654,18.600 4.846 M378.400 4.810 C 378.400 4.971,378.664 5.321,378.987 5.589 C 379.310 5.857,379.535 6.262,379.487 6.488 C 379.439 6.715,379.670 6.981,380.000 7.080 C 380.533 7.241,380.533 7.214,380.000 6.837 C 379.498 6.482,379.537 6.411,380.241 6.406 C 381.760 6.395,383.755 8.108,384.857 10.370 C 386.282 13.294,387.134 13.413,386.897 10.655 C 386.637 7.633,385.686 5.891,384.000 5.352 C 382.246 4.791,378.400 4.419,378.400 4.810 M383.519 6.649 C 384.678 7.398,386.008 9.550,385.962 10.600 C 385.940 11.115,385.796 10.946,385.559 10.126 C 385.092 8.510,383.267 6.672,381.538 6.076 C 380.276 5.641,380.268 5.628,381.400 5.835 C 382.060 5.955,383.014 6.322,383.519 6.649 M17.021 7.183 C 15.835 7.964,14.448 10.096,14.417 11.185 C 14.408 11.506,14.805 10.968,15.300 9.988 C 15.795 9.008,16.812 7.800,17.559 7.303 C 18.307 6.806,18.757 6.401,18.559 6.403 C 18.362 6.404,17.669 6.755,17.021 7.183 M382.900 9.137 C 383.725 10.053,384.400 11.061,384.400 11.378 C 384.400 11.694,384.579 12.064,384.799 12.199 C 385.062 12.362,385.066 12.100,384.810 11.425 C 384.202 9.826,383.164 8.409,382.243 7.919 C 381.694 7.627,381.924 8.052,382.900 9.137 M387.311 14.010 C 387.345 14.471,387.794 14.819,388.549 14.970 C 390.379 15.336,392.234 16.988,393.054 18.984 C 393.464 19.981,393.922 20.798,394.071 20.799 C 394.221 20.799,394.626 21.083,394.971 21.429 C 395.317 21.774,395.600 21.894,395.600 21.695 C 395.600 21.496,395.465 21.199,395.300 21.035 C 395.135 20.871,394.640 19.639,394.200 18.298 C 393.281 15.496,392.328 14.625,389.315 13.830 C 387.392 13.323,387.260 13.335,387.311 14.010 M10.126 14.441 C 8.510 14.908,6.672 16.733,6.076 18.462 C 5.641 19.724,5.628 19.732,5.835 18.600 C 6.259 16.282,8.689 13.955,10.600 14.038 C 11.115 14.060,10.946 14.204,10.126 14.441 M10.405 15.710 C 9.459 16.210,8.398 17.065,8.049 17.610 C 7.569 18.358,7.827 18.234,9.108 17.100 C 10.040 16.275,11.061 15.600,11.378 15.600 C 11.694 15.600,12.064 15.420,12.200 15.200 C 12.554 14.627,12.334 14.690,10.405 15.710 M390.438 17.777 C 390.788 18.230,391.373 19.045,391.738 19.589 C 392.102 20.133,392.400 20.388,392.400 20.156 C 392.400 19.923,391.815 19.108,391.100 18.343 C 390.385 17.579,390.087 17.324,390.438 17.777 M396.900 29.487 C 397.505 29.578,398.495 29.578,399.100 29.487 C 399.705 29.395,399.210 29.320,398.000 29.320 C 396.790 29.320,396.295 29.395,396.900 29.487 M84.684 125.039 C 84.638 125.079,83.837 125.216,82.904 125.344 C 78.377 125.962,71.590 132.257,71.130 136.264 C 71.008 137.327,72.096 139.966,75.081 145.855 C 75.654 146.985,77.090 149.052,78.271 150.448 C 79.452 151.843,81.161 154.248,82.068 155.792 C 82.976 157.337,85.015 160.490,86.601 162.800 C 90.065 167.847,90.791 169.231,92.608 174.250 C 93.377 176.374,94.889 179.752,95.968 181.756 C 97.048 183.760,98.752 187.882,99.757 190.915 C 100.765 193.958,102.642 198.440,103.947 200.915 C 105.247 203.382,107.076 207.740,108.013 210.600 C 108.949 213.460,110.574 217.510,111.624 219.600 C 114.660 225.642,115.552 228.886,114.624 230.508 C 111.202 236.488,99.741 241.062,82.728 243.236 L 78.855 243.731 76.570 242.366 C 72.357 239.849,70.399 237.688,67.180 232.002 C 65.541 229.107,63.425 225.826,62.479 224.711 C 61.532 223.597,60.384 221.946,59.928 221.042 C 52.803 206.934,42.416 200.800,25.648 200.800 C 20.051 200.800,20.611 200.136,20.006 207.480 C 19.592 212.502,19.804 220.044,20.455 223.484 L 20.850 225.568 25.325 225.333 L 29.800 225.098 32.881 227.165 C 36.680 229.714,39.675 232.970,41.993 237.071 C 42.965 238.792,44.689 241.333,45.822 242.717 C 47.551 244.828,48.097 245.923,49.208 249.517 L 50.533 253.800 49.724 258.639 C 49.010 262.911,48.608 264.129,46.294 269.039 C 44.852 272.098,42.828 277.300,41.797 280.600 C 36.682 296.970,31.915 304.019,24.843 305.667 C 20.222 306.744,20.632 306.139,19.990 312.804 C 19.581 317.050,19.986 333.720,20.627 339.009 C 20.825 340.643,24.000 341.678,24.000 340.109 C 24.000 339.829,24.291 339.600,24.647 339.600 C 25.107 339.600,25.230 339.358,25.073 338.758 C 24.952 338.295,25.102 337.350,25.406 336.658 C 25.710 335.966,26.358 333.994,26.845 332.277 C 27.890 328.592,28.102 328.435,33.400 327.450 C 46.359 325.039,47.434 324.466,52.267 317.386 C 55.608 312.494,56.354 310.817,59.208 301.800 C 59.905 299.600,61.356 295.982,62.433 293.760 C 63.511 291.538,65.230 287.128,66.253 283.960 C 69.520 273.845,73.831 270.628,89.238 266.808 C 94.827 265.422,102.317 263.320,105.882 262.137 C 118.912 257.811,120.977 257.605,125.828 260.147 C 129.419 262.029,129.279 261.806,133.203 271.960 C 134.699 275.832,136.821 280.890,137.918 283.200 C 139.016 285.510,140.834 289.971,141.959 293.113 C 143.084 296.254,144.838 300.484,145.857 302.513 C 148.672 308.115,152.000 318.080,152.000 320.907 C 152.000 324.345,147.405 329.844,141.759 333.161 C 139.362 334.569,136.590 336.302,135.600 337.012 C 130.881 340.393,130.591 340.463,113.247 342.395 C 107.334 343.053,99.999 344.065,96.948 344.642 C 89.378 346.075,85.531 346.736,82.064 347.198 C 76.371 347.957,71.594 351.861,71.607 355.743 C 71.620 359.527,72.347 364.878,72.939 365.547 C 73.257 365.906,73.581 366.542,73.659 366.961 C 73.740 367.397,74.822 368.297,76.200 369.073 L 78.600 370.425 83.400 370.236 C 88.195 370.047,90.051 369.835,97.200 368.660 C 99.290 368.316,102.170 367.846,103.600 367.614 C 105.030 367.382,111.240 366.550,117.400 365.765 C 135.292 363.484,143.513 360.838,151.302 354.851 C 153.857 352.887,154.237 352.732,158.302 351.985 L 162.600 351.194 163.817 352.568 C 164.579 353.428,165.744 355.857,166.936 359.070 C 167.982 361.892,169.460 365.640,170.220 367.400 C 171.180 369.623,171.778 371.866,172.178 374.744 C 172.865 379.682,172.497 379.226,176.305 379.850 C 181.385 380.683,187.792 380.515,194.755 379.367 L 196.110 379.143 195.832 375.093 C 195.467 369.795,194.051 363.435,192.293 359.200 C 190.286 354.366,188.998 350.012,188.210 345.400 C 187.398 340.649,186.590 338.215,185.303 336.643 C 183.138 333.999,180.867 327.885,180.032 322.453 C 179.581 319.525,179.167 318.349,178.183 317.200 C 175.946 314.587,173.476 307.809,172.165 300.686 C 171.113 294.966,169.193 290.487,165.614 285.400 C 164.995 284.520,164.102 282.540,163.629 281.000 C 163.156 279.460,162.076 277.210,161.228 275.999 C 159.481 273.503,155.344 263.957,154.555 260.600 C 154.400 259.940,153.870 258.860,153.377 258.200 C 152.885 257.540,151.138 254.210,149.496 250.800 C 147.854 247.390,145.875 243.562,145.097 242.293 C 144.319 241.024,142.851 237.401,141.833 234.240 C 140.815 231.079,139.103 226.695,138.028 224.497 C 136.954 222.300,135.260 218.183,134.265 215.351 C 132.271 209.675,129.950 203.853,128.721 201.445 C 127.674 199.392,125.183 193.362,122.919 187.400 C 121.917 184.760,120.341 181.070,119.417 179.200 C 118.493 177.330,117.506 175.170,117.222 174.400 C 116.939 173.630,116.012 171.560,115.163 169.800 C 114.314 168.040,113.379 165.700,113.086 164.600 C 112.694 163.131,112.024 162.066,110.562 160.590 C 108.781 158.792,104.400 149.602,104.400 147.665 C 104.400 147.467,103.707 146.426,102.860 145.352 C 102.013 144.279,100.316 141.690,99.089 139.600 C 97.862 137.510,96.108 135.080,95.192 134.200 C 93.428 132.507,89.476 127.754,88.279 125.889 C 87.664 124.929,85.419 124.398,84.684 125.039 M28.000 342.455 C 28.000 342.692,27.730 342.782,27.400 342.655 C 26.952 342.483,26.800 342.718,26.800 343.579 C 26.800 344.214,26.592 344.803,26.337 344.888 C 26.004 344.999,26.059 345.541,26.536 346.821 C 26.900 347.799,27.274 349.860,27.367 351.400 C 27.660 356.287,29.388 359.028,32.400 359.388 C 33.062 359.468,33.600 360.170,33.600 360.956 C 33.600 362.344,37.189 365.779,38.750 365.884 C 39.437 365.930,40.000 365.795,40.000 365.584 C 40.000 365.373,40.352 365.200,40.782 365.200 C 43.181 365.200,41.800 360.722,38.193 356.806 C 37.278 355.813,35.750 353.560,34.798 351.800 C 31.186 345.128,28.000 340.748,28.000 342.455 M44.804 369.395 C 44.041 370.315,44.621 371.200,45.987 371.200 C 47.363 371.200,47.460 370.950,46.577 369.689 C 45.846 368.646,45.477 368.584,44.804 369.395 M396.900 370.687 C 397.505 370.778,398.495 370.778,399.100 370.687 C 399.705 370.595,399.210 370.520,398.000 370.520 C 396.790 370.520,396.295 370.595,396.900 370.687 M395.200 378.306 C 395.200 378.548,394.885 378.847,394.500 378.971 C 394.115 379.094,393.464 380.013,393.054 381.012 C 392.234 383.011,390.381 384.664,388.549 385.030 C 387.794 385.181,387.345 385.529,387.311 385.990 C 387.260 386.665,387.392 386.677,389.315 386.170 C 392.295 385.384,393.280 384.497,394.200 381.769 C 394.640 380.465,395.153 379.161,395.340 378.872 C 395.527 378.583,395.572 378.239,395.440 378.107 C 395.308 377.975,395.200 378.065,395.200 378.306 M4.971 381.263 C 5.475 385.066,6.584 386.180,10.351 386.670 C 12.782 386.986,13.047 387.245,13.323 389.582 C 13.773 393.382,14.915 394.522,18.784 395.036 C 21.419 395.385,21.351 395.017,18.635 394.227 C 16.283 393.544,14.562 391.936,14.183 390.069 C 13.663 387.513,12.487 386.337,9.931 385.817 C 8.064 385.438,6.456 383.717,5.773 381.365 C 4.978 378.632,4.615 378.585,4.971 381.263 M390.833 381.558 C 390.081 382.571,389.775 383.146,390.152 382.836 C 390.971 382.161,392.547 380.003,392.344 379.835 C 392.265 379.770,391.585 380.545,390.833 381.558 M384.883 389.567 C 383.755 391.893,381.781 393.605,380.241 393.594 C 379.537 393.589,379.498 393.518,380.000 393.163 C 380.397 392.882,380.421 392.787,380.070 392.880 C 379.779 392.957,379.599 393.132,379.670 393.268 C 379.742 393.404,379.456 393.896,379.036 394.360 C 378.007 395.497,378.167 395.552,381.357 395.158 C 385.612 394.632,386.470 393.706,386.909 389.167 C 387.160 386.573,386.249 386.753,384.883 389.567 M384.366 388.700 C 384.138 389.305,383.377 390.408,382.675 391.150 C 381.759 392.121,381.637 392.378,382.243 392.066 C 383.385 391.479,385.762 387.600,384.980 387.600 C 384.870 387.600,384.594 388.095,384.366 388.700 M385.331 391.268 C 384.420 392.823,382.964 393.900,381.400 394.174 C 380.258 394.375,380.264 394.363,381.538 393.924 C 383.314 393.311,385.178 391.396,385.502 389.849 C 385.673 389.035,385.816 388.847,385.913 389.310 C 385.995 389.700,385.733 390.581,385.331 391.268 M29.194 397.919 L 29.387 400.200 29.518 398.244 C 29.590 397.169,29.503 396.142,29.324 395.963 C 29.146 395.784,29.087 396.664,29.194 397.919 M370.562 396.154 C 370.445 396.459,370.419 397.494,370.505 398.454 L 370.660 400.200 370.730 398.133 C 370.771 396.912,371.005 395.984,371.300 395.865 C 371.692 395.707,371.689 395.656,371.287 395.632 C 371.006 395.614,370.679 395.849,370.562 396.154 " stroke="none" fill="#f7f1ed" fill-rule="evenodd"></path></g></svg>