<?xml version="1.0" encoding="UTF-8"?>
<svg width="18px" height="20px" viewBox="0 0 18 20" version="1.1" xmlns="http://www.w3.org/2000/svg" xmlns:xlink="http://www.w3.org/1999/xlink">
    <!-- Generator: Sketch 60 (88103) - https://sketch.com -->
    <title>ic_accessibility copy</title>
    <desc>Created with Sketch.</desc>
    <defs>
        <path d="M12,2 C13.1,2 14,2.9 14,4 C14,5.1 13.1,6 12,6 C10.9,6 10,5.1 10,4 C10,2.9 10.9,2 12,2 L12,2 Z M21,9 L15,9 L15,22 L13,22 L13,16 L11,16 L11,22 L9,22 L9,9 L3,9 L3,7 L21,7 L21,9 L21,9 Z" id="path-1"></path>
        <rect id="path-3" x="0" y="0" width="50" height="50"></rect>
    </defs>
    <g id="Web" stroke="none" stroke-width="1" fill="none" fill-rule="evenodd">
        <g id="new_Mobile-/-front_1.1" transform="translate(-59.000000, -553.000000)">
            <g id="ic_accessibility" transform="translate(56.000000, 551.000000)">
                <mask id="mask-2" fill="white">
                    <use xlink:href="#path-1"></use>
                </mask>
                <g id="Mask"></g>
                <g id="Colors/White" mask="url(#mask-2)">
                    <g transform="translate(-13.000000, -13.000000)">
                        <mask id="mask-4" fill="white">
                            <use xlink:href="#path-3"></use>
                        </mask>
                        <use id="White" stroke="none" fill="#FFFFFF" fill-rule="evenodd" xlink:href="#path-3"></use>
                    </g>
                </g>
            </g>
        </g>
    </g>
</svg>