<?xml version="1.0" encoding="UTF-8"?>
<svg width="56px" height="56px" viewBox="0 0 56 56" version="1.1" xmlns="http://www.w3.org/2000/svg" xmlns:xlink="http://www.w3.org/1999/xlink">
    <!-- Generator: Sketch 60 (88103) - https://sketch.com -->
    <title>Group 12</title>
    <desc>Created with Sketch.</desc>
    <defs>
        <circle id="path-1" cx="20" cy="20" r="20"></circle>
        <filter x="-35.0%" y="-25.0%" width="170.0%" height="170.0%" filterUnits="objectBoundingBox" id="filter-2">
            <feOffset dx="0" dy="4" in="SourceAlpha" result="shadowOffsetOuter1"></feOffset>
            <feGaussianBlur stdDeviation="4" in="shadowOffsetOuter1" result="shadowBlurOuter1"></feGaussianBlur>
            <feColorMatrix values="0 0 0 0 0.231372549   0 0 0 0 0.282352941   0 0 0 0 0.933333333  0 0 0 0.299394248 0" type="matrix" in="shadowBlurOuter1"></feColorMatrix>
        </filter>
        <path d="M0.833333333,17.5 L4.16666667,17.5 L4.16666667,7.5 L0.833333333,7.5 L0.833333333,17.5 L0.833333333,17.5 Z M19.1666667,8.33333333 C19.1666667,7.41666667 18.4166667,6.66666667 17.5,6.66666667 L12.2416667,6.66666667 L13.0333333,2.85833333 L13.0583333,2.59166667 C13.0583333,2.25 12.9166667,1.93333333 12.6916667,1.70833333 L11.8083333,0.833333333 L6.325,6.325 C6.01666667,6.625 5.83333333,7.04166667 5.83333333,7.5 L5.83333333,15.8333333 C5.83333333,16.75 6.58333333,17.5 7.5,17.5 L15,17.5 C15.6916667,17.5 16.2833333,17.0833333 16.5333333,16.4833333 L19.05,10.6083333 C19.125,10.4166667 19.1666667,10.2166667 19.1666667,10 L19.1666667,8.40833333 L19.1583333,8.4 L19.1666667,8.33333333 L19.1666667,8.33333333 Z" id="path-3"></path>
        <rect id="path-5" x="0" y="0" width="41.6666667" height="41.6666667"></rect>
    </defs>
    <g id="Web" stroke="none" stroke-width="1" fill="none" fill-rule="evenodd">
        <g id="Desktop-/-front-/-colour-/-new" transform="translate(-58.000000, -544.000000)">
            <g id="Group-12" transform="translate(66.000000, 548.000000)">
                <g id="Oval">
                    <use fill="black" fill-opacity="1" filter="url(#filter-2)" xlink:href="#path-1"></use>
                    <use fill="#1964E6" fill-rule="evenodd" xlink:href="#path-1"></use>
                </g>
                <g id="ic_thumb_up" transform="translate(10.000000, 10.000000)">
                    <mask id="mask-4" fill="white">
                        <use xlink:href="#path-3"></use>
                    </mask>
                    <g id="Mask"></g>
                    <g id="Colors/White" mask="url(#mask-4)">
                        <g transform="translate(-10.833333, -10.833333)">
                            <mask id="mask-6" fill="white">
                                <use xlink:href="#path-5"></use>
                            </mask>
                            <use id="White" stroke="none" fill="#FFFFFF" fill-rule="evenodd" xlink:href="#path-5"></use>
                        </g>
                    </g>
                </g>
            </g>
        </g>
    </g>
</svg>