<?xml version="1.0" encoding="UTF-8"?>
<svg width="40px" height="40px" viewBox="0 0 40 40" version="1.1" xmlns="http://www.w3.org/2000/svg" xmlns:xlink="http://www.w3.org/1999/xlink">
    <!-- Generator: Sketch 60 (88103) - https://sketch.com -->
    <title>Floating button</title>
    <desc>Created with Sketch.</desc>
    <defs>
        <circle id="path-1" cx="20" cy="20" r="20"></circle>
        <filter x="-35.0%" y="-25.0%" width="170.0%" height="170.0%" filterUnits="objectBoundingBox" id="filter-2">
            <feOffset dx="0" dy="4" in="SourceAlpha" result="shadowOffsetOuter1"></feOffset>
            <feGaussianBlur stdDeviation="4" in="shadowOffsetOuter1" result="shadowBlurOuter1"></feGaussianBlur>
            <feColorMatrix values="0 0 0 0 0.231372549   0 0 0 0 0.282352941   0 0 0 0 0.933333333  0 0 0 0.299394248 0" type="matrix" in="shadowBlurOuter1"></feColorMatrix>
        </filter>
    </defs>
    <g id="Web" stroke="none" stroke-width="1" fill="none" fill-rule="evenodd">
        <g id="Desktop-/-front-/-colour-/-new">
            <g id="Floating-button" >
                <g id="Oval">
                    <use fill="black" fill-opacity="1" filter="url(#filter-2)" xlink:href="#path-1"></use>
                    <use fill="#1964E6" fill-rule="evenodd" xlink:href="#path-1"></use>
                </g>
                <g id="map-pin-marked" transform="translate(12.000000, 12.000000)" fill="#FFFFFF" fill-rule="nonzero">
                    <g id="Capa_1">
                        <g id="Group">
                            <path d="M12.1463333,4.21533333 C12.1463333,1.909 10.277,0.0396666667 7.97033333,0.0396666667 C5.66366667,0.0396666667 3.79466667,1.909 3.79466667,4.21533333 C3.79466667,7.51966667 7.97033333,12.4093333 7.97033333,12.4093333 C7.97033333,12.4093333 12.1463333,7.50266667 12.1463333,4.21533333 Z M5.911,3.966 C5.911,2.82833333 6.83333333,1.90633333 7.97066667,1.90633333 C9.108,1.90633333 10.0303333,2.82833333 10.0303333,3.966 C10.0303333,5.10366667 9.108,6.02566667 7.97066667,6.02566667 C6.83333333,6.02566667 5.911,5.10366667 5.911,3.966 Z" id="Shape"></path>
                            <circle id="Oval" cx="7.97033333" cy="3.966" r="1.01266667"></circle>
                            <path d="M10.3313333,10.9566667 C9.991,11.4486667 9.67166667,11.877 9.40566667,12.221 C12.0443333,12.3796667 13.7736667,12.9493333 14.417,13.373 C13.6633333,13.87 11.424,14.5686667 7.971,14.5686667 C4.51833333,14.5686667 2.27866667,13.8696667 1.525,13.373 C2.16833333,12.9493333 3.89633333,12.38 6.53233333,12.2213333 C6.26566667,11.8773333 5.946,11.4493333 5.60533333,10.9573333 C2.35833333,11.277 0,12.2376667 0,13.3726667 C0,14.7693333 3.569,15.902 7.971,15.902 C12.3733333,15.902 15.9416667,14.77 15.9416667,13.3726667 C15.9423333,12.237 13.5813333,11.276 10.3313333,10.9566667 Z" id="Shape"></path>
                        </g>
                    </g>
                </g>
            </g>
        </g>
    </g>
</svg>