<svg width="126" height="25" viewBox="0 0 126 25" fill="none" xmlns="http://www.w3.org/2000/svg">
<path d="M16.2002 14.4819C15.9075 14.8098 15.6121 15.1354 15.3275 15.4703C14.1625 16.8465 13.085 18.2794 12.2193 19.7641C11.3536 18.2788 10.2761 16.8465 9.11112 15.4703C8.82707 15.1354 8.53163 14.8098 8.23835 14.4819H4.90967C5.71237 15.3241 6.50694 16.1848 7.25099 17.0625C8.91669 19.0223 10.3293 21.0519 11.0842 22.967C11.2694 23.435 11.718 23.7405 12.2198 23.7405C12.7217 23.7405 13.1697 23.435 13.3555 22.967C14.1104 21.0519 15.523 19.0228 17.1887 17.0625C17.9327 16.1854 18.7273 15.3241 19.53 14.4819H16.2002Z" fill="black"/>
<path d="M17.9225 0.368164C15.9211 0.368164 14.1321 1.2758 12.9368 2.70216C13.7259 3.91307 14.1886 5.35798 14.1886 6.91362C14.1886 8.46925 13.7259 9.91416 12.9368 11.1251C14.1321 12.5514 15.9211 13.4591 17.9225 13.4591C21.5232 13.4591 24.4397 10.5289 24.4397 6.91362C24.4397 3.29835 21.5232 0.368164 17.9225 0.368164Z" fill="#FFAE00"/>
<path d="M6.51724 13.4591C10.1166 13.4591 13.0345 10.5286 13.0345 6.91362C13.0345 3.29866 10.1166 0.368164 6.51724 0.368164C2.91787 0.368164 0 3.29866 0 6.91362C0 10.5286 2.91787 13.4591 6.51724 13.4591Z" fill="#1964E6"/>
<path d="M35.973 7.52937L36.602 6.33087C36.16 5.92287 35.6245 5.60837 34.9955 5.37887C34.3665 5.14937 33.678 5.03037 32.9385 5.03037C32.2755 5.03037 31.6805 5.13237 31.1705 5.33637C30.6605 5.54037 30.227 5.81237 29.8785 6.14387C29.5215 6.48387 29.258 6.86637 29.0795 7.29137C28.8925 7.72487 28.8075 8.16687 28.8075 8.62587C28.8075 9.20387 28.884 9.67987 29.0455 10.0624C29.207 10.4534 29.4195 10.7764 29.683 11.0314C29.938 11.2949 30.2355 11.5074 30.5755 11.6604C30.907 11.8219 31.247 11.9579 31.604 12.0684C31.9525 12.1874 32.2925 12.2894 32.6325 12.3829C32.964 12.4764 33.2615 12.5869 33.525 12.7144C33.78 12.8504 33.9925 13.0119 34.154 13.1989C34.3155 13.3944 34.4005 13.6494 34.4005 13.9554C34.4005 14.4994 34.2305 14.8989 33.9075 15.1709C33.5845 15.4429 33.1255 15.5789 32.5305 15.5789C32.1225 15.5789 31.7655 15.5279 31.4765 15.4089C31.1875 15.2984 30.9325 15.1709 30.7115 15.0349L30.125 14.6609C29.955 14.5504 29.7935 14.4909 29.6405 14.4909C29.5215 14.4909 29.4195 14.5249 29.3175 14.5844C29.2155 14.6439 29.1305 14.7204 29.071 14.8054L28.323 16.0124C28.561 16.2589 28.833 16.4799 29.156 16.6754C29.4705 16.8794 29.8105 17.0494 30.1675 17.1854C30.5245 17.3299 30.8985 17.4404 31.2895 17.5169C31.6805 17.6019 32.0715 17.6359 32.4625 17.6359C33.1425 17.6359 33.7545 17.5339 34.2985 17.3214C34.8425 17.1174 35.293 16.8284 35.667 16.4629C36.0325 16.0974 36.313 15.6724 36.5085 15.1794C36.704 14.6864 36.806 14.1594 36.806 13.5984C36.806 13.0884 36.721 12.6464 36.5595 12.2894C36.398 11.9324 36.1855 11.6264 35.922 11.3714C35.6585 11.1249 35.361 10.9209 35.0295 10.7509C34.6895 10.5894 34.3495 10.4449 34.001 10.3259C33.644 10.2069 33.304 10.0879 32.9725 9.98587C32.6325 9.88387 32.335 9.77337 32.0715 9.63737C31.808 9.50987 31.5955 9.35687 31.434 9.17837C31.2725 8.99987 31.196 8.77037 31.196 8.49837C31.196 8.07337 31.3405 7.73337 31.638 7.46987C31.927 7.20637 32.369 7.07037 32.964 7.07037C33.2955 7.07037 33.5845 7.12137 33.8395 7.20637C34.086 7.29137 34.307 7.38487 34.5025 7.48687C34.6895 7.58887 34.8595 7.69087 35.004 7.77587C35.1485 7.86087 35.2845 7.90337 35.412 7.90337C35.5395 7.90337 35.6415 7.87787 35.7265 7.81837C35.8115 7.75887 35.888 7.66537 35.973 7.52937Z" fill="black"/>
<path d="M43.8747 12.0854H40.2197C40.3132 11.4989 40.5172 11.0484 40.8402 10.7254C41.1547 10.4109 41.5967 10.2494 42.1577 10.2494C42.4552 10.2494 42.7102 10.3004 42.9312 10.4024C43.1437 10.5044 43.3222 10.6319 43.4667 10.8019C43.6027 10.9719 43.7047 11.1674 43.7727 11.3884C43.8407 11.6094 43.8747 11.8474 43.8747 12.0854ZM40.1857 13.4794H45.4387C45.5407 13.4794 45.6342 13.4709 45.7022 13.4454C45.7702 13.4199 45.8212 13.3689 45.8637 13.3009C45.8977 13.2329 45.9317 13.1479 45.9487 13.0289C45.9657 12.9184 45.9742 12.7739 45.9742 12.5954C45.9742 11.9664 45.8722 11.3969 45.6852 10.9039C45.4982 10.4109 45.2262 9.98587 44.8862 9.64587C44.5462 9.30587 44.1382 9.05087 43.6622 8.87237C43.1862 8.69387 42.6762 8.60037 42.1152 8.60037C41.4522 8.60037 40.8572 8.71937 40.3302 8.94887C39.8032 9.17837 39.3527 9.48437 38.9872 9.87537C38.6132 10.2664 38.3327 10.7254 38.1372 11.2524C37.9417 11.7794 37.8482 12.3404 37.8482 12.9354C37.8482 13.7089 37.9587 14.3889 38.1882 14.9669C38.4092 15.5534 38.7237 16.0464 39.1147 16.4374C39.5057 16.8284 39.9732 17.1259 40.5002 17.3299C41.0272 17.5339 41.6052 17.6274 42.2172 17.6274C42.5232 17.6274 42.8377 17.6104 43.1692 17.5679C43.4922 17.5254 43.8237 17.4489 44.1467 17.3384C44.4697 17.2279 44.7757 17.0749 45.0817 16.8879C45.3792 16.7009 45.6512 16.4544 45.9062 16.1654L45.2262 15.3154C45.1242 15.1794 44.9797 15.1114 44.8012 15.1114C44.6567 15.1114 44.5122 15.1539 44.3677 15.2304L43.8832 15.4854C43.7047 15.5789 43.5007 15.6639 43.2627 15.7404C43.0247 15.8169 42.7527 15.8509 42.4297 15.8509C41.7922 15.8509 41.2737 15.6639 40.8827 15.2814C40.4917 14.9074 40.2537 14.3039 40.1857 13.4794Z" fill="black"/>
<path d="M49.6314 10.1814L49.5039 9.30587C49.4614 9.10187 49.3934 8.94887 49.3084 8.86387C49.2149 8.77887 49.0534 8.73637 48.8154 8.73637H47.4299V17.4999H49.7759V12.1364C49.8609 11.9324 49.9629 11.7454 50.0649 11.5754C50.1669 11.4139 50.2859 11.2779 50.4219 11.1589C50.5494 11.0484 50.6939 10.9634 50.8639 10.8954C51.0339 10.8359 51.2209 10.8019 51.4419 10.8019C51.5864 10.8019 51.7479 10.8189 51.9179 10.8444C52.0879 10.8699 52.2154 10.8784 52.3089 10.8784C52.4109 10.8784 52.4874 10.8614 52.5469 10.8189C52.6064 10.7764 52.6489 10.6999 52.6829 10.5809L52.8359 8.84687C52.5809 8.65987 52.2579 8.56637 51.8669 8.56637C51.3739 8.56637 50.9489 8.71087 50.5919 8.99987C50.2264 9.28887 49.9034 9.68837 49.6314 10.1814Z" fill="black"/>
<path d="M61.9046 8.73637H60.0516C59.8986 8.73637 59.7626 8.77887 59.6521 8.85537C59.5331 8.94037 59.4566 9.04237 59.4226 9.16137L57.9011 13.4964C57.7991 13.7939 57.7056 14.0829 57.6291 14.3634C57.5526 14.6439 57.4846 14.9244 57.4251 15.2049C57.3656 14.9244 57.2976 14.6439 57.2296 14.3634C57.1531 14.0829 57.0681 13.7939 56.9746 13.4964L55.5041 9.16137C55.4531 9.04237 55.3766 8.94037 55.2661 8.85537C55.1471 8.77887 55.0111 8.73637 54.8411 8.73637H52.8946L56.3371 17.4999H58.4621L61.9046 8.73637Z" fill="black"/>
<path d="M65.3166 8.73637H62.9706V17.4999H65.3166V8.73637ZM65.5971 6.24587C65.5971 6.05037 65.5546 5.86337 65.4781 5.69337C65.3931 5.52337 65.2911 5.37037 65.1551 5.23437C65.0191 5.10687 64.8661 5.00487 64.6876 4.92837C64.5091 4.86037 64.3221 4.81787 64.1181 4.81787C63.9226 4.81787 63.7356 4.86037 63.5656 4.92837C63.3956 5.00487 63.2426 5.10687 63.1151 5.23437C62.9791 5.37037 62.8771 5.52337 62.8006 5.69337C62.7241 5.86337 62.6901 6.05037 62.6901 6.24587C62.6901 6.44987 62.7241 6.62837 62.8006 6.79837C62.8771 6.96837 62.9791 7.12137 63.1151 7.24887C63.2426 7.38487 63.3956 7.48687 63.5656 7.55487C63.7356 7.63137 63.9226 7.66537 64.1181 7.66537C64.3221 7.66537 64.5091 7.63137 64.6876 7.55487C64.8661 7.48687 65.0191 7.38487 65.1551 7.24887C65.2911 7.12137 65.3931 6.96837 65.4781 6.79837C65.5546 6.62837 65.5971 6.44987 65.5971 6.24587Z" fill="black"/>
<path d="M73.6766 10.6914L74.2886 9.85837C73.8806 9.45037 73.4301 9.14437 72.9286 8.92337C72.4186 8.71087 71.8321 8.60037 71.1691 8.60037C70.4636 8.60037 69.8431 8.71937 69.3076 8.94887C68.7721 9.17837 68.3216 9.49287 67.9646 9.89237C67.5991 10.3004 67.3271 10.7764 67.1401 11.3204C66.9531 11.8729 66.8596 12.4679 66.8596 13.1054C66.8596 13.8279 66.9616 14.4654 67.1741 15.0264C67.3866 15.5874 67.6756 16.0634 68.0411 16.4459C68.3981 16.8369 68.8231 17.1259 69.3076 17.3299C69.7836 17.5339 70.2936 17.6274 70.8376 17.6274C71.1436 17.6274 71.4496 17.6104 71.7641 17.5679C72.0701 17.5254 72.3761 17.4489 72.6821 17.3384C72.9881 17.2279 73.2771 17.0749 73.5661 16.8879C73.8466 16.7009 74.1101 16.4544 74.3651 16.1654L73.6936 15.3154C73.5916 15.1794 73.4471 15.1114 73.2686 15.1114C73.1666 15.1114 73.0816 15.1369 73.0051 15.1709C72.9286 15.2049 72.8521 15.2559 72.7756 15.3069L72.5376 15.4939C72.4526 15.5619 72.3506 15.6299 72.2316 15.6809C72.1126 15.7404 71.9766 15.7914 71.8236 15.8254C71.6706 15.8594 71.4836 15.8764 71.2711 15.8764C70.6421 15.8764 70.1491 15.6384 69.7921 15.1624C69.4351 14.6864 69.2566 14.0064 69.2566 13.1054C69.2566 12.6804 69.2906 12.2979 69.3756 11.9579C69.4606 11.6179 69.5881 11.3289 69.7581 11.0909C69.9281 10.8529 70.1406 10.6744 70.3956 10.5469C70.6506 10.4194 70.9566 10.3514 71.3136 10.3514C71.5856 10.3514 71.8236 10.3854 72.0106 10.4534C72.1976 10.5214 72.3591 10.5894 72.4951 10.6659C72.6311 10.7424 72.7501 10.8104 72.8521 10.8784C72.9541 10.9464 73.0646 10.9719 73.1836 10.9719C73.3026 10.9719 73.4046 10.9549 73.4726 10.9039C73.5406 10.8529 73.6086 10.7849 73.6766 10.6914Z" fill="black"/>
<path d="M80.9626 12.0854H77.3076C77.4011 11.4989 77.6051 11.0484 77.9281 10.7254C78.2426 10.4109 78.6846 10.2494 79.2456 10.2494C79.5431 10.2494 79.7981 10.3004 80.0191 10.4024C80.2316 10.5044 80.4101 10.6319 80.5546 10.8019C80.6906 10.9719 80.7926 11.1674 80.8606 11.3884C80.9286 11.6094 80.9626 11.8474 80.9626 12.0854ZM77.2736 13.4794H82.5266C82.6286 13.4794 82.7221 13.4709 82.7901 13.4454C82.8581 13.4199 82.9091 13.3689 82.9516 13.3009C82.9856 13.2329 83.0196 13.1479 83.0366 13.0289C83.0536 12.9184 83.0621 12.7739 83.0621 12.5954C83.0621 11.9664 82.9601 11.3969 82.7731 10.9039C82.5861 10.4109 82.3141 9.98587 81.9741 9.64587C81.6341 9.30587 81.2261 9.05087 80.7501 8.87237C80.2741 8.69387 79.7641 8.60037 79.2031 8.60037C78.5401 8.60037 77.9451 8.71937 77.4181 8.94887C76.8911 9.17837 76.4406 9.48437 76.0751 9.87537C75.7011 10.2664 75.4206 10.7254 75.2251 11.2524C75.0296 11.7794 74.9361 12.3404 74.9361 12.9354C74.9361 13.7089 75.0466 14.3889 75.2761 14.9669C75.4971 15.5534 75.8116 16.0464 76.2026 16.4374C76.5936 16.8284 77.0611 17.1259 77.5881 17.3299C78.1151 17.5339 78.6931 17.6274 79.3051 17.6274C79.6111 17.6274 79.9256 17.6104 80.2571 17.5679C80.5801 17.5254 80.9116 17.4489 81.2346 17.3384C81.5576 17.2279 81.8636 17.0749 82.1696 16.8879C82.4671 16.7009 82.7391 16.4544 82.9941 16.1654L82.3141 15.3154C82.2121 15.1794 82.0676 15.1114 81.8891 15.1114C81.7446 15.1114 81.6001 15.1539 81.4556 15.2304L80.9711 15.4854C80.7926 15.5789 80.5886 15.6639 80.3506 15.7404C80.1126 15.8169 79.8406 15.8509 79.5176 15.8509C78.8801 15.8509 78.3616 15.6639 77.9706 15.2814C77.5796 14.9074 77.3416 14.3039 77.2736 13.4794Z" fill="black"/>
<path d="M86.8638 4.82637H84.5178V17.4999H86.8638V13.5474H87.3568C87.5268 13.5474 87.6543 13.5729 87.7393 13.6069C87.8243 13.6494 87.9008 13.7344 87.9858 13.8704L89.9578 17.0919C90.0428 17.2449 90.1448 17.3554 90.2808 17.4149C90.4083 17.4744 90.5613 17.4999 90.7483 17.4999H92.8563L90.1448 13.2754C90.0513 13.1309 89.9578 12.9949 89.8643 12.8759C89.7623 12.7569 89.6518 12.6549 89.5243 12.5614C89.7793 12.4084 90.0088 12.2044 90.2128 11.9324L92.7288 8.73637H90.5868C90.3998 8.73637 90.2383 8.77037 90.1193 8.83837C90.0003 8.90637 89.8898 9.00837 89.7963 9.13587L87.8583 11.7199C87.7733 11.8389 87.6883 11.9154 87.6033 11.9579C87.5183 12.0004 87.3993 12.0174 87.2548 12.0174H86.8638V4.82637Z" fill="black"/>
<path d="M98.3796 13.8364V15.1964C98.0906 15.4939 97.8101 15.7149 97.5211 15.8509C97.2321 15.9869 96.9006 16.0549 96.5096 16.0549C96.1696 16.0549 95.8976 15.9869 95.7106 15.8424C95.5236 15.7064 95.4301 15.4599 95.4301 15.1199C95.4301 14.9499 95.4726 14.7969 95.5661 14.6524C95.6596 14.5079 95.8211 14.3804 96.0421 14.2614C96.2631 14.1509 96.5691 14.0574 96.9516 13.9894C97.3256 13.9214 97.8016 13.8704 98.3796 13.8364ZM93.6026 9.95187L94.0191 10.6999C94.0871 10.8189 94.1806 10.9124 94.2911 10.9974C94.4016 11.0824 94.5376 11.1164 94.7076 11.1164C94.8946 11.1164 95.0561 11.0824 95.2006 11.0059L95.6511 10.7594C95.8126 10.6744 95.9996 10.5894 96.2206 10.5129C96.4331 10.4364 96.7051 10.3939 97.0281 10.3939C97.4616 10.3939 97.7931 10.5299 98.0311 10.7849C98.2606 11.0399 98.3796 11.4479 98.3796 11.9919V12.4424C97.3766 12.4679 96.5351 12.5699 95.8721 12.7399C95.2091 12.9099 94.6736 13.1309 94.2741 13.3944C93.8746 13.6579 93.5941 13.9469 93.4326 14.2699C93.2626 14.5929 93.1861 14.9159 93.1861 15.2389C93.1861 15.6299 93.2456 15.9784 93.3731 16.2759C93.4921 16.5819 93.6706 16.8284 93.9001 17.0324C94.1296 17.2364 94.4016 17.3809 94.7246 17.4829C95.0391 17.5849 95.3876 17.6359 95.7786 17.6359C96.0846 17.6359 96.3651 17.6104 96.6201 17.5594C96.8751 17.5084 97.1131 17.4404 97.3341 17.3384C97.5551 17.2364 97.7676 17.1174 97.9716 16.9644C98.1756 16.8199 98.3966 16.6499 98.6176 16.4544L98.8046 17.0154C98.8726 17.2194 98.9661 17.3469 99.0851 17.4064C99.2041 17.4744 99.3741 17.4999 99.5951 17.4999H100.666V11.9919C100.666 11.4989 100.59 11.0399 100.437 10.6149C100.284 10.1984 100.063 9.84137 99.7736 9.53537C99.4846 9.22937 99.1361 8.99137 98.7281 8.82137C98.3201 8.65137 97.8526 8.56637 97.3341 8.56637C96.6031 8.56637 95.9316 8.68537 95.3111 8.91487C94.6821 9.14437 94.1126 9.49287 93.6026 9.95187Z" fill="black"/>
<path d="M104.699 10.1814L104.571 9.30587C104.529 9.10187 104.461 8.94887 104.376 8.86387C104.282 8.77887 104.121 8.73637 103.883 8.73637H102.497V17.4999H104.843V12.1364C104.928 11.9324 105.03 11.7454 105.132 11.5754C105.234 11.4139 105.353 11.2779 105.489 11.1589C105.617 11.0484 105.761 10.9634 105.931 10.8954C106.101 10.8359 106.288 10.8019 106.509 10.8019C106.654 10.8019 106.815 10.8189 106.985 10.8444C107.155 10.8699 107.283 10.8784 107.376 10.8784C107.478 10.8784 107.555 10.8614 107.614 10.8189C107.674 10.7764 107.716 10.6999 107.75 10.5809L107.903 8.84687C107.648 8.65987 107.325 8.56637 106.934 8.56637C106.441 8.56637 106.016 8.71087 105.659 8.99987C105.294 9.28887 104.971 9.68837 104.699 10.1814Z" fill="black"/>
<path d="M111.932 17.6359C112.365 17.6359 112.79 17.5764 113.198 17.4404C113.606 17.3129 113.972 17.1174 114.295 16.8624L113.589 15.7404C113.538 15.6724 113.496 15.6214 113.453 15.5874C113.402 15.5534 113.351 15.5364 113.283 15.5364C113.232 15.5364 113.181 15.5534 113.13 15.5789L112.977 15.6639C112.918 15.6979 112.85 15.7234 112.773 15.7489C112.688 15.7744 112.595 15.7829 112.484 15.7829C112.263 15.7829 112.102 15.7149 111.983 15.5704C111.864 15.4344 111.813 15.2389 111.813 14.9924V10.4194H114.074V8.78737H111.813V6.11837H110.589C110.3 6.11837 110.13 6.24587 110.07 6.50087L109.594 8.77037L108.192 9.02537V9.94337C108.192 10.1049 108.234 10.2239 108.319 10.3004C108.404 10.3854 108.515 10.4194 108.642 10.4194H109.467V15.1454C109.467 15.5364 109.518 15.8764 109.628 16.1824C109.73 16.4884 109.892 16.7519 110.104 16.9644C110.308 17.1854 110.572 17.3469 110.878 17.4659C111.184 17.5849 111.532 17.6359 111.932 17.6359Z" fill="black"/>
<path d="M119.912 13.8364V15.1964C119.623 15.4939 119.342 15.7149 119.053 15.8509C118.764 15.9869 118.433 16.0549 118.042 16.0549C117.702 16.0549 117.43 15.9869 117.243 15.8424C117.056 15.7064 116.962 15.4599 116.962 15.1199C116.962 14.9499 117.005 14.7969 117.098 14.6524C117.192 14.5079 117.353 14.3804 117.574 14.2614C117.795 14.1509 118.101 14.0574 118.484 13.9894C118.858 13.9214 119.334 13.8704 119.912 13.8364ZM115.135 9.95187L115.551 10.6999C115.619 10.8189 115.713 10.9124 115.823 10.9974C115.934 11.0824 116.07 11.1164 116.24 11.1164C116.427 11.1164 116.588 11.0824 116.733 11.0059L117.183 10.7594C117.345 10.6744 117.532 10.5894 117.753 10.5129C117.965 10.4364 118.237 10.3939 118.56 10.3939C118.994 10.3939 119.325 10.5299 119.563 10.7849C119.793 11.0399 119.912 11.4479 119.912 11.9919V12.4424C118.909 12.4679 118.067 12.5699 117.404 12.7399C116.741 12.9099 116.206 13.1309 115.806 13.3944C115.407 13.6579 115.126 13.9469 114.965 14.2699C114.795 14.5929 114.718 14.9159 114.718 15.2389C114.718 15.6299 114.778 15.9784 114.905 16.2759C115.024 16.5819 115.203 16.8284 115.432 17.0324C115.662 17.2364 115.934 17.3809 116.257 17.4829C116.571 17.5849 116.92 17.6359 117.311 17.6359C117.617 17.6359 117.897 17.6104 118.152 17.5594C118.407 17.5084 118.645 17.4404 118.866 17.3384C119.087 17.2364 119.3 17.1174 119.504 16.9644C119.708 16.8199 119.929 16.6499 120.15 16.4544L120.337 17.0154C120.405 17.2194 120.498 17.3469 120.617 17.4064C120.736 17.4744 120.906 17.4999 121.127 17.4999H122.198V11.9919C122.198 11.4989 122.122 11.0399 121.969 10.6149C121.816 10.1984 121.595 9.84137 121.306 9.53537C121.017 9.22937 120.668 8.99137 120.26 8.82137C119.852 8.65137 119.385 8.56637 118.866 8.56637C118.135 8.56637 117.464 8.68537 116.843 8.91487C116.214 9.14437 115.645 9.49287 115.135 9.95187Z" fill="black"/>
</svg>
