<svg width="126" height="25" viewBox="0 0 126 25" fill="none" xmlns="http://www.w3.org/2000/svg">
<path d="M16.2002 14.4819C15.9075 14.8098 15.6121 15.1354 15.3275 15.4703C14.1625 16.8465 13.085 18.2794 12.2193 19.7641C11.3536 18.2788 10.2761 16.8465 9.11112 15.4703C8.82707 15.1354 8.53163 14.8098 8.23835 14.4819H4.90967C5.71237 15.3241 6.50694 16.1848 7.25099 17.0625C8.91669 19.0223 10.3293 21.0519 11.0842 22.967C11.2694 23.435 11.718 23.7405 12.2198 23.7405C12.7217 23.7405 13.1697 23.435 13.3555 22.967C14.1104 21.0519 15.523 19.0228 17.1887 17.0625C17.9327 16.1854 18.7273 15.3241 19.53 14.4819H16.2002Z" fill="black"/>
<path d="M17.9225 0.368164C15.9211 0.368164 14.1321 1.2758 12.9368 2.70216C13.7259 3.91307 14.1886 5.35798 14.1886 6.91362C14.1886 8.46925 13.7259 9.91416 12.9368 11.1251C14.1321 12.5514 15.9211 13.4591 17.9225 13.4591C21.5232 13.4591 24.4397 10.5289 24.4397 6.91362C24.4397 3.29835 21.5232 0.368164 17.9225 0.368164Z" fill="#83d0ac"/>
<path d="M6.51724 13.4591C10.1166 13.4591 13.0345 10.5286 13.0345 6.91362C13.0345 3.29866 10.1166 0.368164 6.51724 0.368164C2.91787 0.368164 0 3.29866 0 6.91362C0 10.5286 2.91787 13.4591 6.51724 13.4591Z" fill="#1964E6"/>
<path d="M35.973 7.52937L36.602 6.33087C36.16 5.92287 35.6245 5.60837 34.9955 5.37887C34.3665 5.14937 33.678 5.03037 32.9385 5.03037C32.2755 5.03037 31.6805 5.13237 31.1705 5.33637C30.6605 5.54037 30.227 5.81237 29.8785 6.14387C29.5215 6.48387 29.258 6.86637 29.0795 7.29137C28.8925 7.72487 28.8075 8.16687 28.8075 8.62587C28.8075 9.20387 28.884 9.67987 29.0455 10.0624C29.207 10.4534 29.4195 10.7764 29.683 11.0314C29.938 11.2949 30.2355 11.5074 30.5755 11.6604C30.907 11.8219 31.247 11.9579 31.604 12.0684C31.9525 12.1874 32.2925 12.2894 32.6325 12.3829C32.964 12.4764 33.2615 12.5869 33.525 12.7144C33.78 12.8504 33.9925 13.0119 34.154 13.1989C34.3155 13.3944 34.4005 13.6494 34.4005 13.9554C34.4005 14.4994 34.2305 14.8989 33.9075 15.1709C33.5845 15.4429 33.1255 15.5789 32.5305 15.5789C32.1225 15.5789 31.7655 15.5279 31.4765 15.4089C31.1875 15.2984 30.9325 15.1709 30.7115 15.0349L30.125 14.6609C29.955 14.5504 29.7935 14.4909 29.6405 14.4909C29.5215 14.4909 29.4195 14.5249 29.3175 14.5844C29.2155 14.6439 29.1305 14.7204 29.071 14.8054L28.323 16.0124C28.561 16.2589 28.833 16.4799 29.156 16.6754C29.4705 16.8794 29.8105 17.0494 30.1675 17.1854C30.5245 17.3299 30.8985 17.4404 31.2895 17.5169C31.6805 17.6019 32.0715 17.6359 32.4625 17.6359C33.1425 17.6359 33.7545 17.5339 34.2985 17.3214C34.8425 17.1174 35.293 16.8284 35.667 16.4629C36.0325 16.0974 36.313 15.6724 36.5085 15.1794C36.704 14.6864 36.806 14.1594 36.806 13.5984C36.806 13.0884 36.721 12.6464 36.5595 12.2894C36.398 11.9324 36.1855 11.6264 35.922 11.3714C35.6585 11.1249 35.361 10.9209 35.0295 10.7509C34.6895 10.5894 34.3495 10.4449 34.001 10.3259C33.644 10.2069 33.304 10.0879 32.9725 9.98587C32.6325 9.88387 32.335 9.77337 32.0715 9.63737C31.808 9.50987 31.5955 9.35687 31.434 9.17837C31.2725 8.99987 31.196 8.77037 31.196 8.49837C31.196 8.07337 31.3405 7.73337 31.638 7.46987C31.927 7.20637 32.369 7.07037 32.964 7.07037C33.2955 7.07037 33.5845 7.12137 33.8395 7.20637C34.086 7.29137 34.307 7.38487 34.5025 7.48687C34.6895 7.58887 34.8595 7.69087 35.004 7.77587C35.1485 7.86087 35.2845 7.90337 35.412 7.90337C35.5395 7.90337 35.6415 7.87787 35.7265 7.81837C35.8115 7.75887 35.888 7.66537 35.973 7.52937Z" fill="black"/>
<path d="M43.8747 12.0854H40.2197C40.3132 11.4989 40.5172 11.0484 40.8402 10.7254C41.1547 10.4109 41.5967 10.2494 42.1577 10.2494C42.4552 10.2494 42.7102 10.3004 42.9312 10.4024C43.1437 10.5044 43.3222 10.6319 43.4667 10.8019C43.6027 10.9719 43.7047 11.1674 43.7727 11.3884C43.8407 11.6094 43.8747 11.8474 43.8747 12.0854ZM40.1857 13.4794H45.4387C45.5407 13.4794 45.6342 13.4709 45.7022 13.4454C45.7702 13.4199 45.8212 13.3689 45.8637 13.3009C45.8977 13.2329 45.9317 13.1479 45.9487 13.0289C45.9657 12.9184 45.9742 12.7739 45.9742 12.5954C45.9742 11.9664 45.8722 11.3969 45.6852 10.9039C45.4982 10.4109 45.2262 9.98587 44.8862 9.64587C44.5462 9.30587 44.1382 9.05087 43.6622 8.87237C43.1862 8.69387 42.6762 8.60037 42.1152 8.60037C41.4522 8.60037 40.8572 8.71937 40.3302 8.94887C39.8032 9.17837 39.3527 9.48437 38.9872 9.87537C38.6132 10.2664 38.3327 10.7254 38.1372 11.2524C37.9417 11.7794 37.8482 12.3404 37.8482 12.9354C37.8482 13.7089 37.9587 14.3889 38.1882 14.9669C38.4092 15.5534 38.7237 16.0464 39.1147 16.4374C39.5057 16.8284 39.9732 17.1259 40.5002 17.3299C41.0272 17.5339 41.6052 17.6274 42.2172 17.6274C42.5232 17.6274 42.8377 17.6104 43.1692 17.5679C43.4922 17.5254 43.8237 17.4489 44.1467 17.3384C44.4697 17.2279 44.7757 17.0749 45.0817 16.8879C45.3792 16.7009 45.6512 16.4544 45.9062 16.1654L45.2262 15.3154C45.1242 15.1794 44.9797 15.1114 44.8012 15.1114C44.6567 15.1114 44.5122 15.1539 44.3677 15.2304L43.8832 15.4854C43.7047 15.5789 43.5007 15.6639 43.2627 15.7404C43.0247 15.8169 42.7527 15.8509 42.4297 15.8509C41.7922 15.8509 41.2737 15.6639 40.8827 15.2814C40.4917 14.9074 40.2537 14.3039 40.1857 13.4794Z" fill="black"/>
<path d="M49.6314 10.1814L49.5039 9.30587C49.4614 9.10187 49.3934 8.94887 49.3084 8.86387C49.2149 8.77887 49.0534 8.73637 48.8154 8.73637H47.4299V17.4999H49.7759V12.1364C49.8609 11.9324 49.9629 11.7454 50.0649 11.5754C50.1669 11.4139 50.2859 11.2779 50.4219 11.1589C50.5494 11.0484 50.6939 10.9634 50.8639 10.8954C51.0339 10.8359 51.2209 10.8019 51.4419 10.8019C51.5864 10.8019 51.7479 10.8189 51.9179 10.8444C52.0879 10.8699 52.2154 10.8784 52.3089 10.8784C52.4109 10.8784 52.4874 10.8614 52.5469 10.8189C52.6064 10.7764 52.6489 10.6999 52.6829 10.5809L52.8359 8.84687C52.5809 8.65987 52.2579 8.56637 51.8669 8.56637C51.3739 8.56637 50.9489 8.71087 50.5919 8.99987C50.2264 9.28887 49.9034 9.68837 49.6314 10.1814Z" fill="black"/>
<path d="M61.9046 8.73637H60.0516C59.8986 8.73637 59.7626 8.77887 59.6521 8.85537C59.5331 8.94037 59.4566 9.04237 59.4226 9.16137L57.9011 13.4964C57.7991 13.7939 57.7056 14.0829 57.6291 14.3634C57.5526 14.6439 57.4846 14.9244 57.4251 15.2049C57.3656 14.9244 57.2976 14.6439 57.2296 14.3634C57.1531 14.0829 57.0681 13.7939 56.9746 13.4964L55.5041 9.16137C55.4531 9.04237 55.3766 8.94037 55.2661 8.85537C55.1471 8.77887 55.0111 8.73637 54.8411 8.73637H52.8946L56.3371 17.4999H58.4621L61.9046 8.73637Z" fill="black"/>
<path d="M65.3166 8.73637H62.9706V17.4999H65.3166V8.73637ZM65.5971 6.24587C65.5971 6.05037 65.5546 5.86337 65.4781 5.69337C65.3931 5.52337 65.2911 5.37037 65.1551 5.23437C65.0191 5.10687 64.8661 5.00487 64.6876 4.92837C64.5091 4.86037 64.3221 4.81787 64.1181 4.81787C63.9226 4.81787 63.7356 4.86037 63.5656 4.92837C63.3956 5.00487 63.2426 5.10687 63.1151 5.23437C62.9791 5.37037 62.8771 5.52337 62.8006 5.69337C62.7241 5.86337 62.6901 6.05037 62.6901 6.24587C62.6901 6.44987 62.7241 6.62837 62.8006 6.79837C62.8771 6.96837 62.9791 7.12137 63.1151 7.24887C63.2426 7.38487 63.3956 7.48687 63.5656 7.55487C63.7356 7.63137 63.9226 7.66537 64.1181 7.66537C64.3221 7.66537 64.5091 7.63137 64.6876 7.55487C64.8661 7.48687 65.0191 7.38487 65.1551 7.24887C65.2911 7.12137 65.3931 6.96837 65.4781 6.79837C65.5546 6.62837 65.5971 6.44987 65.5971 6.24587Z" fill="black"/>
<path d="M73.6766 10.6914L74.2886 9.85837C73.8806 9.45037 73.4301 9.14437 72.9286 8.92337C72.4186 8.71087 71.8321 8.60037 71.1691 8.60037C70.4636 8.60037 69.8431 8.71937 69.3076 8.94887C68.7721 9.17837 68.3216 9.49287 67.9646 9.89237C67.5991 10.3004 67.3271 10.7764 67.1401 11.3204C66.9531 11.8729 66.8596 12.4679 66.8596 13.1054C66.8596 13.8279 66.9616 14.4654 67.1741 15.0264C67.3866 15.5874 67.6756 16.0634 68.0411 16.4459C68.3981 16.8369 68.8231 17.1259 69.3076 17.3299C69.7836 17.5339 70.2936 17.6274 70.8376 17.6274C71.1436 17.6274 71.4496 17.6104 71.7641 17.5679C72.0701 17.5254 72.3761 17.4489 72.6821 17.3384C72.9881 17.2279 73.2771 17.0749 73.5661 16.8879C73.8466 16.7009 74.1101 16.4544 74.3651 16.1654L73.6936 15.3154C73.5916 15.1794 73.4471 15.1114 73.2686 15.1114C73.1666 15.1114 73.0816 15.1369 73.0051 15.1709C72.9286 15.2049 72.8521 15.2559 72.7756 15.3069L72.5376 15.4939C72.4526 15.5619 72.3506 15.6299 72.2316 15.6809C72.1126 15.7404 71.9766 15.7914 71.8236 15.8254C71.6706 15.8594 71.4836 15.8764 71.2711 15.8764C70.6421 15.8764 70.1491 15.6384 69.7921 15.1624C69.4351 14.6864 69.2566 14.0064 69.2566 13.1054C69.2566 12.6804 69.2906 12.2979 69.3756 11.9579C69.4606 11.6179 69.5881 11.3289 69.7581 11.0909C69.9281 10.8529 70.1406 10.6744 70.3956 10.5469C70.6506 10.4194 70.9566 10.3514 71.3136 10.3514C71.5856 10.3514 71.8236 10.3854 72.0106 10.4534C72.1976 10.5214 72.3591 10.5894 72.4951 10.6659C72.6311 10.7424 72.7501 10.8104 72.8521 10.8784C72.9541 10.9464 73.0646 10.9719 73.1836 10.9719C73.3026 10.9719 73.4046 10.9549 73.4726 10.9039C73.5406 10.8529 73.6086 10.7849 73.6766 10.6914Z" fill="black"/>
<path d="M80.9626 12.0854H77.3076C77.4011 11.4989 77.6051 11.0484 77.9281 10.7254C78.2426 10.4109 78.6846 10.2494 79.2456 10.2494C79.5431 10.2494 79.7981 10.3004 80.0191 10.4024C80.2316 10.5044 80.4101 10.6319 80.5546 10.8019C80.6906 10.9719 80.7926 11.1674 80.8606 11.3884C80.9286 11.6094 80.9626 11.8474 80.9626 12.0854ZM77.2736 13.4794H82.5266C82.6286 13.4794 82.7221 13.4709 82.7901 13.4454C82.8581 13.4199 82.9091 13.3689 82.9516 13.3009C82.9856 13.2329 83.0196 13.1479 83.0366 13.0289C83.0536 12.9184 83.0621 12.7739 83.0621 12.5954C83.0621 11.9664 82.9601 11.3969 82.7731 10.9039C82.5861 10.4109 82.3141 9.98587 81.9741 9.64587C81.6341 9.30587 81.2261 9.05087 80.7501 8.87237C80.2741 8.69387 79.7641 8.60037 79.2031 8.60037C78.5401 8.60037 77.9451 8.71937 77.4181 8.94887C76.8911 9.17837 76.4406 9.48437 76.0751 9.87537C75.7011 10.2664 75.4206 10.7254 75.2251 11.2524C75.0296 11.7794 74.9361 12.3404 74.9361 12.9354C74.9361 13.7089 75.0466 14.3889 75.2761 14.9669C75.4971 15.5534 75.8116 16.0464 76.2026 16.4374C76.5936 16.8284 77.0611 17.1259 77.5881 17.3299C78.1151 17.5339 78.6931 17.6274 79.3051 17.6274C79.6111 17.6274 79.9256 17.6104 80.2571 17.5679C80.5801 17.5254 80.9116 17.4489 81.2346 17.3384C81.5576 17.2279 81.8636 17.0749 82.1696 16.8879C82.4671 16.7009 82.7391 16.4544 82.9941 16.1654L82.3141 15.3154C82.2121 15.1794 82.0676 15.1114 81.8891 15.1114C81.7446 15.1114 81.6001 15.1539 81.4556 15.2304L80.9711 15.4854C80.7926 15.5789 80.5886 15.6639 80.3506 15.7404C80.1126 15.8169 79.8406 15.8509 79.5176 15.8509C78.8801 15.8509 78.3616 15.6639 77.9706 15.2814C77.5796 14.9074 77.3416 14.3039 77.2736 13.4794Z" fill="black"/>
<path d="M102.475 5.16637H100.537C100.418 5.16637 100.325 5.17487 100.24 5.17487C100.155 5.18337 100.087 5.20037 100.019 5.22587C99.9505 5.25137 99.891 5.29387 99.84 5.34487C99.7805 5.39587 99.7295 5.47237 99.6785 5.56587L96.253 12.1194C96.1425 12.3234 96.0405 12.5274 95.947 12.7399C95.8535 12.9609 95.7685 13.1819 95.6835 13.4029C95.5985 13.1819 95.505 12.9694 95.4115 12.7569C95.318 12.5529 95.216 12.3489 95.114 12.1449L91.663 5.56587C91.612 5.47237 91.5525 5.39587 91.5015 5.34487C91.4505 5.29387 91.391 5.25137 91.323 5.22587C91.255 5.20037 91.187 5.18337 91.102 5.17487C91.017 5.17487 90.915 5.16637 90.813 5.16637H88.875V17.4999H91.1275V9.92637C91.1275 9.77337 91.119 9.60337 91.1105 9.41637C91.0935 9.22937 91.085 9.04237 91.068 8.83837L94.6125 15.5534C94.6975 15.7404 94.825 15.8764 94.978 15.9699C95.131 16.0634 95.301 16.1059 95.505 16.1059H95.862C96.2615 16.1059 96.559 15.9274 96.7545 15.5534L100.282 8.86387C100.257 9.05087 100.24 9.23787 100.231 9.41637C100.223 9.60337 100.223 9.77337 100.223 9.92637V17.4999H102.475V5.16637Z" fill="black"/>
<path d="M109.104 13.8364V15.1964C108.815 15.4939 108.535 15.7149 108.246 15.8509C107.957 15.9869 107.625 16.0549 107.234 16.0549C106.894 16.0549 106.622 15.9869 106.435 15.8424C106.248 15.7064 106.155 15.4599 106.155 15.1199C106.155 14.9499 106.197 14.7969 106.291 14.6524C106.384 14.5079 106.546 14.3804 106.767 14.2614C106.988 14.1509 107.294 14.0574 107.676 13.9894C108.05 13.9214 108.526 13.8704 109.104 13.8364ZM104.327 9.95187L104.744 10.6999C104.812 10.8189 104.905 10.9124 105.016 10.9974C105.126 11.0824 105.262 11.1164 105.432 11.1164C105.619 11.1164 105.781 11.0824 105.925 11.0059L106.376 10.7594C106.537 10.6744 106.724 10.5894 106.945 10.5129C107.158 10.4364 107.43 10.3939 107.753 10.3939C108.186 10.3939 108.518 10.5299 108.756 10.7849C108.985 11.0399 109.104 11.4479 109.104 11.9919V12.4424C108.101 12.4679 107.26 12.5699 106.597 12.7399C105.934 12.9099 105.398 13.1309 104.999 13.3944C104.599 13.6579 104.319 13.9469 104.157 14.2699C103.987 14.5929 103.911 14.9159 103.911 15.2389C103.911 15.6299 103.97 15.9784 104.098 16.2759C104.217 16.5819 104.395 16.8284 104.625 17.0324C104.854 17.2364 105.126 17.3809 105.449 17.4829C105.764 17.5849 106.112 17.6359 106.503 17.6359C106.809 17.6359 107.09 17.6104 107.345 17.5594C107.6 17.5084 107.838 17.4404 108.059 17.3384C108.28 17.2364 108.492 17.1174 108.696 16.9644C108.9 16.8199 109.121 16.6499 109.342 16.4544L109.529 17.0154C109.597 17.2194 109.691 17.3469 109.81 17.4064C109.929 17.4744 110.099 17.4999 110.32 17.4999H111.391V11.9919C111.391 11.4989 111.314 11.0399 111.161 10.6149C111.008 10.1984 110.787 9.84137 110.498 9.53537C110.209 9.22937 109.861 8.99137 109.453 8.82137C109.045 8.65137 108.577 8.56637 108.059 8.56637C107.328 8.56637 106.656 8.68537 106.036 8.91487C105.407 9.14437 104.837 9.49287 104.327 9.95187Z" fill="black"/>
<path d="M115.568 15.1879V11.3459C115.814 11.0399 116.078 10.8019 116.358 10.6404C116.639 10.4789 116.987 10.3939 117.404 10.3939C117.642 10.3939 117.863 10.4449 118.067 10.5384C118.262 10.6319 118.432 10.7849 118.568 10.9889C118.704 11.2014 118.815 11.4734 118.891 11.8134C118.968 12.1534 119.01 12.5699 119.01 13.0544C119.01 13.5474 118.959 13.9724 118.874 14.3294C118.781 14.6864 118.653 14.9839 118.483 15.2134C118.313 15.4429 118.118 15.6129 117.888 15.7149C117.65 15.8254 117.395 15.8764 117.115 15.8764C116.817 15.8764 116.537 15.8254 116.282 15.7234C116.027 15.6214 115.789 15.4429 115.568 15.1879ZM115.432 9.88387L115.253 9.14437C115.151 8.87237 114.956 8.73637 114.667 8.73637H113.222V20.3304H115.568V16.8369C115.823 17.0834 116.12 17.2789 116.452 17.4149C116.783 17.5594 117.191 17.6274 117.667 17.6274C118.228 17.6274 118.747 17.5169 119.206 17.2874C119.665 17.0579 120.064 16.7349 120.396 16.3269C120.719 15.9189 120.974 15.4429 121.152 14.8819C121.331 14.3209 121.424 13.7174 121.424 13.0544C121.424 12.3404 121.339 11.7114 121.186 11.1504C121.025 10.5979 120.804 10.1304 120.523 9.74787C120.234 9.36537 119.894 9.07637 119.503 8.87237C119.112 8.66837 118.679 8.56637 118.211 8.56637C117.905 8.56637 117.616 8.60037 117.361 8.66837C117.098 8.73637 116.851 8.82137 116.63 8.94037C116.401 9.05937 116.188 9.19537 115.993 9.35687C115.789 9.51837 115.602 9.69687 115.432 9.88387Z" fill="black"/>
</svg>
