<?xml version="1.0" encoding="UTF-8"?>
<svg width="126px" height="25px" viewBox="0 0 126 25" version="1.1" xmlns="http://www.w3.org/2000/svg" xmlns:xlink="http://www.w3.org/1999/xlink">
    <!-- Generator: Sketch 60.1 (88133) - https://sketch.com -->
    <title>Logo / Palvelukartta / On map_colour_new</title>
    <desc>Created with Sketch.</desc>
    <g id="Logo-/-Palvelukartta-/-On-map_colour_new" stroke="none" stroke-width="1" fill="none" fill-rule="evenodd">
        <g id="service-map-logo-fi" fill-rule="nonzero">
            <g id="Group">
                <path d="M16.2002328,14.4818182 C15.9075,14.8096364 15.6120517,15.1352727 15.3274655,15.4701818 C14.1625086,16.8463636 13.0849914,18.2792727 12.2192845,19.764 C11.3535776,18.2787273 10.2760603,16.8463636 9.11110345,15.4701818 C8.82706034,15.1352727 8.53161207,14.8096364 8.23833621,14.4818182 L4.90965517,14.4818182 C5.71236207,15.324 6.50692241,16.1847273 7.25097414,17.0623636 C8.91667241,19.0221818 10.3292845,21.0518182 11.0841983,22.9669091 C11.2693966,23.4349091 11.718,23.7403636 12.2198276,23.7403636 C12.7216552,23.7403636 13.1697155,23.4349091 13.3554569,22.9669091 C14.1103707,21.0518182 15.5229828,19.0227273 17.188681,17.0623636 C17.9327328,16.1852727 18.7272931,15.324 19.53,14.4818182 L16.2002328,14.4818182 L16.2002328,14.4818182 Z" id="Path" fill="#000000"></path>
                <path d="M17.9224138,0.368181818 C15.9210776,0.368181818 14.1320948,1.27581818 12.9367241,2.70218182 C13.7258534,3.91309091 14.1885776,5.358 14.1885776,6.91363636 C14.1885776,8.46927273 13.7258534,9.91418182 12.9367241,11.1250909 C14.1320948,12.5514545 15.9210776,13.4590909 17.9224138,13.4590909 C21.5231897,13.4590909 24.4396552,10.5289091 24.4396552,6.91363636 C24.4396552,3.29836364 21.5231897,0.368181818 17.9224138,0.368181818 Z" id="Path" fill="#FFAE00"></path>
                <ellipse id="Oval" fill="#1964E6" cx="6.51724138" cy="6.91363636" rx="6.51724138" ry="6.54545455"></ellipse>
            </g>
            <g id="Group" transform="translate(28.784483, 4.363636)" fill="#000000">
                <path d="M16.8552155,13.1934545 L15.8912069,13.1934545 C15.6880862,13.1934545 15.5289569,13.1629091 15.4127328,13.1018182 C15.2970517,13.0407273 15.2101552,12.9169091 15.1525862,12.7309091 L14.9608707,12.0938182 C14.7349397,12.2972727 14.5138966,12.4761818 14.2961121,12.63 C14.0788707,12.7843636 13.854569,12.9141818 13.6226638,13.0183636 C13.3907586,13.1230909 13.1447328,13.2016364 12.8845862,13.2545455 C12.6238966,13.3069091 12.3338793,13.3330909 12.0150776,13.3330909 C11.6387069,13.3330909 11.2911207,13.2818182 10.972319,13.1803636 C10.6535172,13.0778182 10.3797931,12.9245455 10.1511466,12.7205455 C9.9219569,12.516 9.74381897,12.2618182 9.61673276,11.9585455 C9.48964655,11.6552727 9.42556034,11.3023636 9.42556034,10.8992727 C9.42556034,10.5610909 9.5135431,10.2267273 9.69059483,9.89672727 C9.86710345,9.56727273 10.1609224,9.26945455 10.5725948,9.00327273 C10.9837241,8.73818182 11.5311724,8.51727273 12.2143966,8.34218182 C12.8981638,8.16763636 13.7464914,8.07981818 14.7604655,8.07981818 L14.7604655,7.55236364 C14.7604655,6.94854545 14.6344655,6.50127273 14.3824655,6.21109091 C14.1304655,5.92090909 13.7638707,5.77581818 13.2832241,5.77581818 C12.9356379,5.77581818 12.6461638,5.81618182 12.4142586,5.898 C12.1823534,5.97981818 11.9808621,6.07090909 11.8103276,6.17290909 C11.6397931,6.27490909 11.48175,6.366 11.3367414,6.44781818 C11.1917328,6.52963636 11.0326034,6.57054545 10.8588103,6.57054545 C10.7138017,6.57054545 10.589431,6.53290909 10.4851552,6.45709091 C10.3808793,6.38127273 10.2966983,6.288 10.2331552,6.17727273 L9.84157759,5.48781818 C10.8675,4.54472727 12.1041466,4.074 13.5520603,4.074 C14.0734397,4.074 14.5383362,4.15963636 14.94675,4.33145455 C15.3551638,4.50327273 15.7011207,4.74163636 15.9851638,5.04709091 C16.2686638,5.35254545 16.484819,5.71745455 16.632,6.14236364 C16.7797241,6.56672727 16.8535862,7.03254545 16.8535862,7.53872727 L16.8535862,13.1934545 L16.8552155,13.1934545 Z M12.684181,11.85 C12.9041379,11.85 13.1067155,11.8298182 13.2924569,11.79 C13.4776552,11.7501818 13.6530776,11.6896364 13.818181,11.6094545 C13.9832845,11.5298182 14.1429569,11.4305455 14.2961121,11.3132727 C14.4492672,11.196 14.6045948,11.0569091 14.7610086,10.8965455 L14.7610086,9.39763636 C14.1353534,9.39763636 13.6123448,9.43690909 13.1919828,9.51654545 C12.7721638,9.59563636 12.4343534,9.69654545 12.180181,9.81981818 C11.9249224,9.94309091 11.744069,10.0865455 11.6370776,10.2507273 C11.5295431,10.4149091 11.4757759,10.5932727 11.4757759,10.7863636 C11.4757759,11.1670909 11.5876552,11.4398182 11.8103276,11.604 C12.0340862,11.7676364 12.3246466,11.85 12.684181,11.85 Z" id="Shape"></path>
                <path d="M26.9580259,13.1934545 L25.0115431,13.1934545 L21.4667069,4.23927273 L23.2475431,4.23927273 C23.4039569,4.23927273 23.535931,4.27690909 23.6434655,4.35272727 C23.751,4.42854545 23.824319,4.524 23.8650517,4.64072727 L25.5856034,9.42327273 C25.6839052,9.70254545 25.7664569,9.97636364 25.8332586,10.2436364 C25.8995172,10.5114545 25.9587155,10.7787273 26.0108534,11.0470909 C26.0635345,10.7792727 26.1227328,10.512 26.1889914,10.2436364 C26.2557931,9.97636364 26.3410603,9.70254545 26.4458793,9.42327273 L28.2098793,4.64072727 C28.250069,4.524 28.3228448,4.428 28.4265776,4.35272727 C28.5308534,4.27690909 28.6557672,4.23927273 28.8002328,4.23927273 L30.4947155,4.23927273 L26.9580259,13.1934545 Z" id="Path"></path>
                <path d="M34.7732845,4.10018182 C35.3348534,4.10018182 35.8518879,4.19018182 36.3238448,4.37072727 C36.7958017,4.55072727 37.2031293,4.81418182 37.5447414,5.16054545 C37.8868966,5.50690909 38.1530172,5.93127273 38.3447328,6.43472727 C38.5359052,6.93763636 38.6309483,7.51254545 38.6309483,8.15781818 C38.6309483,8.32090909 38.6233448,8.45618182 38.6092241,8.56363636 C38.5951034,8.67163636 38.5690345,8.75618182 38.5310172,8.81672727 C38.4935431,8.87781818 38.4424914,8.92145455 38.3789483,8.94763636 C38.3154052,8.97381818 38.2339397,8.98690909 38.1356379,8.98690909 L32.6263966,8.98690909 C32.6899397,9.90654545 32.9359655,10.5812727 33.3650172,11.0116364 C33.7935259,11.442 34.361069,11.6574545 35.0681897,11.6574545 C35.4157759,11.6574545 35.7150259,11.6170909 35.967569,11.5352727 C36.219569,11.454 36.4395259,11.364 36.6279828,11.2647273 C36.8164397,11.166 36.981,11.0754545 37.1232931,10.9941818 C37.2650431,10.9129091 37.4024483,10.872 37.5360517,10.872 C37.6229483,10.872 37.6984397,10.8894545 37.7619828,10.9243636 C37.8255259,10.9592727 37.8809224,11.0089091 37.9270862,11.0727273 L38.5527414,11.8576364 C38.3148621,12.1374545 38.0487414,12.3709091 37.75275,12.5601818 C37.4573017,12.7494545 37.1493621,12.9005455 36.8278448,13.014 C36.5057845,13.1274545 36.1788362,13.2070909 35.8453707,13.254 C35.5124483,13.3003636 35.1893017,13.3238182 34.8764741,13.3238182 C34.25625,13.3238182 33.6805603,13.2207273 33.1472328,13.014 C32.6144483,12.8078182 32.1506379,12.5023636 31.7568879,12.0976364 C31.3625948,11.6934545 31.0524828,11.1932727 30.8265517,10.5965455 C30.6006207,9.99981818 30.4876552,9.30927273 30.4876552,8.52381818 C30.4876552,7.91290909 30.5865,7.338 30.7831034,6.80018182 C30.98025,6.26236364 31.2626638,5.79327273 31.6308879,5.39509091 C31.998569,4.99690909 32.4477155,4.68054545 32.9772414,4.44818182 C33.5089397,4.21581818 34.1074397,4.10018182 34.7732845,4.10018182 Z M34.8167328,5.64490909 C34.1910776,5.64490909 33.7011983,5.82218182 33.348181,6.17727273 C32.9946207,6.53236364 32.7686897,7.03581818 32.6703879,7.68763636 L36.7023879,7.68763636 C36.7023879,7.40781818 36.6649138,7.14490909 36.5894224,6.89781818 C36.513931,6.65072727 36.39825,6.43363636 36.2418362,6.24763636 C36.0854224,6.06163636 35.8882759,5.91490909 35.6509397,5.80690909 C35.4136034,5.69836364 35.1349914,5.64490909 34.8167328,5.64490909 Z" id="Shape"></path>
                <polygon id="Path" points="20.52225 0.224727273 20.52225 13.1934545 18.3764483 13.1934545 18.3764483 0.224727273"></polygon>
                <path d="M46.1806293,4.23927273 L46.1806293,9.92945455 C46.1806293,10.4765455 46.3066293,10.8998182 46.5586293,11.1992727 C46.8106293,11.4992727 47.1886293,11.6487273 47.6926293,11.6487273 C48.063569,11.6487273 48.4106121,11.5658182 48.7353879,11.4 C49.0601638,11.2341818 49.3670172,11.0056364 49.6564914,10.7149091 L49.6564914,4.23927273 L51.8028362,4.23927273 L51.8028362,13.1934545 L50.4906983,13.1934545 C50.2120862,13.1934545 50.0296034,13.0625455 49.9427069,12.8007273 L49.7955259,12.0850909 C49.6097845,12.2716364 49.4191552,12.4412727 49.2220086,12.5961818 C49.0248621,12.75 48.814681,12.8809091 48.5920086,12.9889091 C48.3687931,13.0963636 48.1281983,13.1809091 47.8707672,13.242 C47.6133362,13.3030909 47.3363534,13.3336364 47.0409052,13.3336364 C46.5542845,13.3336364 46.1241466,13.2507273 45.7504914,13.0849091 C45.3768362,12.9190909 45.0623793,12.6850909 44.8082069,12.3823636 C44.5529483,12.0796364 44.3606897,11.7207273 44.2303448,11.3045455 C44.1,10.8883636 44.0348276,10.4301818 44.0348276,9.92945455 L44.0348276,4.23927273 L46.1806293,4.23927273 Z" id="Path"></path>
                <path d="M55.8174569,0.224727273 L55.8174569,7.65163636 L56.217181,7.65163636 C56.3616466,7.65163636 56.4746121,7.63145455 56.5560776,7.59054545 C56.6364569,7.55018182 56.7238966,7.47436364 56.8162241,7.36363636 L59.0320862,4.61509091 C59.130931,4.49836364 59.2346638,4.40672727 59.3449138,4.33963636 C59.4546207,4.27309091 59.5996293,4.23927273 59.7793966,4.23927273 L61.7432586,4.23927273 L58.9712586,7.56436364 C58.8724138,7.68709091 58.7713966,7.79890909 58.6671207,7.90036364 C58.5628448,8.00236364 58.4498793,8.09127273 58.3282241,8.16654545 C58.4498793,8.25381818 58.5568707,8.35581818 58.6497414,8.472 C58.7426121,8.58872727 58.8354828,8.71363636 58.9278103,8.84727273 L61.9002155,13.1934545 L59.9624224,13.1934545 C59.7940603,13.1934545 59.6528534,13.164 59.5366293,13.1061818 C59.4209483,13.0483636 59.3166724,12.9490909 59.2238017,12.8094545 L56.9558017,9.41454545 C56.8689052,9.28090909 56.7825517,9.19363636 56.6956552,9.15272727 C56.6087586,9.11236364 56.4784138,9.09218182 56.3040776,9.09218182 L55.8174569,9.09218182 L55.8174569,13.194 L53.6711121,13.194 L53.6711121,0.224727273 L55.8174569,0.224727273 Z" id="Path"></path>
                <path d="M69.6497586,13.1934545 L68.6852069,13.1934545 C68.4826293,13.1934545 68.3229569,13.1629091 68.2072759,13.1018182 C68.0910517,13.0407273 68.0041552,12.9169091 67.9465862,12.7309091 L67.7554138,12.0938182 C67.5294828,12.2972727 67.3078966,12.4761818 67.0906552,12.63 C66.8734138,12.7843636 66.6491121,12.9141818 66.4172069,13.0183636 C66.1853017,13.1230909 65.9392759,13.2016364 65.6785862,13.2545455 C65.4184397,13.3069091 65.1278793,13.3330909 64.8096207,13.3330909 C64.43325,13.3330909 64.0851207,13.2818182 63.7668621,13.1803636 C63.4480603,13.0778182 63.1743362,12.9245455 62.9451466,12.7205455 C62.7165,12.516 62.5383621,12.2618182 62.4112759,11.9585455 C62.2836466,11.6552727 62.2195603,11.3023636 62.2195603,10.8992727 C62.2195603,10.5610909 62.3080862,10.2267273 62.4845948,9.89672727 C62.6611034,9.56672727 62.9549224,9.26945455 63.3665948,9.00327273 C63.7777241,8.73818182 64.3257155,8.51727273 65.0089397,8.34218182 C65.6921638,8.16763636 66.5410345,8.07981818 67.5550086,8.07981818 L67.5550086,7.55236364 C67.5550086,6.94854545 67.4295517,6.50127273 67.1770086,6.21109091 C66.9250086,5.92090909 66.5584138,5.77581818 66.0783103,5.77581818 C65.730181,5.77581818 65.4407069,5.81618182 65.2088017,5.898 C64.9768966,5.97981818 64.7759483,6.07090909 64.6054138,6.17290909 C64.4343362,6.27490909 64.2768362,6.366 64.1318276,6.44781818 C63.986819,6.52963636 63.8271466,6.57054545 63.6538966,6.57054545 C63.5088879,6.57054545 63.3845172,6.53290909 63.2802414,6.45709091 C63.1765086,6.38127273 63.0917845,6.288 63.0282414,6.17727273 L62.6372069,5.48781818 C63.6625862,4.54472727 64.8992328,4.074 66.3476897,4.074 C66.869069,4.074 67.3334224,4.15963636 67.7418362,4.33145455 C68.15025,4.50327273 68.49675,4.74163636 68.78025,5.04709091 C69.06375,5.35254545 69.2799052,5.71745455 69.4276293,6.14236364 C69.5748103,6.56672727 69.6492155,7.03254545 69.6492155,7.53872727 L69.6492155,13.1934545 L69.6497586,13.1934545 Z M65.478181,11.85 C65.6981379,11.85 65.9012586,11.8298182 66.0864569,11.79 C66.2721983,11.7501818 66.4470776,11.6896364 66.612181,11.6094545 C66.7778276,11.5298182 66.9369569,11.4305455 67.0906552,11.3132727 C67.2438103,11.196 67.3985948,11.0569091 67.5550086,10.8965455 L67.5550086,9.39763636 C66.9293534,9.39763636 66.4068879,9.43690909 65.9865259,9.51654545 C65.5667069,9.59563636 65.2288966,9.69654545 64.974181,9.81981818 C64.7194655,9.94309091 64.538069,10.0865455 64.4310776,10.2507273 C64.3240862,10.4149091 64.270319,10.5932727 64.270319,10.7863636 C64.270319,11.1670909 64.3816552,11.4398182 64.6048707,11.604 C64.8280862,11.7676364 65.1191897,11.85 65.478181,11.85 Z" id="Shape"></path>
                <path d="M86.8324655,13.3330909 C86.0618017,13.3330909 85.4681897,13.1138182 85.0510862,12.6741818 C84.6339828,12.2350909 84.425431,11.6285455 84.425431,10.8545455 L84.425431,5.85381818 L83.52225,5.85381818 C83.4060259,5.85381818 83.3066379,5.81618182 83.2219138,5.74036364 C83.1382759,5.66454545 83.0964569,5.55109091 83.0964569,5.4 L83.0964569,4.54472727 L84.53025,4.30909091 L84.9821121,1.866 C85.0054655,1.74927273 85.0592328,1.65927273 85.1428707,1.59545455 C85.2265086,1.53163636 85.3329569,1.49890909 85.4600431,1.49890909 L86.572319,1.49890909 L86.572319,4.31781818 L88.9185259,4.31781818 L88.9185259,5.85381818 L86.572319,5.85381818 L86.572319,10.7061818 C86.572319,10.9854545 86.6418362,11.2030909 86.7814138,11.3601818 C86.9204483,11.5172727 87.1056466,11.5963636 87.3370086,11.5963636 C87.470069,11.5963636 87.5814052,11.5805455 87.6715603,11.5483636 C87.7611724,11.5161818 87.8399224,11.4829091 87.906181,11.4474545 C87.9729828,11.4130909 88.032181,11.3792727 88.084319,11.3470909 C88.1364569,11.3149091 88.1885948,11.2990909 88.2407328,11.2990909 C88.3042759,11.2990909 88.3564138,11.3149091 88.3971466,11.3470909 C88.4373362,11.3792727 88.4807845,11.4267273 88.5274914,11.4910909 L89.1705259,12.5383636 C88.8576983,12.8001818 88.4987069,12.9981818 88.0935517,13.1318182 C87.6867672,13.266 87.2669483,13.3330909 86.8324655,13.3330909 Z" id="Path"></path>
                <path d="M81.3753621,13.3330909 C80.6052414,13.3330909 80.0110862,13.1138182 79.5945259,12.6741818 C79.1768793,12.2350909 78.9688707,11.6285455 78.9688707,10.8545455 L78.9688707,5.85381818 L78.0651466,5.85381818 C77.9489224,5.85381818 77.8495345,5.81618182 77.7653534,5.74036364 C77.6811724,5.66454545 77.6393534,5.55109091 77.6393534,5.4 L77.6393534,4.54472727 L79.0736897,4.30909091 L79.5255517,1.866 C79.5483621,1.74927273 79.6021293,1.65927273 79.6863103,1.59545455 C79.7699483,1.53163636 79.8758534,1.49890909 80.0034828,1.49890909 L81.1157586,1.49890909 L81.1157586,4.31781818 L83.4619655,4.31781818 L83.4619655,5.85381818 L81.1157586,5.85381818 L81.1157586,10.7061818 C81.1157586,10.9854545 81.1852759,11.2030909 81.3243103,11.3601818 C81.4633448,11.5172727 81.6490862,11.5963636 81.8804483,11.5963636 C82.0135086,11.5963636 82.1248448,11.5805455 82.2144569,11.5483636 C82.3046121,11.5161818 82.382819,11.4829091 82.4496207,11.4474545 C82.5158793,11.4130909 82.5750776,11.3792727 82.6277586,11.3470909 C82.6798966,11.3149091 82.7314914,11.2990909 82.7841724,11.2990909 C82.8477155,11.2990909 82.8998534,11.3149091 82.9400431,11.3470909 C82.9807759,11.3792727 83.0242241,11.4267273 83.0703879,11.4910909 L83.7139655,12.5383636 C83.4011379,12.8001818 83.0416034,12.9981818 82.6364483,13.1318182 C82.2296638,13.266 81.8103879,13.3330909 81.3753621,13.3330909 Z" id="Path"></path>
                <path d="M71.39475,13.1934545 L71.39475,4.23927273 L72.65475,4.23927273 C72.8747069,4.23927273 73.0284052,4.28018182 73.1153017,4.36145455 C73.2021983,4.44272727 73.2603103,4.58290909 73.2890948,4.78090909 L73.4188966,5.86254545 C73.7376983,5.31 74.1108103,4.87418182 74.5398621,4.554 C74.9683707,4.23381818 75.4495603,4.074 75.9823448,4.074 C76.4228017,4.074 76.7872241,4.176 77.0772414,4.37945455 L76.7991724,5.994 C76.7817931,6.09872727 76.7437759,6.17290909 76.6862069,6.21654545 C76.6280948,6.26018182 76.5498879,6.282 76.4510431,6.282 C76.3646897,6.282 76.24575,6.26181818 76.0953103,6.22090909 C75.9448707,6.18054545 75.7444655,6.15981818 75.4957241,6.15981818 C75.0498362,6.15981818 74.6674914,6.28418182 74.3486897,6.53127273 C74.030431,6.77836364 73.7610517,7.14054545 73.5410948,7.61781818 L73.5410948,13.1945455 L71.39475,13.1945455 L71.39475,13.1934545 Z" id="Path"></path>
                <path d="M97.2057414,13.1934545 L96.2417328,13.1934545 C96.0386121,13.1934545 95.8794828,13.1629091 95.7632586,13.1018182 C95.6475776,13.0407273 95.560681,12.9169091 95.5031121,12.7309091 L95.3113966,12.0938182 C95.0854655,12.2972727 94.8644224,12.4761818 94.6466379,12.63 C94.4293966,12.7843636 94.2050948,12.9141818 93.9731897,13.0183636 C93.7412845,13.1230909 93.4952586,13.2016364 93.2351121,13.2545455 C92.9744224,13.3069091 92.6844052,13.3330909 92.3656034,13.3330909 C91.9892328,13.3330909 91.6416466,13.2818182 91.3228448,13.1803636 C91.0040431,13.0778182 90.730319,12.9245455 90.5016724,12.7205455 C90.2724828,12.516 90.0943448,12.2618182 89.9672586,11.9585455 C89.8401724,11.6552727 89.7760862,11.3023636 89.7760862,10.8992727 C89.7760862,10.5610909 89.864069,10.2267273 90.0411207,9.89672727 C90.2176293,9.56727273 90.5114483,9.26945455 90.9231207,9.00327273 C91.33425,8.73818182 91.8816983,8.51727273 92.5649224,8.34218182 C93.2486897,8.16763636 94.0970172,8.07981818 95.1109914,8.07981818 L95.1109914,7.55236364 C95.1109914,6.94854545 94.9849914,6.50127273 94.7329914,6.21109091 C94.4809914,5.92090909 94.1143966,5.77581818 93.63375,5.77581818 C93.2861638,5.77581818 92.9966897,5.81618182 92.7647845,5.898 C92.5328793,5.97981818 92.3313879,6.07090909 92.1608534,6.17290909 C91.990319,6.27490909 91.8322759,6.366 91.6872672,6.44781818 C91.5422586,6.52963636 91.3831293,6.57054545 91.2093362,6.57054545 C91.0643276,6.57054545 90.9399569,6.53290909 90.835681,6.45709091 C90.7314052,6.38127273 90.6472241,6.288 90.583681,6.17727273 L90.1921034,5.48781818 C91.2180259,4.54472727 92.4546724,4.074 93.9025862,4.074 C94.4239655,4.074 94.8888621,4.15963636 95.2972759,4.33145455 C95.7056897,4.50327273 96.0516466,4.74163636 96.3356897,5.04709091 C96.6191897,5.35254545 96.8353448,5.71745455 96.9825259,6.14236364 C97.13025,6.56672727 97.2041121,7.03254545 97.2041121,7.53872727 L97.2041121,13.1934545 L97.2057414,13.1934545 Z M93.03525,11.85 C93.2552069,11.85 93.4577845,11.8298182 93.6435259,11.79 C93.8287241,11.7501818 94.0041466,11.6896364 94.16925,11.6094545 C94.3343534,11.5298182 94.4940259,11.4305455 94.647181,11.3132727 C94.8003362,11.196 94.9556638,11.0569091 95.1120776,10.8965455 L95.1120776,9.39763636 C94.4864224,9.39763636 93.9634138,9.43690909 93.5430517,9.51654545 C93.1232328,9.59563636 92.7854224,9.69654545 92.53125,9.81981818 C92.2759914,9.94309091 92.0951379,10.0865455 91.9881466,10.2507273 C91.8806121,10.4149091 91.8268448,10.5932727 91.8268448,10.7863636 C91.8268448,11.1670909 91.9387241,11.4398182 92.1613966,11.604 C92.3846121,11.7676364 92.6757155,11.85 93.03525,11.85 Z" id="Shape"></path>
                <polygon id="Path" points="42.2165172 0.224727273 42.2165172 13.1934545 40.0701724 13.1934545 40.0701724 0.224727273"></polygon>
                <path d="M2.5352069,8.75181818 L2.5352069,13.194 L0.197146552,13.194 L0.197146552,0.574363636 L4.28997414,0.574363636 C5.13015517,0.574363636 5.85737069,0.673636364 6.47162069,0.871090909 C7.08532759,1.06854545 7.5920431,1.34509091 7.99231034,1.70018182 C8.39149138,2.05527273 8.68693966,2.48018182 8.87865517,2.97436364 C9.06982759,3.46909091 9.16541379,4.01018182 9.16541379,4.59818182 C9.16541379,5.20909091 9.06331034,5.76872727 8.86073276,6.27818182 C8.65815517,6.78763636 8.35347414,7.22454545 7.94831897,7.59109091 C7.54262069,7.95818182 7.03536207,8.24290909 6.42762931,8.44636364 C5.81935345,8.65036364 5.10625862,8.75236364 4.28943103,8.75236364 L2.5352069,8.75236364 L2.5352069,8.75181818 Z M2.5352069,6.91909091 L4.28997414,6.91909091 C4.71848276,6.91909091 5.09268103,6.86509091 5.41093966,6.75763636 C5.72919828,6.65018182 5.99260345,6.49581818 6.20169828,6.29454545 C6.41025,6.09436364 6.56666379,5.85 6.67039655,5.56145455 C6.77467241,5.274 6.82681034,4.95218182 6.82681034,4.59709091 C6.82681034,4.25945455 6.77467241,3.954 6.67039655,3.68018182 C6.56666379,3.40690909 6.41025,3.174 6.20169828,2.98254545 C5.99260345,2.79 5.72919828,2.64381818 5.41093966,2.54127273 C5.09213793,2.43927273 4.71848276,2.38909091 4.28997414,2.38909091 L2.5352069,2.38909091 L2.5352069,6.91909091 L2.5352069,6.91909091 Z" id="Shape"></path>
            </g>
        </g>
    </g>
</svg>