<?xml version="1.0" encoding="utf-8"?>
<!-- Generator: Adobe Illustrator 23.0.3, SVG Export Plug-In . SVG Version: 6.00 Build 0)  -->
<svg version="1.1" id="Layer_1" xmlns="http://www.w3.org/2000/svg" xmlns:xlink="http://www.w3.org/1999/xlink" x="0px" y="0px"
	 viewBox="0 0 45 45" style="enable-background:new 0 0 45 45;" xml:space="preserve">
<style type="text/css">
	.st2{clip-path:url(#SVGID_2_);fill:#FFFFFF;}
	.st3{clip-path:url(#SVGID_2_);fill:#83d0ac;}
	.st4{clip-path:url(#SVGID_2_);fill:#1964E6;}
</style>
<g>
	<defs>
		<rect id="SVGID_1_" width="45" height="45"/>
	</defs>
	<clipPath id="SVGID_2_">
		<use xlink:href="#SVGID_1_"  style="overflow:visible;"/>
	</clipPath>
	<path class="st2" d="M24.01,22.18c-0.43,0.48-0.87,0.96-1.29,1.46c-1.73,2.03-3.32,4.15-4.61,6.34c-1.28-2.19-2.88-4.31-4.61-6.34
		c-0.42-0.49-0.86-0.97-1.29-1.46H7.28c1.19,1.24,2.37,2.51,3.47,3.81c2.47,2.89,4.56,5.89,5.68,8.71c0.27,0.69,0.94,1.14,1.68,1.14
		s1.41-0.45,1.68-1.14c1.12-2.83,3.21-5.82,5.68-8.71c1.1-1.29,2.28-2.57,3.47-3.81H24.01"/>
	<path class="st3" d="M26.56,1.35c-2.97,0-5.62,1.34-7.39,3.44c1.17,1.79,1.86,3.92,1.86,6.22c0,2.3-0.69,4.43-1.86,6.22
		c1.77,2.11,4.42,3.44,7.39,3.44c5.34,0,9.66-4.32,9.66-9.66S31.9,1.35,26.56,1.35"/>
	<path class="st4" d="M9.66,1.35c5.33,0,9.66,4.33,9.66,9.66s-4.33,9.66-9.66,9.66S0,16.34,0,11.01S4.33,1.35,9.66,1.35"/>
</g>
</svg>
