<?xml version="1.0" encoding="UTF-8"?>
<svg width="24px" height="24px" viewBox="0 0 24 24" version="1.1" xmlns="http://www.w3.org/2000/svg" xmlns:xlink="http://www.w3.org/1999/xlink">
    <!-- Generator: Sketch 63.1 (92452) - https://sketch.com -->
    <title>Icon / Service Alt</title>
    <desc>Created with Sketch.</desc>
    <defs>
        <path d="M9.64855336,14.3269579 C10.2846541,15.0413877 10.8002486,15.760982 11.1944761,16.4857409 C11.8865262,17.7906512 12.261817,19.1394602 12.3203486,20.5304463 L12.3969561,22.3509512 C12.4047029,22.5282675 12.3504751,22.6789002 12.2342727,22.8028495 C12.1180703,22.925938 11.969159,22.9913557 11.7875389,22.9991025 C11.6059188,23.0077101 11.451843,22.9543431 11.3261722,22.8415837 C11.1996407,22.7279635 11.1333622,22.5824953 11.1256154,22.405179 L11.0490079,20.5846742 C11.0008054,19.4295359 10.6797424,18.3010811 10.0875403,17.1993099 C9.75786972,16.5614876 9.33695868,15.9262477 8.82480721,15.2953115 C9.14673099,15.0155649 9.42131304,14.6919196 9.64855336,14.3269579 Z M14.2573141,14.3919452 C14.5103771,14.7121474 14.7995921,14.9961978 15.1266804,15.2440963 C14.0713902,16.5688041 13.3311376,17.7687018 12.6614673,19.2070297 C12.6356445,18.7895617 12.5211636,18.5123974 12.4273409,18.1388281 L12.2388347,17.3925502 C12.8224292,16.3458676 13.4499223,15.3887038 14.2573141,14.3919452 Z M12.5422522,9.31536207 L12.4828598,15.7090782 C12.0430121,16.3718625 11.9509109,16.6791534 11.9509109,16.6791534 C11.7219491,16.1411791 11.4103544,15.7942934 11.2175445,15.4964708 L11.2175445,9.31536207 C11.5678733,9.39971643 12.2297968,9.37475443 12.5422522,9.31536207 Z M7.70900562,8.2265883 C8.32616966,8.55970194 8.8262705,9.01934713 9.21016892,9.60724537 C9.59406733,10.1934221 9.80064943,10.8312443 9.82905447,11.5189906 C9.87553545,12.6087112 9.5277889,13.5564066 8.78581484,14.3629376 C8.04470154,15.1703293 7.13660103,15.5955442 6.06151333,15.6411644 C4.98642562,15.6859238 4.05250235,15.3381773 3.26060428,14.5962032 C2.46870621,13.8533684 2.04951669,12.9452679 2.00389647,11.8701802 C1.95913701,10.7959532 2.29999749,9.8551439 3.02647789,9.04861293 C3.75381906,8.24294272 4.66191956,7.81686712 5.75164017,7.77124691 C6.43938643,7.74198111 7.09184158,7.89433541 7.70900562,8.2265883 Z M18.6545863,7.87290252 C19.3561047,8.02267455 19.9655219,8.32738315 20.4836987,8.78961061 C21.0018755,9.25269883 21.3659765,9.81391355 21.5777231,10.4741155 C21.7894698,11.1351783 21.8204571,11.8168992 21.6706851,12.5175569 C21.4503308,13.5573535 20.8873946,14.375935 19.9827371,14.9750232 C19.0780796,15.574972 18.0993969,15.7626174 17.0466889,15.5388201 C15.993981,15.3150229 15.1702348,14.743479 14.5728682,13.8250494 C13.9763624,12.9066198 13.7904385,11.9201903 14.013375,10.8674823 C14.2380331,9.81563507 14.8078554,8.99877499 15.7237027,8.41604131 C16.63955,7.83330762 17.6165112,7.65168751 18.6545863,7.87290252 Z M11.8366022,1.00026017 C12.5536142,0.992513345 13.2155377,1.15777903 13.8223726,1.49433571 C14.4283468,1.83261391 14.9069287,2.30086668 15.2581183,2.89909403 C15.6084471,3.49818213 15.7883457,4.15580184 15.7960925,4.87367465 C15.8081431,5.93412946 15.4380169,6.85772362 14.6865745,7.64015335 C13.935132,8.42344383 13.0201455,8.82111438 11.944197,8.83316501 C10.8691093,8.84435487 9.93948982,8.46734253 9.15619934,7.70126722 C8.37290886,6.93605267 7.9752383,6.01418003 7.96318768,4.93823156 C7.95113706,3.86228309 8.32901016,2.94041045 9.09508547,2.17089211 C9.86116078,1.40223452 10.7752866,1.0123108 11.8366022,1.00026017 Z" id="path-1"></path>
    </defs>
    <g id="Icon-/-Service-Alt" stroke="none" stroke-width="1" fill="none" fill-rule="evenodd">
        <mask id="mask-2" fill="rgba(0, 0, 0, 0.54)">
            <use xlink:href="#path-1"></use>
        </mask>
        <use id="" fill="rgba(0, 0, 0, 0.54)" fill-rule="nonzero" xlink:href="#path-1"></use>
    </g>
</svg>