<?xml version="1.0" encoding="UTF-8"?>
<svg width="25px" height="25px" viewBox="0 0 25 25" version="1.1" xmlns="http://www.w3.org/2000/svg" xmlns:xlink="http://www.w3.org/1999/xlink">
    <!-- Generator: Sketch 61.2 (89653) - https://sketch.com -->
    <title>twitter</title>
    <desc>Created with Sketch.</desc>
    <g id="twitter" stroke="none" stroke-width="1" fill="none" fill-rule="evenodd">
        <g>
            <rect id="Rectangle" x="0" y="0" width="25" height="25"></rect>
            <circle id="Oval" stroke="#2242C7" stroke-width="2" fill="#FFFFFF" cx="12.5" cy="12.5" r="11.5"></circle>
            <path d="M17.3444028,9.57143842 C17.8500536,9.25234397 18.2380461,8.74637243 18.4201364,8.14363846 C17.9467016,8.43983494 17.4235421,8.65404186 16.8653652,8.77000906 C16.4199443,8.26773075 15.7833285,7.95454545 15.0787791,7.95454545 C13.7271086,7.95454545 12.6317654,9.11052421 12.6317654,10.5361082 C12.6317654,10.7384968 12.6520754,10.9357149 12.6940963,11.1240693 C10.6602875,11.0162272 8.85689302,9.98951125 7.6487938,8.42653934 C7.43798924,8.80915722 7.31752949,9.25234397 7.31752949,9.72507649 C7.31752949,10.6203137 7.74964382,11.4106634 8.40656966,11.8745322 C8.00527061,11.8612366 7.62778338,11.7437921 7.29721942,11.5517445 L7.29721942,11.5835062 C7.29721942,12.8347701 8.14043766,13.8784749 9.2616938,14.1148412 C9.05579167,14.17541 8.84008468,14.2056945 8.61597352,14.2056945 C8.45839536,14.2056945 8.30431894,14.1901829 8.1558453,14.1598985 C8.46679953,15.1851372 9.37094799,15.9326455 10.4424795,15.9525889 C9.60416367,16.6454375 8.54874018,17.0576011 7.40227153,17.0576011 C7.20477357,17.0576011 7.00937665,17.0465215 6.81818182,17.0221462 C7.9016192,17.754143 9.18815733,18.1818182 10.570643,18.1818182 C15.0738766,18.1818182 17.5348973,14.2477972 17.5348973,10.8359979 C17.5348973,10.723724 17.5334966,10.6121886 17.5285942,10.5021306 C18.0069314,10.1379788 18.4229378,9.68297375 18.75,9.16518391 C18.3108822,9.3705271 17.8388481,9.50939228 17.3444028,9.57143842 Z" id="Shape" fill="#2242C7"></path>
        </g>
    </g>
</svg>