<svg width="18" height="18" viewBox="0 0 18 18" fill="none" xmlns="http://www.w3.org/2000/svg">
<mask id="mask0" mask-type="alpha" maskUnits="userSpaceOnUse" x="1" y="1" width="16" height="16">
<path fill-rule="evenodd" clip-rule="evenodd" d="M9 1.5C4.8525 1.5 1.5 4.8525 1.5 9C1.5 13.1475 4.8525 16.5 9 16.5C13.1475 16.5 16.5 13.1475 16.5 9C16.5 4.8525 13.1475 1.5 9 1.5ZM12.75 11.6925L11.6925 12.75L9 10.0575L6.3075 12.75L5.25 11.6925L7.9425 9L5.25 6.3075L6.3075 5.25L9 7.9425L11.6925 5.25L12.75 6.3075L10.0575 9L12.75 11.6925Z" fill="white"/>
</mask>
<g mask="url(#mask0)">
<rect x="-9.75" y="-9.75" width="37.5" height="37.5" fill="white"/>
<mask id="mask1" mask-type="alpha" maskUnits="userSpaceOnUse" x="-10" y="-10" width="38" height="38">
<rect x="-9.75" y="-9.75" width="37.5" height="37.5" fill="white"/>
</mask>
<g mask="url(#mask1)">
</g>
</g>
</svg>
