<svg width="24" height="24" viewBox="0 0 24 24" fill="none" xmlns="http://www.w3.org/2000/svg">
<circle cx="12" cy="12" r="11.25" fill="white" stroke="#4C4D4F" stroke-width="1.5"/>
<path d="M9.80555 8.81862C10.6575 8.81862 11.3626 8.12182 11.3626 7.25819C11.3626 6.39455 10.6673 5.69775 9.80555 5.69775C8.9536 5.69775 8.24854 6.39455 8.24854 7.25819C8.24854 8.12182 8.9536 8.81862 9.80555 8.81862Z" fill="#4C4D4F"/>
<path d="M10 14.0055C9.8727 13.9467 9.52156 14.3303 9.46281 14.4481C9.37468 14.6346 9.0809 15.2823 8.84588 15.7043C8.54231 16.2539 7.21052 18.0302 6.92654 18.1578C6.83841 18.1872 7.4085 18.2461 7.30078 18.1578C7.21265 18.0793 7.49021 18.0743 7.5 18.0056C7.54896 17.829 8.14747 17.4669 8.5 17.0056C8.79378 16.6229 8.73816 16.2833 8.84588 16.0968C9.11028 15.6552 10.0034 14.0967 10.0328 14.0378C10.0916 13.9102 9.1273 13.0645 9 13.0056C8.8727 12.9467 8.63044 13.3685 8.57169 13.4961C8.56189 13.5059 7.97434 14.8308 7.71974 15.243C7.62181 15.4 7.3672 15.7337 7.08322 16.0968C6.46629 16.9212 6.07459 17.4414 6.01583 17.6867C5.95708 17.9321 6.0648 18.2167 6.29002 18.413C6.46629 18.57 6.67193 18.6485 6.86778 18.6485C6.94612 18.6485 7.02447 18.6387 7.10281 18.6092C7.58264 18.4326 9.03194 16.3716 9.27675 15.93C9.51177 15.4982 9.81534 14.8406 9.90347 14.6444C9.96223 14.5266 10.1273 14.0546 10 14.0055Z" fill="#4C4D4F"/>
<path d="M7.47491 13.4803C7.8862 13.4803 8.1506 13.1957 8.1506 12.7442V11.6352L8.61085 11.2623L8.70877 13.4705C8.70877 13.5392 8.73815 13.598 8.78711 13.6373C8.8067 13.6471 10.3441 15.0898 10.8827 16.2871C11.1471 16.8759 11.343 17.4942 11.4996 17.9849C11.6955 18.5934 11.8032 18.9271 11.9501 19.0939C12.0774 19.2313 12.2635 19.3098 12.4691 19.3098C12.8118 19.3098 13.2329 19.1037 13.3211 18.7112C13.3994 18.3971 13.1546 17.5531 12.4593 15.7081L12.4299 15.6197C12.1949 14.9916 11.4213 13.9219 11.2352 13.6569L10.9708 10.1337C10.9611 9.41726 10.2854 8.86768 9.68803 8.86768H9.65865C9.15923 8.87749 8.8067 9.07377 8.57168 9.21117L8.52271 9.24061C8.31707 9.35838 6.87757 10.4379 6.71109 10.8403C6.574 11.1642 6.66213 12.4105 6.69151 12.8031C6.7013 13.0583 6.81881 13.4803 7.47491 13.4803Z" fill="#4C4D4F"/>
<path d="M10.5889 12.2233C10.5889 12.2135 10.5889 12.2135 10.5889 12.2233C10.5791 12.2233 11.3329 12.6374 11 12.5C10.8727 12.4509 10.4064 12.1655 10.3476 12.2833C10.2987 12.4109 11.2451 12.6758 11.3626 12.7347C11.6857 12.8721 11.9599 12.9703 11.9991 12.9899C12.0872 13.0292 12.195 13.0586 12.3125 13.0586C12.5279 13.0586 12.7727 12.9506 12.949 12.5679C13.1253 12.195 12.9784 11.8318 12.5769 11.6356L11.4703 11.1056C10.5 10.5 10.5587 10.8724 10.5 11C10.4412 11.1178 10.8727 11.4411 11 11.5H10C10.2252 11.608 9.39656 11.5767 9.36719 11.6355C9.26926 11.8907 10.7162 12.2724 10.5889 12.2233Z" fill="#4C4D4F"/>
<path d="M16.7583 4H9.8056C9.66851 4 9.56079 4.10795 9.56079 4.24535V4.9814C9.56079 5.1188 9.66851 5.22675 9.8056 5.22675C9.9427 5.22675 10.0504 5.1188 10.0504 4.9814V4.4907H16.5135V19.408H10.0504V19.3099C10.0504 19.1725 9.9427 19.0645 9.8056 19.0645C9.66851 19.0645 9.56079 19.1725 9.56079 19.3099V19.6534C9.56079 19.7908 9.66851 19.8987 9.8056 19.8987H16.7583C16.8954 19.8987 17.0031 19.7908 17.0031 19.6534V4.24535C17.0031 4.10795 16.8856 4 16.7583 4Z" fill="#4C4D4F"/>
</svg>