<svg width="40" height="40" viewBox="0 0 40 40" fill="none" xmlns="http://www.w3.org/2000/svg">
  <circle cx="20" cy="20" r="20" fill="white"/>
  <path fill-rule="evenodd" clip-rule="evenodd" d="M23.0149 21.789C22.7756 22.0563 22.5341 22.321 22.3014 22.5936C21.3489 23.7139 20.468 24.8804 19.7602 26.0895C19.0524 24.8799 18.1714 23.7139 17.219 22.5936C16.9867 22.321 16.7452 22.0563 16.5054 21.789H13.7839C14.4402 22.4746 15.0898 23.1753 15.6982 23.8897C17.06 25.4851 18.2149 27.1374 18.8321 28.6968C18.9836 29.0774 19.3503 29.3265 19.7606 29.3265C20.1709 29.3265 20.5372 29.0774 20.6891 28.6968C21.3063 27.1374 22.4612 25.4856 23.8231 23.8897C24.4314 23.1757 25.081 22.4746 25.7373 21.789H23.0149Z" fill="black"/>
  <path fill-rule="evenodd" clip-rule="evenodd" d="M24.4229 10.2996C22.7866 10.2996 21.324 11.0385 20.3467 12.1996C20.9919 13.1854 21.3702 14.3616 21.3702 15.628C21.3702 16.8944 20.9919 18.0706 20.3467 19.0564C21.324 20.2175 22.7866 20.9564 24.4229 20.9564C27.3668 20.9564 29.7513 18.5711 29.7513 15.628C29.7513 12.685 27.3668 10.2996 24.4229 10.2996Z" fill="#FFAE00"/>
  <path fill-rule="evenodd" clip-rule="evenodd" d="M15.0982 10.2996C18.0408 10.2996 20.4266 12.6854 20.4266 15.628C20.4266 18.5706 18.0408 20.9564 15.0982 20.9564C12.1556 20.9564 9.76978 18.5706 9.76978 15.628C9.76978 12.6854 12.1556 10.2996 15.0982 10.2996Z" fill="#1964E6"/>
</svg>
