<svg width="25" height="24" viewBox="0 0 25 24" fill="none" xmlns="http://www.w3.org/2000/svg">
<g clip-path="url(#clip0_146_107072)">
<path d="M16.2002 14.1136C15.9075 14.4415 15.6121 14.7671 15.3275 15.102C14.1625 16.4782 13.085 17.9111 12.2193 19.3958C11.3536 17.9106 10.2761 16.4782 9.11112 15.102C8.82707 14.7671 8.53163 14.4415 8.23835 14.1136H4.90967C5.71237 14.9558 6.50694 15.8166 7.25099 16.6942C8.91669 18.654 10.3293 20.6836 11.0842 22.5987C11.2694 23.0667 11.718 23.3722 12.2198 23.3722C12.7217 23.3722 13.1697 23.0667 13.3555 22.5987C14.1104 20.6836 15.523 18.6546 17.1887 16.6942C17.9327 15.8171 18.7273 14.9558 19.53 14.1136H16.2002Z" fill="black"/>
<path d="M17.9225 0C15.9211 0 14.1321 0.907637 12.9368 2.334C13.7259 3.54491 14.1886 4.98982 14.1886 6.54545C14.1886 8.10109 13.7259 9.546 12.9368 10.7569C14.1321 12.1833 15.9211 13.0909 17.9225 13.0909C21.5232 13.0909 24.4397 10.1607 24.4397 6.54545C24.4397 2.93018 21.5232 0 17.9225 0Z" fill="#A4A6AB"/>
<path d="M6.51724 13.0909C10.1166 13.0909 13.0345 10.1604 13.0345 6.54545C13.0345 2.9305 10.1166 0 6.51724 0C2.91787 0 0 2.9305 0 6.54545C0 10.1604 2.91787 13.0909 6.51724 13.0909Z" fill="#141823"/>
</g>
<defs>
<clipPath id="clip0_146_107072">
<rect width="24.4397" height="23.3722" fill="white"/>
</clipPath>
</defs>
</svg>
