<?xml version="1.0" encoding="UTF-8"?>
<svg width="25px" height="25px" viewBox="0 0 25 25" version="1.1" xmlns="http://www.w3.org/2000/svg" xmlns:xlink="http://www.w3.org/1999/xlink">
    <!-- Generator: Sketch 61.2 (89653) - https://sketch.com -->
    <title>insta</title>
    <desc>Created with Sketch.</desc>
    <g id="insta" stroke="none" stroke-width="1" fill="none" fill-rule="evenodd">
        <g id="instagram">
            <rect id="Rectangle" x="0" y="0" width="25" height="25"></rect>
            <circle id="Oval" stroke="#2242C7" stroke-width="2" fill="#FFFFFF" cx="12.5" cy="12.5" r="11.5"></circle>
            <path d="M15.9856592,6.81818182 L9.01434084,6.81818182 C7.80368062,6.81818182 6.81818182,7.80301249 6.81818182,9.01434084 L6.81818182,15.9856592 C6.81818182,17.1969875 7.80368062,18.1818182 9.01434084,18.1818182 L15.9856592,18.1818182 C17.1963194,18.1818182 18.1818182,17.1969875 18.1818182,15.9856592 L18.1818182,9.01434084 C18.1818182,7.80301249 17.1963194,6.81818182 15.9856592,6.81818182 L15.9856592,6.81818182 Z M16.6157103,8.12839412 L16.8669289,8.12705786 L16.8669289,10.0532904 L14.9467096,10.0593036 L14.9400282,8.13307107 L16.6157103,8.12839412 L16.6157103,8.12839412 Z M10.8784369,11.3334367 C11.2419022,10.829663 11.8325334,10.4996045 12.5,10.4996045 C13.1674666,10.4996045 13.7580978,10.829663 14.1215631,11.3334367 C14.358751,11.662159 14.5003955,12.0643761 14.5003955,12.5 C14.5003955,13.6024224 13.6030905,14.4997274 12.5,14.4997274 C11.3975776,14.4997274 10.5002726,13.6024224 10.5002726,12.5 C10.5002726,12.0643761 10.6419172,11.662159 10.8784369,11.3334367 L10.8784369,11.3334367 Z M17.0747188,15.9856592 C17.0747188,16.5863123 16.5863123,17.0747188 15.9856592,17.0747188 L9.01434084,17.0747188 C8.41368768,17.0747188 7.92528115,16.5863123 7.92528115,15.9856592 L7.92528115,11.3334367 L9.6223435,11.3334367 C9.47535384,11.6942295 9.39317327,12.0877608 9.39317327,12.5 C9.39317327,14.2130976 10.7869024,15.6074949 12.5,15.6074949 C14.2137657,15.6074949 15.6074949,14.2130976 15.6074949,12.5 C15.6074949,12.0877608 15.523978,11.6942295 15.3783246,11.3334367 L17.0747188,11.3334367 L17.0747188,15.9856592 L17.0747188,15.9856592 Z" id="Shape" fill="#2242C7"></path>
        </g>
    </g>
</svg>