<svg width="24" height="24" viewBox="0 0 24 24" fill="none" xmlns="http://www.w3.org/2000/svg">
<mask id="mask0" mask-type="alpha" maskUnits="userSpaceOnUse" x="3" y="1" width="19" height="22">
<path fill-rule="evenodd" clip-rule="evenodd" d="M21.5455 1H3L3.59091 14.2727C3.59091 16.6667 4.43939 18.7197 6.13636 20.4318C7.83334 22.1439 9.87878 23 12.2727 23C14.6667 23 16.7121 22.1439 18.4091 20.4318C20.1061 18.7197 20.9545 16.6667 20.9545 14.2727L21.5455 1ZM20.8636 1.63636L20.3182 14.2727C20.3182 16.4849 19.5303 18.3788 17.9545 19.9545C16.3788 21.5303 14.4849 22.3182 12.2727 22.3182C10.0606 22.3182 8.16667 21.5303 6.59091 19.9545C5.01514 18.3788 4.22727 16.4697 4.22727 14.2273L3.68182 1.63636H20.8636Z" fill="white"/>
</mask>
<g mask="url(#mask0)">
<rect width="24" height="24" fill="#000000"/>
</g>
<path fill-rule="evenodd" clip-rule="evenodd" d="M8.17835 11C7.20374 11 6.83304 11.7589 5.85843 11.7589C5.05382 11.7589 4.66042 11.2423 4 11.0621V11.3032C4.66042 11.484 5.05382 12 5.85843 12C6.83304 12 7.20374 11.2411 8.17835 11.2411C9.15296 11.2411 9.52366 12 10.4987 12C11.4738 12 11.844 11.2411 12.8186 11.2411C13.7932 11.2411 14.164 12 15.139 12C16.1141 12 16.4843 11.2411 17.4589 11.2411C18.4335 11.2411 18.8042 12 19.7793 12C20.296 12 20.6431 11.7866 21 11.5865V11.3454C20.644 11.5455 20.296 11.7589 19.7793 11.7589C18.8042 11.7589 18.434 11 17.4589 11C16.4839 11 16.1136 11.7589 15.139 11.7589C14.1644 11.7589 13.7937 11 12.8186 11C11.8436 11 11.4733 11.7589 10.4974 11.7589C9.52144 11.7589 9.1534 11 8.17835 11Z" fill="#000000" stroke="#000000" stroke-width="0.14"/>
<path d="M13.3786 5.25337V5.55337H13.6786H15.4149V7.64143H13.6786H13.3786V7.94143V9.71302H11.3363V7.94143V7.64143H11.0363H9.3V5.55337H11.0363H11.3363V5.25337V3.48178H13.3786V5.25337Z" stroke="#000000" stroke-width="0.6"/>
<path d="M15.0816 18.8912H9.61334L9.58227 18.8721C7.79136 17.7592 6.91487 16.4226 6.49537 15.497C6.03839 14.4886 6.00685 13.7503 6.00594 13.7192L6 13.5411L6.16908 13.5876C6.44689 13.6661 6.7195 13.7626 6.98525 13.8763L7.06705 13.9117L7.06339 14.0046C7.06339 14.0046 7.05974 14.1125 7.0707 14.2836C7.42943 14.3938 8.85978 14.8247 9.83955 14.9879L9.94511 15.0056L9.96385 15.6708C10.7543 15.7759 11.5503 15.8305 12.3475 15.8345C13.1446 15.8294 13.9407 15.7737 14.7311 15.6676L14.7498 15.0023L14.8554 14.9847C15.8351 14.8215 17.2655 14.3905 17.6242 14.2803C17.6356 14.1106 17.6315 14.0037 17.6315 14.0014L17.6279 13.9112L17.7097 13.8754C17.9756 13.7616 18.2483 13.6652 18.5263 13.5867L18.6954 13.5402L18.689 13.7183C18.689 13.7494 18.6574 14.4877 18.2 15.496C17.78 16.4217 16.9035 17.7582 15.1126 18.8712L15.0816 18.8912ZM9.68646 18.6276H15.0085C16.7171 17.5583 17.5557 16.2827 17.9587 15.3993C18.181 14.9235 18.3334 14.4171 18.4111 13.8963C18.2777 13.9386 18.0858 14.0037 17.8911 14.0823C17.8911 14.152 17.887 14.258 17.8755 14.3896L17.8678 14.4774L17.7851 14.5035C17.7682 14.5091 16.1399 15.02 15.003 15.2241L14.9838 15.8945L14.8768 15.9107C14.0386 16.0292 13.1937 16.0913 12.3475 16.0967C11.5012 16.0913 10.6563 16.0292 9.81807 15.9107L9.71114 15.8945L9.6924 15.2241C8.55452 15.0218 6.92721 14.5109 6.90939 14.5053L6.82622 14.4793L6.81799 14.3933C6.80657 14.2617 6.80337 14.1557 6.80246 14.086C6.60778 14.0056 6.41631 13.9405 6.28241 13.9C6.36013 14.4209 6.51255 14.9273 6.73482 15.4031C7.13788 16.2827 7.97827 17.5574 9.68646 18.6276Z" fill="#000000" stroke="#000000" stroke-width="0.05"/>
<path fill-rule="evenodd" clip-rule="evenodd" d="M7.04644 14.5012H6.97333C7.02908 15.3505 7.63321 16.2538 8.28578 16.8196C9.56532 17.9047 10.7078 18.2608 12.3474 18.2608C13.9871 18.2608 15.1295 17.9047 16.4095 16.8196C17.3002 16.0219 17.7096 15.4947 17.838 14.4723L17.7466 14.4668C17.7154 14.6854 17.6637 14.9006 17.5922 15.1093C16.5544 15.6048 14.9371 15.7824 14.9371 15.7824L14.949 15.8754C14.949 15.8754 16.4954 15.7062 17.5593 15.2208C17.4798 15.431 17.3472 15.6011 17.1846 15.8536C17.1242 15.8815 15.448 16.5946 12.3474 16.5946C9.24681 16.5946 7.60807 15.8619 7.54912 15.8345C7.40361 15.6134 7.28109 15.3775 7.18354 15.1306C8.24739 15.616 9.83997 15.8745 9.83997 15.8745V15.7815C9.83997 15.7815 8.18844 15.5137 7.15064 15.0181C7.02725 14.6462 7.04782 14.5002 7.04782 14.5002L7.04644 14.5012ZM7.63778 15.9684C7.99102 16.1125 9.5571 16.6876 12.3483 16.6876C15.1396 16.6876 16.7431 16.1297 17.0964 15.9875C16.9136 16.2445 16.6545 16.49 16.3556 16.7443C16.3483 16.748 14.9166 17.4728 12.3483 17.4728C9.7801 17.4728 8.34838 16.748 8.34107 16.7443C8.07508 16.5172 7.83873 16.2565 7.63778 15.9684V15.9684ZM8.59744 16.9317C8.95068 17.0874 10.1283 17.5653 12.3479 17.5653C14.5674 17.5653 15.7848 17.0809 16.1381 16.9252C14.9737 17.8359 13.8637 18.1683 12.3474 18.1683C10.8312 18.1683 9.76091 17.8424 8.59698 16.9317H8.59744Z" fill="#000000" stroke="#000000" stroke-width="0.05"/>
</svg>