<svg width="40" height="37" viewBox="0 0 40 37" fill="none" xmlns="http://www.w3.org/2000/svg">
<circle cx="16" cy="20.2002" r="15.5" fill="white" stroke="#4C4D4F"/>
<mask id="mask0" mask-type="alpha" maskUnits="userSpaceOnUse" x="12" y="11" width="8" height="18">
<path fill-rule="evenodd" clip-rule="evenodd" d="M17.9658 12.1564C17.3675 11.8145 16.7122 11.6436 16 11.6436C14.9173 11.6436 13.9986 12.021 13.2436 12.776C12.4886 13.531 12.1111 14.4427 12.1111 15.5111C12.1111 16.5795 12.4886 17.4983 13.2436 18.2675C13.9986 19.0367 14.9173 19.4213 16 19.4213C17.0826 19.4213 18.0014 19.0367 18.7564 18.2675C19.5114 17.4983 19.8889 16.5866 19.8889 15.5324C19.8889 14.8202 19.7179 14.1649 19.376 13.5666C19.0342 12.9683 18.5641 12.4983 17.9658 12.1564ZM16 20.3188C15.829 20.3188 15.6296 20.3045 15.4017 20.276V28.3102C15.4017 28.4812 15.4587 28.6236 15.5726 28.7376C15.6866 28.8515 15.829 28.9085 16 28.9085C16.1709 28.9085 16.3134 28.8515 16.4273 28.7376C16.5413 28.6236 16.5983 28.4812 16.5983 28.3102V20.276C16.3703 20.3045 16.1709 20.3188 16 20.3188Z" fill="white"/>
</mask>
<g mask="url(#mask0)">
<rect x="6.66675" y="10.8662" width="18.6667" height="18.6667" fill="#4C4D4F"/>
</g>
<circle cx="30.6666" cy="9.53353" r="9.33333" fill="#4C4D4F"/>
<mask id="mask1" mask-type="alpha" maskUnits="userSpaceOnUse" x="26" y="5" width="9" height="9">
<path fill-rule="evenodd" clip-rule="evenodd" d="M32.4445 5.08887V5.97776H28.889V5.08887H28.0001V5.97776H27.5556C27.0623 5.97776 26.6712 6.37776 26.6712 6.86665L26.6667 13.0889C26.6667 13.5778 27.0623 13.9778 27.5556 13.9778H33.7779C34.2667 13.9778 34.6667 13.5778 34.6667 13.0889V6.86665C34.6667 6.37776 34.2667 5.97776 33.7779 5.97776H33.3334V5.08887H32.4445ZM32.889 9.97776H30.6667V12.2H32.889V9.97776ZM27.5556 13.0889H33.7779V8.19998H27.5556V13.0889Z" fill="white"/>
</mask>
<g mask="url(#mask1)">
<rect x="25.3335" y="4.2002" width="10.6667" height="10.6667" fill="white"/>
</g>
</svg>
