<svg width="32" height="32" viewBox="0 0 32 32" fill="none" xmlns="http://www.w3.org/2000/svg">
<circle cx="16" cy="16" r="15" fill="white" stroke="#2242C7" stroke-width="2"/>
<mask id="mask0" mask-type="alpha" maskUnits="userSpaceOnUse" x="12" y="8" width="8" height="16">
<path fill-rule="evenodd" clip-rule="evenodd" d="M18.8364 9.84851C18.0606 9.06062 17.1152 8.66669 16 8.66669C15.2727 8.66669 14.6 8.8485 13.9818 9.21214C13.3636 9.57578 12.8788 10.0667 12.5273 10.6849C12.1758 11.3031 12 11.9758 12 12.7031C12 13.2364 12.103 13.7515 12.3091 14.2485C12.5152 14.7455 12.8 15.1697 13.1636 15.5212C13.5273 15.8727 13.9576 16.1576 14.4545 16.3758C14.9515 16.594 15.4667 16.703 16 16.703C17.1152 16.703 18.0606 16.3091 18.8364 15.5212C19.6121 14.7333 20 13.7879 20 12.6849C20 11.5818 19.6121 10.6364 18.8364 9.84851ZM16 17.4667C15.7576 17.4667 15.503 17.4424 15.2364 17.394V22.6303C15.2364 22.8485 15.3091 23.0364 15.4545 23.194C15.6 23.3515 15.7818 23.4303 16 23.4303C16.2182 23.4303 16.4 23.3515 16.5455 23.194C16.6909 23.0364 16.7636 22.8485 16.7636 22.6303V17.394C16.497 17.4424 16.2424 17.4667 16 17.4667Z" fill="white"/>
</mask>
<g mask="url(#mask0)">
<rect x="8" y="8" width="16" height="16" fill="#2242C7"/>
</g>
</svg>
