<?xml version="1.0" encoding="UTF-8"?>
<svg width="25px" height="25px" viewBox="0 0 25 25" version="1.1" xmlns="http://www.w3.org/2000/svg" xmlns:xlink="http://www.w3.org/1999/xlink">
    <!-- Generator: Sketch 61.2 (89653) - https://sketch.com -->
    <title>pinterest</title>
    <desc>Created with Sketch.</desc>
    <g id="pinterest" stroke="none" stroke-width="1" fill="none" fill-rule="evenodd">
        <g>
            <rect id="Rectangle" x="0" y="0" width="25" height="25"></rect>
            <circle id="Oval" stroke="#2242C7" stroke-width="2" fill="#FFFFFF" cx="12.5" cy="12.5" r="11.5"></circle>
            <path d="M5.68181818,12.5 C5.68181818,15.2917344 7.36150902,17.6906055 9.76438895,18.7449222 C9.74434491,18.2686757 9.76038014,17.6970196 9.88224793,17.1790815 C10.0137369,16.6258659 10.7593753,13.4637176 10.7593753,13.4637176 C10.7593753,13.4637176 10.5412961,13.028361 10.5412961,12.3853481 C10.5412961,11.3743265 11.1273839,10.6198687 11.8561853,10.6198687 C12.4767489,10.6198687 12.7766078,11.0856923 12.7766078,11.6437185 C12.7766078,12.2674891 12.378934,13.199938 12.1744847,14.0634354 C12.0037095,14.7866245 12.536881,15.3759194 13.250449,15.3759194 C14.5420871,15.3759194 15.4119986,13.7178761 15.4119986,11.7511545 C15.4119986,10.2574724 14.4057877,9.1390148 12.5753656,9.1390148 C10.5068203,9.1390148 9.21838921,10.6816044 9.21838921,12.4037886 C9.21838921,12.997894 9.39397503,13.4172154 9.66737578,13.7411272 C9.79405413,13.8902549 9.81169289,13.950387 9.76599247,14.121964 C9.733922,14.2462371 9.6585564,14.549303 9.62728769,14.6687655 C9.58158727,14.8411443 9.44208073,14.9028799 9.28573719,14.8395408 C8.33324425,14.4498845 7.88987001,13.4067925 7.88987001,12.2346169 C7.88987001,10.2975605 9.52225691,7.97485675 12.7621761,7.97485675 C15.3654965,7.97485675 17.0788613,9.85899684 17.0788613,11.8810399 C17.0788613,14.5557171 15.5915933,16.5537073 13.3995767,16.5537073 C12.6635594,16.5537073 11.971639,16.1560335 11.7343175,15.7038399 C11.7343175,15.7038399 11.3382472,17.2744911 11.2540623,17.5783588 C11.1105469,18.1035128 10.8267233,18.6286667 10.568556,19.038367 C11.1811019,19.2195651 11.8289254,19.3181818 12.5008018,19.3181818 C16.2658749,19.3181818 19.3181818,16.2650731 19.3181818,12.5 C19.3181818,8.73412512 16.2658749,5.68181818 12.5008018,5.68181818 C8.73492688,5.68181818 5.68181818,8.73412512 5.68181818,12.5 Z" id="Shape" fill="#2242C7"></path>
        </g>
    </g>
</svg>