<?xml version="1.0" encoding="UTF-8"?>
<svg width="25px" height="25px" viewBox="0 0 25 25" version="1.1" xmlns="http://www.w3.org/2000/svg" xmlns:xlink="http://www.w3.org/1999/xlink">
    <!-- Generator: Sketch 61.2 (89653) - https://sketch.com -->
    <title>snap</title>
    <desc>Created with Sketch.</desc>
    <g id="snap" stroke="none" stroke-width="1" fill="none" fill-rule="evenodd">
        <circle id="Oval" stroke="#2242C7" stroke-width="2" fill="#FFFFFF" cx="12.5" cy="12.5" r="11.5"></circle>
        <path d="M17.3879303,15.5070567 C17.3165876,15.464065 17.2440943,15.4226655 17.1713134,15.382424 C15.2295286,14.308788 15.3972412,13.5488326 16.3561953,12.9457898 C17.3151493,12.3426024 16.6198465,11.9203567 16.2242977,12.1134577 C15.828749,12.306414 15.5650977,12.1858344 15.5650977,12.1858344 L15.6370157,9.79740312 C15.6370157,9.79740312 15.405296,8.07223195 13.0719899,8.00332933 L13.0719899,8 C13.0472501,8 13.0242364,8.00130278 13.0000719,8.00159229 C12.9757636,8.00130278 12.9527499,8 12.928154,8 L12.928154,8.00332933 C10.594704,8.07223195 10.3629843,9.79740312 10.3629843,9.79740312 L10.4349023,12.1858344 C10.4349023,12.1858344 10.171251,12.306414 9.77570228,12.1134577 C9.38015352,11.9203567 8.68499455,12.3426024 9.64380474,12.9457898 C10.6027588,13.5488326 10.7706153,14.308788 8.82883047,15.382424 C8.75590566,15.4226655 8.68355619,15.464065 8.61206975,15.5070567 C8.47485029,15.5895662 7.87562988,15.9036811 8.02320552,16.1514989 C8.06793849,16.2267707 8.17941132,16.2549976 8.25722655,16.2738156 C8.46895301,16.3247688 8.69966582,16.30349 8.91685804,16.3172416 C9.0612693,16.326361 9.20855727,16.3476398 9.33599589,16.4166872 C9.51953052,16.515988 9.71399667,16.8153381 9.60784577,17.0229145 C9.4758044,17.2812993 10.8546155,16.9576307 10.9742869,17.0229145 C11.3855138,17.2475718 11.7643776,17.9687333 12.9641129,17.9973944 L12.9641129,18 C12.9766267,18 12.987702,17.998842 13.0000719,17.9986972 C13.012298,17.998842 13.0233733,18 13.0360309,18 L13.0360309,17.9973944 C14.2357662,17.9687333 14.6144862,17.2475718 15.0257131,17.0229145 C15.4452824,16.7937698 16.2662978,17.427066 16.2483183,17.0229145 C16.2379621,16.7897167 16.4806133,16.515988 16.6641479,16.4166872 C16.7915866,16.3476398 16.9388745,16.326361 17.0832858,16.3172416 C17.3003342,16.30349 17.531047,16.3247688 17.7427734,16.2738156 C17.8207325,16.2549976 17.9320615,16.2267707 17.9767945,16.1514989 C18.1243701,15.9036811 17.5251497,15.5895662 17.3879303,15.5070567" id="Fill-1" stroke="#2242C7" fill="#FFFFFF"></path>
    </g>
</svg>