<?xml version="1.0" encoding="UTF-8"?>
<svg width="25px" height="25px" viewBox="0 0 25 25" version="1.1" xmlns="http://www.w3.org/2000/svg" xmlns:xlink="http://www.w3.org/1999/xlink">
    <!-- Generator: Sketch 61.2 (89653) - https://sketch.com -->
    <title>vimeo</title>
    <desc>Created with Sketch.</desc>
    <g id="vimeo" stroke="none" stroke-width="1" fill="none" fill-rule="evenodd">
        <g>
            <rect id="Rectangle" x="0" y="0" width="25" height="25"></rect>
            <circle id="Oval" stroke="#2242C7" stroke-width="2" fill="#FFFFFF" cx="12.5" cy="12.5" r="11.5"></circle>
            <path d="M15.8602855,15.0466356 C14.3155176,17.1372219 13.0066075,18.1818182 11.9368958,18.1818182 C11.2754251,18.1818182 10.7148454,17.5462799 10.2571612,16.2710223 C9.95047932,15.1009908 9.64580192,13.9309593 9.33978821,12.7644122 C8.99903059,11.4884576 8.63421949,10.8508288 8.24401861,10.8508288 C8.15916328,10.8508288 7.86317186,11.036891 7.35270358,11.4097122 L6.81818182,10.6912474 C7.37809336,10.1790537 7.92998708,9.6647695 8.47453112,9.15187899 C9.22018897,8.47871019 9.78076866,8.1254011 10.1549339,8.08846741 C11.0368948,7.99926906 11.5807707,8.62853555 11.7858934,9.97417628 C12.0043792,11.4271338 12.1580542,12.3302671 12.2429095,12.684273 C12.4981437,13.8884507 12.7774313,14.4891459 13.083445,14.4891459 C13.320639,14.4891459 13.6774323,14.1002968 14.1531566,13.3219018 C14.628881,12.5421131 14.8821107,11.9497804 14.9168546,11.5414192 C14.9850061,10.8682504 14.7304401,10.5337565 14.1531566,10.5337565 C13.8812187,10.5337565 13.6005948,10.5936867 13.3126212,10.7191219 C13.873869,8.8243538 14.9429125,7.90310209 16.5224243,7.95676047 C17.6923588,7.99090672 18.2449207,8.77975462 18.176101,10.319123 C18.1266578,11.4717329 17.3529375,13.0473382 15.8602855,15.0466356 Z" id="Shape" fill="#2242C7"></path>
        </g>
    </g>
</svg>