
<svg width="20px" height="20px" viewBox="0 0 20 20" version="1.1" xmlns="http://www.w3.org/2000/svg" xmlns:xlink="http://www.w3.org/1999/xlink">
    <!-- Generator: Sketch 63.1 (92452) - https://sketch.com -->
    <title>Artboard</title>
    <desc>Created with Sketch.</desc>
    <defs>
        <path d="M15.8333333,10.8333333 L15.8333333,9.16666667 C14.55,9.18333333 13.2583333,8.54166667 12.4416667,7.64166667 L11.3666667,6.45 C11.225,6.29166667 11.05,6.16666667 10.8583333,6.075 C10.85,6.075 10.85,6.06666667 10.8416667,6.06666667 L10.8333333,6.06666667 C10.5416667,5.9 10.2083333,5.81666667 9.84166667,5.85 C8.96666667,5.925 8.33333333,6.7 8.33333333,7.575 L8.33333333,12.5 C8.33333333,13.4166667 9.08333333,14.1666667 10,14.1666667 L14.1666667,14.1666667 L14.1666667,18.3333333 L15.8333333,18.3333333 L15.8333333,13.75 C15.8333333,12.8333333 15.0833333,12.0833333 14.1666667,12.0833333 L11.6666667,12.0833333 L11.6666667,9.20833333 C12.7416667,10.1 14.375,10.825 15.8333333,10.8333333 L15.8333333,10.8333333 Z M10.6916667,15 C10.35,15.9666667 9.425,16.6666667 8.33333333,16.6666667 C6.95,16.6666667 5.83333333,15.55 5.83333333,14.1666667 C5.83333333,13.075 6.53333333,12.1583333 7.5,11.8083333 L7.5,10.0833333 C5.6,10.4666667 4.16666667,12.15 4.16666667,14.1666667 C4.16666667,16.4666667 6.03333333,18.3333333 8.33333333,18.3333333 C10.35,18.3333333 12.0333333,16.9 12.4166667,15 L10.6916667,15 L10.6916667,15 Z M10,5 C10.9204746,5 11.6666667,4.25380792 11.6666667,3.33333333 C11.6666667,2.41285875 10.9204746,1.66666667 10,1.66666667 C9.07952542,1.66666667 8.33333333,2.41285875 8.33333333,3.33333333 C8.33333333,4.25380792 9.07952542,5 10,5 Z" id="path-1"></path>
        <rect id="path-3" x="0" y="0" width="41.6666667" height="41.6666667"></rect>
    </defs>
    <g id="Artboard" stroke="none" stroke-width="1" fill="none" fill-rule="evenodd">
        <g id="ic_accessible">
            <mask id="mask-2" fill="white">
                <use xlink:href="#path-1"></use>
            </mask>
            <g id="Mask"></g>
            <g id="Colors/Black" mask="url(#mask-2)">
                <g transform="translate(-10.833333, -10.833333)">
                    <mask id="mask-4" fill="white">
                        <use xlink:href="#path-3"></use>
                    </mask>
                    <use id="Black" stroke="none" fill="#000000" fill-rule="evenodd" xlink:href="#path-3"></use>
                </g>
            </g>
        </g>
        <line x1="3.51098633" y1="18.7385254" x2="17.532959" y2="4.9128418" id="Path-5" stroke="#FF0000" stroke-width="2"></line>
    </g>
</svg>