<?xml version="1.0" encoding="UTF-8"?>
<svg width="25px" height="25px" viewBox="0 0 25 25" version="1.1" xmlns="http://www.w3.org/2000/svg" xmlns:xlink="http://www.w3.org/1999/xlink">
    <!-- Generator: Sketch 61.2 (89653) - https://sketch.com -->
    <title>youtube</title>
    <desc>Created with Sketch.</desc>
    <g id="youtube" stroke="none" stroke-width="1" fill="none" fill-rule="evenodd">
        <g id="Group">
            <rect id="Rectangle" x="-7.10542736e-15" y="-1.77635684e-15" width="25" height="25"></rect>
            <circle id="Oval" stroke="#2242C7" stroke-width="2" fill="#FFFFFF" cx="12.5" cy="12.5" r="11.5"></circle>
        </g>
        <path d="M8.79858605,15.4099282 L8.80802613,13.0692146 L9.23822407,13.0646277 L9.66797248,13.0591234 L9.66302768,12.6985902 L9.65763335,12.3375983 L8.41603804,12.3325527 L7.17534179,12.327507 L7.17534179,12.6935445 L7.17534179,13.0591234 L7.5952006,13.0646277 L8.0150594,13.0692146 L8.0200042,15.3906631 C8.02225184,16.6672074 8.02854523,17.7231202 8.03349003,17.7364223 C8.04023295,17.7552287 8.12744131,17.7598157 8.41558851,17.7556874 L8.78914597,17.7506418 L8.79858605,15.4099282 Z M15.9600107,15.2452572 C15.9424791,15.1984704 15.9667536,14.6576707 15.990129,14.579234 C16.0445219,14.3948392 16.1600505,14.3049353 16.3421092,14.3049353 C16.4936,14.3049353 16.5897989,14.3645654 16.6545309,14.498504 C16.6954379,14.5833623 16.6994836,14.6195991 16.705777,14.9333455 L16.7120704,15.2750723 L16.3412101,15.2750723 C16.022495,15.2750723 15.9694507,15.270944 15.9600107,15.2452572 L15.9600107,15.2452572 Z M16.6522832,17.7671548 C17.0155015,17.6630313 17.2667875,17.4098324 17.3616378,17.0525101 C17.3773713,16.9915038 17.3958019,16.8176589 17.4020953,16.6667487 L17.412884,16.39245 L17.0631515,16.39245 L16.7129694,16.39245 L16.7044284,16.6383097 C16.6945388,16.9176542 16.6662186,17.0135211 16.5664234,17.1029664 C16.4603349,17.197916 16.2652399,17.2047964 16.1384731,17.1176446 C15.9874319,17.0135211 15.9501211,16.8378415 15.957763,16.2672266 L15.9631574,15.8626588 L16.6873464,15.8580719 L17.4115354,15.8525676 L17.4020953,15.2507615 C17.3904076,14.579234 17.3769217,14.4774041 17.266338,14.2388834 C17.0555095,13.7870702 16.4715731,13.5590994 15.9865328,13.739366 C15.6206173,13.875598 15.4043945,14.1209991 15.3176357,14.5007974 C15.2870678,14.634736 15.2834716,14.7549137 15.2834716,15.7374355 C15.2834716,16.9424236 15.2875173,16.9915038 15.4079907,17.238281 C15.6233145,17.6772508 16.1622981,17.9065976 16.6522832,17.7671548 L16.6522832,17.7671548 Z M13.7847465,17.0809491 C13.8292497,17.0502166 13.858469,17.0075581 13.8813949,16.9410475 C13.9106142,16.853437 13.9133114,16.7419745 13.9092656,15.7085378 C13.9052199,14.6315251 13.9029723,14.5682254 13.8688082,14.4975866 C13.7811503,14.31732 13.5604322,14.2998896 13.3581448,14.4576802 L13.2916147,14.5090539 L13.2916147,15.7374355 L13.2916147,16.965817 L13.3576952,17.0171907 C13.5073879,17.1336989 13.6714655,17.1580096 13.7847465,17.0809491 L13.7847465,17.0809491 Z M14.2230359,17.7744938 C14.3331702,17.7419266 14.4662304,17.6084468 14.5260175,17.4722147 C14.6410966,17.2112181 14.6415461,17.2047964 14.6415461,15.7374355 C14.6415461,14.532906 14.6379499,14.3842893 14.6087306,14.2540203 C14.5138803,13.8370678 14.3070976,13.6549664 13.9591632,13.6815706 C13.7645177,13.6971662 13.6112288,13.7760615 13.427372,13.9572455 C13.3473561,14.0356821 13.2758812,14.1003579 13.2677897,14.1003579 C13.2605973,14.1003579 13.2538544,13.7012944 13.2538544,13.2141618 L13.2538544,12.3279657 L12.9140115,12.3279657 L12.5741686,12.3279657 L12.5741686,15.0438907 L12.5741686,17.7602743 L12.9140115,17.7602743 L13.2538544,17.7602743 L13.2538544,17.5772556 C13.2538544,17.4557018 13.2610468,17.3942368 13.2749822,17.3942368 C13.2862203,17.3942368 13.36264,17.4584539 13.4449036,17.5373492 C13.7092258,17.7910068 13.9380354,17.8607283 14.2230359,17.7744938 L14.2230359,17.7744938 Z M10.6056871,17.7566048 C10.7414445,17.7052311 10.9010268,17.5923925 11.0354355,17.4529496 C11.0970208,17.3887325 11.1586061,17.3364414 11.1720919,17.3364414 C11.190073,17.3364414 11.1963664,17.3887325 11.1963664,17.5483579 L11.1963664,17.7602743 L11.5362093,17.7602743 L11.8760522,17.7602743 L11.8760522,15.747068 L11.8760522,13.7343204 L11.5362093,13.7343204 L11.1963664,13.7343204 L11.1963664,15.2869983 L11.1963664,16.8401349 L11.0498204,16.988293 C10.9338423,17.1061772 10.8852933,17.1419553 10.8133689,17.1621379 C10.6919964,17.1965399 10.6146777,17.1726878 10.5647801,17.0850773 C10.5270198,17.0199428 10.5261207,16.9896691 10.5207264,15.3764436 L10.5157816,13.7343204 L10.1759387,13.7343204 L9.83699487,13.7343204 L9.83699487,15.4778149 C9.83699487,17.3772652 9.83879298,17.4185476 9.94308339,17.6015664 C10.0572634,17.8015568 10.3242828,17.8643978 10.6056871,17.7566048 L10.6056871,17.7566048 Z M13.8674596,10.977113 C15.2048043,11.0073868 16.649586,11.0706865 17.0334826,11.1151798 C17.5302107,11.1729752 17.8790441,11.4353479 18.1204404,11.9330305 C18.3029487,12.3087006 18.3609377,12.6013471 18.4351098,13.5031388 C18.4930988,14.2168661 18.5074837,14.6617989 18.4966951,15.4860713 C18.4845578,16.4722626 18.4229725,17.3410284 18.3308194,17.8286197 C18.2337214,18.3441913 18.0044623,18.7836198 17.7073246,19.0216818 C17.478515,19.205618 17.2344215,19.2877241 16.8500754,19.3097414 C16.7358954,19.3166218 16.591597,19.3257957 16.5291126,19.3308413 C16.3079451,19.3482717 15.1220912,19.3968932 14.4716247,19.4156996 C13.5051403,19.4432213 11.8140174,19.4528538 10.8942838,19.4363409 C10.4528477,19.4285431 9.93049662,19.4161583 9.73315399,19.4088192 C8.40839607,19.3601977 7.49900168,19.3083653 7.31739252,19.2707525 C7.05846461,19.217544 6.76896882,19.0386535 6.60084549,18.8281131 C6.33202797,18.4909733 6.18817913,18.0818186 6.11850234,17.4520322 C5.95712193,15.9878822 5.96071815,14.2801658 6.12839195,12.8673894 C6.20211448,12.248153 6.38507223,11.8009268 6.6920996,11.4890151 C6.86741537,11.3105833 7.03598823,11.2115054 7.26030252,11.1527927 C7.74669141,11.0257345 11.5523923,10.9248219 13.8674596,10.977113 Z M11.1077587,5.00063936 L11.4921048,5.00293283 L11.4835638,5.06577386 C11.4768209,5.11668885 11.2142968,6.01572836 10.9396354,6.92898737 C10.9099666,7.02989997 10.8330973,7.28997925 10.769714,7.50740003 C10.7063306,7.72436212 10.6299109,7.98214793 10.599343,8.08030837 L10.5440511,8.25919888 L10.5440511,9.37474178 C10.5440511,10.4210219 10.5418034,10.4912021 10.5112356,10.4994586 C10.4420083,10.5187237 9.71377356,10.5095498 9.70163631,10.4893673 C9.68545332,10.4623044 9.68815048,8.87751789 9.70433348,8.65321671 C9.72546128,8.36561581 9.67781135,8.13902115 9.47552392,7.5601498 C9.40989288,7.3725441 9.29121759,7.00834137 9.21210073,6.75147293 C8.63985206,4.89422244 8.66997041,5.00293283 8.72481278,5.00247414 C9.10196646,4.99926328 9.56722755,5.00155675 9.57262188,5.00706107 C9.5762181,5.01073062 9.69848962,5.46391993 9.8445861,6.01481097 C9.9911321,6.56524332 10.1129541,7.02347825 10.1161008,7.03356951 C10.1187979,7.04274339 10.2046577,6.72211654 10.3067005,6.32075962 C10.5202261,5.47859812 10.64025,5.01394148 10.6447453,5.00981323 C10.6541854,5.00063936 10.7602739,4.99880459 11.1077587,5.00063936 Z M14.6689166,10.5563366 C14.4792159,10.5306497 14.3681826,10.4558827 14.2922124,10.3022203 C14.1969126,10.109569 14.1969126,10.1104864 14.1969126,8.19085353 L14.1969126,6.39965492 L14.5799101,6.39965492 L14.9624581,6.39965492 L14.9705496,8.05095198 C14.9790906,9.84444406 14.976843,9.80270294 15.0820325,9.82976586 C15.1786809,9.85407662 15.2856685,9.80132686 15.4187287,9.66280138 L15.5463945,9.53023892 L15.5513393,7.96471758 L15.5558346,6.39965492 L15.9383826,6.3941506 L16.3209306,6.38956366 L16.3209306,8.43946548 L16.3209306,10.489826 L16.2687854,10.5008346 C16.2063011,10.5141368 15.6264104,10.5132194 15.5796596,10.4994586 C15.5513393,10.4916608 15.546844,10.4650565 15.546844,10.3045138 L15.546844,10.1182842 L15.4380584,10.2265358 C15.188121,10.4746891 14.9184044,10.5902799 14.6689166,10.5563366 L14.6689166,10.5563366 Z M12.7413421,9.77334655 C12.8726042,9.67151656 12.8735032,9.66280138 12.8802462,8.5101043 C12.88609,7.61427565 12.8829433,7.46198936 12.8564212,7.33997686 C12.820459,7.17484715 12.7575251,7.09686924 12.6343545,7.06246721 C12.4752218,7.01935001 12.3295748,7.11200612 12.2783287,7.28952056 C12.2396693,7.42621126 12.2401188,9.45822402 12.2792277,9.59491472 C12.3088965,9.6976621 12.4037469,9.81004204 12.4738732,9.82563762 C12.5651273,9.84536144 12.6770597,9.82334415 12.7417916,9.77334655 L12.7413421,9.77334655 Z M12.4415072,10.5554192 C12.0989671,10.5132194 11.7842978,10.3077246 11.632807,10.0270041 C11.478619,9.74123799 11.4642341,9.59170387 11.4732247,8.33304856 C11.4804171,7.3583246 11.4831143,7.29731835 11.5208746,7.15741679 C11.6112297,6.82486391 11.7860959,6.59826926 12.0571611,6.46111987 C12.4293699,6.27351418 12.8307981,6.29782494 13.1818792,6.52992391 C13.405744,6.67716457 13.5415013,6.8909158 13.6143248,7.20879048 C13.6462412,7.34915073 13.6493879,7.45694373 13.6493879,8.44130025 C13.6493879,9.63849062 13.6439936,9.70775336 13.5235202,9.96691526 C13.4079916,10.2169033 13.1463665,10.4370762 12.8735032,10.5145954 C12.7530298,10.5480801 12.5439995,10.5682626 12.4415072,10.5554192 L12.4415072,10.5554192 Z" id="Shape" fill="#2242C7"></path>
    </g>
</svg>